{"glyphs":{"0":{"ha":951,"x_min":47,"x_max":904,"o":"m 476 -19 q 255 40 351 -19 q 103 213 158 100 q 47 486 47 325 q 103 760 47 647 q 255 932 158 872 q 476 992 351 992 q 697 932 600 992 q 849 760 793 872 q 904 486 904 647 q 849 213 904 325 q 697 40 793 100 q 476 -19 600 -19 m 476 206 q 555 233 521 206 q 608 323 589 261 q 628 486 628 385 q 608 650 628 589 q 555 739 589 711 q 476 767 521 767 q 398 739 432 767 q 344 650 364 711 q 324 486 324 589 q 344 323 324 385 q 398 233 364 261 q 476 206 432 206 z "},"1":{"ha":563,"x_min":8,"x_max":464,"o":"m 189 0 l 189 874 l 307 760 l 8 760 l 8 972 l 464 972 l 464 0 l 189 0 z "},"2":{"ha":832,"x_min":-8,"x_max":799,"o":"m 42 0 l 42 172 l 406 513 q 463 576 444 549 q 488 627 482 604 q 494 669 494 650 q 463 743 494 717 q 369 769 432 769 q 271 746 317 769 q 196 675 225 722 l -8 789 q 149 936 46 881 q 394 992 251 992 q 592 956 507 992 q 724 853 676 919 q 772 696 772 786 q 760 602 772 649 q 712 503 747 556 q 607 388 676 451 l 318 121 l 272 218 l 799 218 l 799 0 l 42 0 z "},"3":{"ha":838,"x_min":-6,"x_max":796,"o":"m 372 -19 q 170 6 271 -19 q -6 76 69 31 l 94 283 q 224 224 153 244 q 364 203 296 203 q 476 229 435 203 q 518 304 518 256 q 483 373 518 347 q 369 399 449 399 l 254 399 l 254 572 l 515 854 l 542 760 l 44 760 l 44 972 l 747 972 l 747 800 l 486 518 l 351 594 l 426 594 q 702 513 608 594 q 796 304 796 432 q 751 147 796 221 q 613 27 706 74 q 372 -19 519 -19 z "},"4":{"ha":972,"x_min":38,"x_max":964,"o":"m 38 186 l 38 365 l 474 972 l 758 972 l 335 365 l 204 404 l 964 404 l 964 186 l 38 186 m 551 0 l 551 186 l 560 404 l 560 569 l 819 569 l 819 0 l 551 0 z "},"5":{"ha":843,"x_min":11,"x_max":811,"o":"m 388 -19 q 186 6 288 -19 q 11 76 85 31 l 110 283 q 240 224 169 244 q 379 203 310 203 q 492 230 449 203 q 535 306 535 257 q 518 358 535 335 q 461 392 501 381 q 346 404 421 404 l 82 404 l 131 972 l 750 972 l 750 760 l 228 760 l 368 881 l 336 497 l 196 618 l 411 618 q 643 577 556 618 q 771 467 731 536 q 811 313 811 399 q 766 151 811 226 q 628 28 721 75 q 388 -19 535 -19 z "},"6":{"ha":901,"x_min":47,"x_max":879,"o":"m 497 -19 q 260 35 361 -19 q 103 196 160 89 q 47 460 47 303 q 113 748 47 629 q 295 929 179 867 q 564 992 411 992 q 722 973 646 992 q 850 921 797 954 l 750 724 q 663 763 708 753 q 571 774 618 774 q 391 706 458 774 q 324 507 324 638 q 324 458 324 483 q 329 406 325 432 l 260 463 q 327 549 288 514 q 422 601 367 583 q 544 619 476 619 q 712 581 636 619 q 833 474 788 543 q 879 313 879 406 q 828 137 879 211 q 690 22 776 63 q 497 -19 604 -19 m 481 176 q 549 192 519 176 q 596 235 579 207 q 613 300 613 263 q 576 389 613 356 q 479 422 539 422 q 409 407 439 422 q 362 364 379 392 q 344 299 344 336 q 361 235 344 263 q 408 192 378 208 q 481 176 439 176 z "},"7":{"ha":878,"x_min":32,"x_max":838,"o":"m 194 0 l 574 871 l 647 754 l 154 754 l 267 881 l 267 604 l 32 604 l 32 972 l 838 972 l 838 800 l 494 0 l 194 0 z "},"8":{"ha":929,"x_min":42,"x_max":886,"o":"m 464 -19 q 243 18 338 -19 q 95 124 149 56 q 42 286 42 193 q 95 442 42 378 q 244 541 149 507 q 464 575 339 575 q 684 541 589 575 q 833 442 779 507 q 886 286 886 378 q 833 124 886 193 q 685 18 781 56 q 464 -19 590 -19 m 464 174 q 570 206 531 174 q 610 294 610 238 q 570 383 610 350 q 464 415 531 415 q 358 383 397 415 q 318 294 318 350 q 358 206 318 238 q 464 174 397 174 m 464 594 q 549 622 517 594 q 581 696 581 649 q 548 772 581 746 q 464 799 515 799 q 381 772 413 799 q 349 696 349 746 q 381 622 349 649 q 464 594 413 594 m 464 439 q 263 471 350 439 q 126 563 176 503 q 76 708 76 624 q 126 858 76 796 q 263 956 175 921 q 464 992 350 992 q 666 956 579 992 q 802 858 753 921 q 851 708 851 796 q 802 563 851 624 q 665 471 753 503 q 464 439 578 439 z "},"9":{"ha":901,"x_min":22,"x_max":854,"o":"m 336 -19 q 181 -1 256 -19 q 51 51 106 18 l 151 249 q 238 209 193 219 q 331 199 283 199 q 510 267 443 199 q 576 465 576 335 q 576 515 576 489 q 572 567 576 540 l 640 510 q 575 424 615 458 q 481 371 535 389 q 357 353 426 353 q 190 391 265 353 q 68 498 114 429 q 22 660 22 567 q 74 835 22 761 q 211 951 125 910 q 403 992 297 992 q 641 938 540 992 q 798 777 742 883 q 854 513 854 671 q 788 224 854 343 q 606 43 722 106 q 336 -19 490 -19 m 422 550 q 493 565 463 550 q 540 608 524 581 q 557 674 557 636 q 540 737 557 710 q 493 780 524 764 q 421 796 463 796 q 353 781 382 796 q 306 738 324 765 q 289 672 289 711 q 326 583 289 617 q 422 550 363 550 z "},"A":{"ha":1092,"x_min":-19,"x_max":1111,"o":"m -19 0 l 410 972 l 681 972 l 1111 0 l 825 0 l 489 838 l 597 838 l 261 0 l -19 0 m 215 189 l 286 392 l 761 392 l 832 189 l 215 189 z "},"Á":{"ha":1092,"x_min":-19,"x_max":1111,"o":"m -19 0 l 410 972 l 681 972 l 1111 0 l 825 0 l 489 838 l 597 838 l 261 0 l -19 0 m 215 189 l 286 392 l 761 392 l 832 189 l 215 189 m 410 1051 l 596 1263 l 860 1263 l 599 1051 l 410 1051 z "},"Ă":{"ha":1092,"x_min":-19,"x_max":1111,"o":"m -19 0 l 410 972 l 681 972 l 1111 0 l 825 0 l 489 838 l 597 838 l 261 0 l -19 0 m 215 189 l 286 392 l 761 392 l 832 189 l 215 189 m 546 1053 q 353 1113 429 1053 q 274 1276 278 1172 l 435 1276 q 469 1209 438 1233 q 546 1185 500 1185 q 624 1209 592 1185 q 657 1276 656 1233 l 818 1276 q 738 1113 814 1172 q 546 1053 663 1053 z "},"Ắ":{"ha":1092,"x_min":-19,"x_max":1111,"o":"m -19 0 l 410 972 l 681 972 l 1111 0 l 825 0 l 489 838 l 597 838 l 261 0 l -19 0 m 215 189 l 286 392 l 761 392 l 832 189 l 215 189 m 546 1047 q 356 1097 431 1047 q 274 1229 281 1146 l 426 1229 q 463 1184 431 1201 q 546 1167 496 1167 q 628 1184 596 1167 q 665 1229 661 1201 l 818 1229 q 737 1097 813 1146 q 546 1047 661 1047 m 414 1268 l 561 1442 l 819 1442 l 596 1268 l 414 1268 z "},"Ặ":{"ha":1092,"x_min":-19,"x_max":1111,"o":"m -19 0 l 410 972 l 681 972 l 1111 0 l 825 0 l 489 838 l 597 838 l 261 0 l -19 0 m 215 189 l 286 392 l 761 392 l 832 189 l 215 189 m 546 -337 q 447 -299 486 -337 q 408 -200 408 -261 q 447 -102 408 -140 q 546 -64 486 -64 q 644 -102 606 -64 q 683 -200 683 -140 q 644 -299 683 -261 q 546 -337 606 -337 m 546 1053 q 353 1113 429 1053 q 274 1276 278 1172 l 435 1276 q 469 1209 438 1233 q 546 1185 500 1185 q 624 1209 592 1185 q 657 1276 656 1233 l 818 1276 q 738 1113 814 1172 q 546 1053 663 1053 z "},"Ằ":{"ha":1092,"x_min":-19,"x_max":1111,"o":"m -19 0 l 410 972 l 681 972 l 1111 0 l 825 0 l 489 838 l 597 838 l 261 0 l -19 0 m 215 189 l 286 392 l 761 392 l 832 189 l 215 189 m 546 1047 q 356 1097 431 1047 q 274 1229 281 1146 l 426 1229 q 463 1184 431 1201 q 546 1167 496 1167 q 628 1184 596 1167 q 665 1229 661 1201 l 818 1229 q 737 1097 813 1146 q 546 1047 661 1047 m 497 1268 l 272 1442 l 531 1442 l 678 1268 l 497 1268 z "},"Ẳ":{"ha":1092,"x_min":-19,"x_max":1111,"o":"m -19 0 l 410 972 l 681 972 l 1111 0 l 825 0 l 489 838 l 597 838 l 261 0 l -19 0 m 215 189 l 286 392 l 761 392 l 832 189 l 215 189 m 546 1047 q 356 1097 431 1047 q 274 1229 281 1146 l 426 1229 q 463 1184 431 1201 q 546 1167 496 1167 q 628 1184 596 1167 q 665 1229 661 1201 l 818 1229 q 737 1097 813 1146 q 546 1047 661 1047 m 588 1226 l 525 1283 q 564 1313 553 1299 q 575 1339 575 1328 q 563 1366 575 1356 q 531 1376 550 1376 q 468 1360 501 1376 l 426 1435 q 485 1460 453 1451 q 553 1468 518 1468 q 653 1437 615 1468 q 690 1353 690 1406 q 660 1276 690 1308 q 588 1226 631 1243 z "},"Ẵ":{"ha":1092,"x_min":-19,"x_max":1111,"o":"m -19 0 l 410 972 l 681 972 l 1111 0 l 825 0 l 489 838 l 597 838 l 261 0 l -19 0 m 215 189 l 286 392 l 761 392 l 832 189 l 215 189 m 546 1047 q 356 1097 431 1047 q 274 1229 281 1146 l 426 1229 q 463 1184 431 1201 q 546 1167 496 1167 q 628 1184 596 1167 q 665 1229 661 1201 l 818 1229 q 737 1097 813 1146 q 546 1047 661 1047 m 654 1288 q 585 1299 614 1288 q 536 1324 557 1310 q 497 1350 515 1339 q 458 1361 478 1361 q 417 1344 432 1361 q 399 1299 401 1326 l 267 1299 q 315 1435 268 1386 q 439 1483 361 1483 q 526 1465 492 1483 q 585 1428 560 1447 q 638 1410 611 1410 q 680 1428 664 1410 q 697 1472 696 1446 l 825 1472 q 778 1336 824 1385 q 654 1288 733 1288 z "},"Ǎ":{"ha":1092,"x_min":-19,"x_max":1111,"o":"m -19 0 l 410 972 l 681 972 l 1111 0 l 825 0 l 489 838 l 597 838 l 261 0 l -19 0 m 215 189 l 286 392 l 761 392 l 832 189 l 215 189 m 432 1051 l 251 1263 l 426 1263 l 622 1090 l 469 1090 l 665 1263 l 840 1263 l 660 1051 l 432 1051 z "},"Â":{"ha":1092,"x_min":-19,"x_max":1111,"o":"m -19 0 l 410 972 l 681 972 l 1111 0 l 825 0 l 489 838 l 597 838 l 261 0 l -19 0 m 215 189 l 286 392 l 761 392 l 832 189 l 215 189 m 251 1051 l 432 1263 l 660 1263 l 840 1051 l 665 1051 l 469 1225 l 622 1225 l 426 1051 l 251 1051 z "},"Ấ":{"ha":1092,"x_min":-19,"x_max":1136,"o":"m -19 0 l 410 972 l 681 972 l 1111 0 l 825 0 l 489 838 l 597 838 l 261 0 l -19 0 m 215 189 l 286 392 l 761 392 l 832 189 l 215 189 m 251 1051 l 433 1221 l 658 1221 l 840 1051 l 664 1051 l 474 1183 l 618 1183 l 428 1051 l 251 1051 m 729 1190 l 876 1364 l 1135 1364 l 911 1190 l 729 1190 z "},"Ậ":{"ha":1092,"x_min":-19,"x_max":1111,"o":"m -19 0 l 410 972 l 681 972 l 1111 0 l 825 0 l 489 838 l 597 838 l 261 0 l -19 0 m 215 189 l 286 392 l 761 392 l 832 189 l 215 189 m 546 -337 q 447 -299 486 -337 q 408 -200 408 -261 q 447 -102 408 -140 q 546 -64 486 -64 q 644 -102 606 -64 q 683 -200 683 -140 q 644 -299 683 -261 q 546 -337 606 -337 m 251 1051 l 432 1263 l 660 1263 l 840 1051 l 665 1051 l 469 1225 l 622 1225 l 426 1051 l 251 1051 z "},"Ầ":{"ha":1092,"x_min":-19,"x_max":1111,"o":"m -19 0 l 410 972 l 681 972 l 1111 0 l 825 0 l 489 838 l 597 838 l 261 0 l -19 0 m 215 189 l 286 392 l 761 392 l 832 189 l 215 189 m 251 1051 l 433 1221 l 658 1221 l 840 1051 l 664 1051 l 474 1183 l 618 1183 l 428 1051 l 251 1051 m 813 1190 l 588 1364 l 846 1364 l 993 1190 l 813 1190 z "},"Ẩ":{"ha":1092,"x_min":-19,"x_max":1111,"o":"m -19 0 l 410 972 l 681 972 l 1111 0 l 825 0 l 489 838 l 597 838 l 261 0 l -19 0 m 215 189 l 286 392 l 761 392 l 832 189 l 215 189 m 251 1051 l 433 1221 l 658 1221 l 840 1051 l 664 1051 l 474 1183 l 618 1183 l 428 1051 l 251 1051 m 818 1163 l 756 1219 q 794 1249 783 1235 q 806 1275 806 1264 q 793 1302 806 1292 q 761 1313 781 1313 q 699 1296 732 1313 l 657 1371 q 716 1396 683 1388 q 783 1404 749 1404 q 883 1373 846 1404 q 921 1289 921 1342 q 891 1212 921 1244 q 818 1163 861 1179 z "},"Ẫ":{"ha":1092,"x_min":-19,"x_max":1111,"o":"m -19 0 l 410 972 l 681 972 l 1111 0 l 825 0 l 489 838 l 597 838 l 261 0 l -19 0 m 215 189 l 286 392 l 761 392 l 832 189 l 215 189 m 251 1051 l 433 1221 l 658 1221 l 840 1051 l 664 1051 l 474 1183 l 618 1183 l 428 1051 l 251 1051 m 654 1278 q 585 1289 614 1278 q 536 1315 557 1300 q 497 1340 515 1329 q 458 1351 478 1351 q 417 1334 432 1351 q 399 1289 401 1317 l 267 1289 q 315 1425 268 1376 q 439 1474 361 1474 q 526 1456 492 1474 q 585 1419 560 1438 q 638 1400 611 1400 q 680 1418 664 1400 q 697 1463 696 1436 l 825 1463 q 778 1326 824 1375 q 654 1278 733 1278 z "},"Ȁ":{"ha":1092,"x_min":-19,"x_max":1111,"o":"m -19 0 l 410 972 l 681 972 l 1111 0 l 825 0 l 489 838 l 597 838 l 261 0 l -19 0 m 215 189 l 286 392 l 761 392 l 832 189 l 215 189 m 606 1051 l 465 1263 l 701 1263 l 789 1051 l 606 1051 m 303 1051 l 164 1263 l 400 1263 l 486 1051 l 303 1051 z "},"Ä":{"ha":1092,"x_min":-19,"x_max":1111,"o":"m -19 0 l 410 972 l 681 972 l 1111 0 l 825 0 l 489 838 l 597 838 l 261 0 l -19 0 m 215 189 l 286 392 l 761 392 l 832 189 l 215 189 m 693 1050 q 615 1080 647 1050 q 583 1158 583 1110 q 615 1238 583 1207 q 693 1268 647 1268 q 771 1238 739 1268 q 803 1158 803 1207 q 771 1080 803 1110 q 693 1050 739 1050 m 399 1050 q 321 1080 353 1050 q 289 1158 289 1110 q 321 1238 289 1207 q 399 1268 353 1268 q 476 1238 444 1268 q 508 1158 508 1207 q 476 1080 508 1110 q 399 1050 444 1050 z "},"Ǟ":{"ha":1092,"x_min":-19,"x_max":1111,"o":"m -19 0 l 410 972 l 681 972 l 1111 0 l 825 0 l 489 838 l 597 838 l 261 0 l -19 0 m 215 189 l 286 392 l 761 392 l 832 189 l 215 189 m 688 1044 q 613 1074 643 1044 q 583 1147 583 1103 q 613 1223 583 1194 q 688 1251 643 1251 q 762 1223 732 1251 q 792 1147 792 1194 q 762 1074 792 1103 q 688 1044 732 1044 m 404 1044 q 331 1074 361 1044 q 300 1147 300 1103 q 331 1223 300 1194 q 404 1251 361 1251 q 479 1223 449 1251 q 510 1147 510 1194 q 479 1074 510 1103 q 404 1044 449 1044 m 272 1325 l 272 1460 l 819 1460 l 819 1325 l 272 1325 z "},"Ȧ":{"ha":1092,"x_min":-19,"x_max":1111,"o":"m -19 0 l 410 972 l 681 972 l 1111 0 l 825 0 l 489 838 l 597 838 l 261 0 l -19 0 m 215 189 l 286 392 l 761 392 l 832 189 l 215 189 m 546 1049 q 447 1087 486 1049 q 408 1186 408 1125 q 447 1284 408 1246 q 546 1322 486 1322 q 644 1284 606 1322 q 683 1186 683 1246 q 644 1087 683 1125 q 546 1049 606 1049 z "},"Ạ":{"ha":1092,"x_min":-19,"x_max":1111,"o":"m -19 0 l 410 972 l 681 972 l 1111 0 l 825 0 l 489 838 l 597 838 l 261 0 l -19 0 m 215 189 l 286 392 l 761 392 l 832 189 l 215 189 m 546 -337 q 447 -299 486 -337 q 408 -200 408 -261 q 447 -102 408 -140 q 546 -64 486 -64 q 644 -102 606 -64 q 683 -200 683 -140 q 644 -299 683 -261 q 546 -337 606 -337 z "},"Ǡ":{"ha":1092,"x_min":-19,"x_max":1111,"o":"m -19 0 l 410 972 l 681 972 l 1111 0 l 825 0 l 489 838 l 597 838 l 261 0 l -19 0 m 215 189 l 286 392 l 761 392 l 832 189 l 215 189 m 546 1046 q 468 1075 500 1046 q 436 1153 436 1104 q 468 1233 436 1203 q 546 1263 500 1263 q 624 1233 592 1263 q 656 1153 656 1203 q 624 1075 656 1104 q 546 1046 592 1046 m 272 1325 l 272 1460 l 819 1460 l 819 1325 l 272 1325 z "},"À":{"ha":1092,"x_min":-19,"x_max":1111,"o":"m -19 0 l 410 972 l 681 972 l 1111 0 l 825 0 l 489 838 l 597 838 l 261 0 l -19 0 m 215 189 l 286 392 l 761 392 l 832 189 l 215 189 m 493 1051 l 232 1263 l 496 1263 l 682 1051 l 493 1051 z "},"Ả":{"ha":1092,"x_min":-19,"x_max":1111,"o":"m -19 0 l 410 972 l 681 972 l 1111 0 l 825 0 l 489 838 l 597 838 l 261 0 l -19 0 m 215 189 l 286 392 l 761 392 l 832 189 l 215 189 m 551 1008 l 469 1089 q 524 1128 510 1108 q 538 1169 538 1147 q 520 1210 538 1194 q 475 1225 503 1225 q 394 1197 435 1225 l 340 1299 q 425 1341 382 1328 q 508 1354 468 1354 q 604 1332 563 1354 q 669 1272 646 1310 q 693 1189 693 1235 q 660 1089 693 1136 q 551 1008 626 1042 z "},"Ȃ":{"ha":1092,"x_min":-19,"x_max":1111,"o":"m -19 0 l 410 972 l 681 972 l 1111 0 l 825 0 l 489 838 l 597 838 l 261 0 l -19 0 m 215 189 l 286 392 l 761 392 l 832 189 l 215 189 m 274 1051 q 353 1215 278 1156 q 546 1275 429 1275 q 738 1215 663 1275 q 818 1051 814 1156 l 657 1051 q 624 1118 656 1093 q 546 1143 592 1143 q 469 1118 500 1143 q 435 1051 438 1093 l 274 1051 z "},"Ɑ":{"ha":1219,"x_min":47,"x_max":1122,"o":"m 544 -14 q 348 22 438 -14 q 191 123 258 57 q 85 281 124 189 q 47 488 47 374 q 85 695 47 603 q 190 853 124 788 q 347 954 257 919 q 540 989 436 989 q 713 958 636 989 q 845 865 790 928 q 930 708 900 803 q 960 485 960 613 q 931 265 960 358 q 849 109 903 171 q 717 17 794 47 q 544 -14 640 -14 m 589 210 q 723 243 664 210 q 817 338 782 276 q 851 486 851 400 q 817 635 851 574 q 723 731 782 697 q 589 764 664 764 q 455 731 515 764 q 360 635 394 697 q 325 486 325 572 q 360 339 325 401 q 454 243 394 276 q 589 210 514 210 m 860 0 l 860 206 l 865 488 l 847 772 l 847 972 l 1122 972 l 1122 0 l 860 0 z "},"Ā":{"ha":1092,"x_min":-19,"x_max":1111,"o":"m -19 0 l 410 972 l 681 972 l 1111 0 l 825 0 l 489 838 l 597 838 l 261 0 l -19 0 m 215 189 l 286 392 l 761 392 l 832 189 l 215 189 m 272 1086 l 272 1228 l 819 1228 l 819 1086 l 272 1086 z "},"Ą":{"ha":1092,"x_min":-19,"x_max":1144,"o":"m -19 0 l 410 972 l 681 972 l 1111 0 l 825 0 l 489 838 l 597 838 l 261 0 l -19 0 m 215 189 l 286 392 l 761 392 l 832 189 l 215 189 m 996 -328 q 845 -283 899 -328 q 792 -165 792 -237 q 816 -75 792 -117 q 890 2 840 -33 q 1013 63 940 38 l 1111 0 q 1016 -50 1051 -26 q 966 -96 981 -74 q 951 -142 951 -118 q 970 -185 951 -168 q 1028 -203 989 -203 q 1072 -197 1050 -203 q 1110 -182 1094 -190 l 1144 -296 q 1079 -319 1119 -310 q 996 -328 1039 -328 z "},"Å":{"ha":1092,"x_min":-19,"x_max":1111,"o":"m -19 0 l 410 972 l 681 972 l 1111 0 l 825 0 l 489 838 l 597 838 l 261 0 l -19 0 m 215 189 l 286 392 l 761 392 l 832 189 l 215 189 m 546 1024 q 453 1047 494 1024 q 387 1111 411 1071 q 363 1200 363 1151 q 387 1290 363 1250 q 453 1353 411 1329 q 546 1378 494 1378 q 640 1353 599 1378 q 705 1290 681 1329 q 729 1200 729 1250 q 705 1111 729 1151 q 639 1047 681 1071 q 546 1024 597 1024 m 546 1121 q 603 1143 581 1121 q 625 1200 625 1165 q 602 1258 625 1235 q 546 1281 579 1281 q 490 1258 513 1281 q 467 1200 467 1236 q 490 1143 467 1165 q 546 1121 513 1121 z "},"Ǻ":{"ha":1092,"x_min":-19,"x_max":1111,"o":"m -19 0 l 410 972 l 681 972 l 1111 0 l 825 0 l 489 838 l 597 838 l 261 0 l -19 0 m 215 189 l 286 392 l 761 392 l 832 189 l 215 189 m 546 1024 q 453 1047 494 1024 q 387 1111 411 1071 q 363 1200 363 1151 q 387 1290 363 1250 q 453 1353 411 1329 q 546 1378 494 1378 q 640 1353 599 1378 q 705 1290 681 1329 q 729 1200 729 1250 q 705 1111 729 1151 q 639 1047 681 1071 q 546 1024 597 1024 m 546 1121 q 603 1143 581 1121 q 625 1200 625 1165 q 602 1258 625 1235 q 546 1281 579 1281 q 490 1258 513 1281 q 467 1200 467 1236 q 490 1143 467 1165 q 546 1121 513 1121 m 682 1271 l 560 1310 l 738 1494 l 867 1397 l 682 1271 z "},"Ḁ":{"ha":1092,"x_min":-19,"x_max":1111,"o":"m -19 0 l 410 972 l 681 972 l 1111 0 l 825 0 l 489 838 l 597 838 l 261 0 l -19 0 m 215 189 l 286 392 l 761 392 l 832 189 l 215 189 m 546 -393 q 453 -369 494 -393 q 387 -306 411 -346 q 363 -217 363 -265 q 387 -127 363 -167 q 453 -63 411 -87 q 546 -39 494 -39 q 640 -63 599 -39 q 705 -127 681 -87 q 729 -217 729 -167 q 705 -306 729 -265 q 639 -369 681 -346 q 546 -393 597 -393 m 546 -296 q 603 -274 581 -296 q 625 -217 625 -251 q 602 -159 625 -182 q 546 -136 579 -136 q 490 -158 513 -136 q 467 -217 467 -181 q 490 -274 467 -251 q 546 -296 513 -296 z "},"Ⱥ":{"ha":1063,"x_min":-19,"x_max":1082,"o":"m -19 0 l 413 972 l 649 972 l 1082 0 l 833 0 l 482 856 l 576 856 l 226 0 l -19 0 m 203 206 l 265 381 l 758 381 l 822 206 l 203 206 m 371 -97 l 849 1069 l 993 1069 l 515 -97 l 371 -97 z "},"Ã":{"ha":1092,"x_min":-19,"x_max":1111,"o":"m -19 0 l 410 972 l 681 972 l 1111 0 l 825 0 l 489 838 l 597 838 l 261 0 l -19 0 m 215 189 l 286 392 l 761 392 l 832 189 l 215 189 m 657 1040 q 590 1053 619 1040 q 536 1084 560 1067 q 492 1115 513 1101 q 450 1128 471 1128 q 406 1107 424 1128 q 386 1053 389 1086 l 254 1053 q 304 1215 257 1153 q 435 1278 351 1278 q 503 1265 474 1278 q 556 1234 532 1251 q 601 1203 581 1217 q 642 1190 622 1190 q 687 1210 669 1190 q 706 1263 704 1231 l 836 1263 q 788 1102 835 1164 q 657 1040 740 1040 z "},"Ɐ":{"ha":1092,"x_min":-19,"x_max":1111,"o":"m 1111 972 l 681 0 l 410 0 l -19 972 l 265 972 l 601 135 l 494 135 l 829 972 l 1111 972 m 876 783 l 806 581 l 331 581 l 258 783 l 876 783 z "},"Æ":{"ha":1526,"x_min":-19,"x_max":1471,"o":"m -19 0 l 511 972 l 785 972 l 785 760 l 551 760 l 717 871 l 261 0 l -19 0 m 289 189 l 290 392 l 785 392 l 785 189 l 289 189 m 690 0 l 690 972 l 1453 972 l 1453 760 l 963 760 l 963 213 l 1471 213 l 1471 0 l 690 0 m 943 390 l 943 596 l 1394 596 l 1394 390 l 943 390 z "},"Ǽ":{"ha":1526,"x_min":-19,"x_max":1471,"o":"m -19 0 l 511 972 l 785 972 l 785 760 l 551 760 l 717 871 l 261 0 l -19 0 m 289 189 l 290 392 l 785 392 l 785 189 l 289 189 m 690 0 l 690 972 l 1453 972 l 1453 760 l 963 760 l 963 213 l 1471 213 l 1471 0 l 690 0 m 943 390 l 943 596 l 1394 596 l 1394 390 l 943 390 m 792 1051 l 978 1263 l 1242 1263 l 981 1051 l 792 1051 z "},"Ǣ":{"ha":1526,"x_min":-19,"x_max":1471,"o":"m -19 0 l 511 972 l 785 972 l 785 760 l 551 760 l 717 871 l 261 0 l -19 0 m 289 189 l 290 392 l 785 392 l 785 189 l 289 189 m 690 0 l 690 972 l 1453 972 l 1453 760 l 963 760 l 963 213 l 1471 213 l 1471 0 l 690 0 m 943 390 l 943 596 l 1394 596 l 1394 390 l 943 390 m 654 1086 l 654 1228 l 1201 1228 l 1201 1086 l 654 1086 z "},"B":{"ha":1068,"x_min":97,"x_max":1022,"o":"m 97 0 l 97 972 l 594 972 q 881 902 786 972 q 975 718 975 832 q 935 587 975 643 q 824 498 896 531 q 654 465 753 465 l 682 532 q 861 501 785 532 q 980 410 938 469 q 1022 267 1022 351 q 920 70 1022 140 q 622 0 818 0 l 97 0 m 369 199 l 600 199 q 708 223 671 199 q 744 297 744 247 q 708 372 744 347 q 600 396 671 396 l 350 396 l 350 586 l 558 586 q 663 610 628 586 q 697 681 697 633 q 663 751 697 728 q 558 774 628 774 l 369 774 l 369 199 z "},"Ḃ":{"ha":1068,"x_min":97,"x_max":1022,"o":"m 97 0 l 97 972 l 594 972 q 881 902 786 972 q 975 718 975 832 q 935 587 975 643 q 824 498 896 531 q 654 465 753 465 l 682 532 q 861 501 785 532 q 980 410 938 469 q 1022 267 1022 351 q 920 70 1022 140 q 622 0 818 0 l 97 0 m 369 199 l 600 199 q 708 223 671 199 q 744 297 744 247 q 708 372 744 347 q 600 396 671 396 l 350 396 l 350 586 l 558 586 q 663 610 628 586 q 697 681 697 633 q 663 751 697 728 q 558 774 628 774 l 369 774 l 369 199 m 529 1049 q 431 1087 469 1049 q 392 1186 392 1125 q 431 1284 392 1246 q 529 1322 469 1322 q 628 1284 589 1322 q 667 1186 667 1246 q 628 1087 667 1125 q 529 1049 589 1049 z "},"Ḅ":{"ha":1068,"x_min":97,"x_max":1022,"o":"m 97 0 l 97 972 l 594 972 q 881 902 786 972 q 975 718 975 832 q 935 587 975 643 q 824 498 896 531 q 654 465 753 465 l 682 532 q 861 501 785 532 q 980 410 938 469 q 1022 267 1022 351 q 920 70 1022 140 q 622 0 818 0 l 97 0 m 369 199 l 600 199 q 708 223 671 199 q 744 297 744 247 q 708 372 744 347 q 600 396 671 396 l 350 396 l 350 586 l 558 586 q 663 610 628 586 q 697 681 697 633 q 663 751 697 728 q 558 774 628 774 l 369 774 l 369 199 m 529 -337 q 431 -299 469 -337 q 392 -200 392 -261 q 431 -102 392 -140 q 529 -64 469 -64 q 628 -102 589 -64 q 667 -200 667 -140 q 628 -299 667 -261 q 529 -337 589 -337 z "},"Ꞵ":{"ha":1068,"x_min":97,"x_max":1022,"o":"m 97 -269 l 97 972 l 594 972 q 881 902 786 972 q 975 718 975 832 q 935 587 975 643 q 824 498 896 531 q 654 465 753 465 l 682 532 q 861 501 785 532 q 980 410 938 469 q 1022 267 1022 351 q 920 70 1022 140 q 622 0 818 0 l 353 0 l 353 199 l 600 199 q 708 223 671 199 q 744 297 744 247 q 708 372 744 347 q 600 396 671 396 l 353 396 l 353 586 l 558 586 q 663 610 628 586 q 697 681 697 633 q 663 751 697 728 q 558 774 628 774 l 369 774 l 369 -269 l 97 -269 z "},"Ɓ":{"ha":1374,"x_min":18,"x_max":1328,"o":"m 101 464 q 38 591 57 522 q 26 727 18 660 q 72 850 35 794 q 180 939 110 906 q 354 972 250 972 l 413 972 l 413 754 l 350 754 q 294 738 315 754 q 268 693 274 721 q 272 632 263 665 q 306 564 281 599 l 101 464 m 403 0 l 403 972 l 900 972 q 1186 902 1092 972 q 1281 718 1281 832 q 1241 587 1281 643 q 1130 498 1201 531 q 960 465 1058 465 l 988 532 q 1167 501 1090 532 q 1285 410 1243 469 q 1328 267 1328 351 q 1226 70 1328 140 q 928 0 1124 0 l 403 0 m 675 199 l 906 199 q 1013 223 976 199 q 1050 297 1050 247 q 1013 372 1050 347 q 906 396 976 396 l 656 396 l 656 586 l 864 586 q 968 610 933 586 q 1003 681 1003 633 q 968 751 1003 728 q 864 774 933 774 l 675 774 l 675 199 z "},"Ḇ":{"ha":1068,"x_min":97,"x_max":1022,"o":"m 97 0 l 97 972 l 594 972 q 881 902 786 972 q 975 718 975 832 q 935 587 975 643 q 824 498 896 531 q 654 465 753 465 l 682 532 q 861 501 785 532 q 980 410 938 469 q 1022 267 1022 351 q 920 70 1022 140 q 622 0 818 0 l 97 0 m 369 199 l 600 199 q 708 223 671 199 q 744 297 744 247 q 708 372 744 347 q 600 396 671 396 l 350 396 l 350 586 l 558 586 q 663 610 628 586 q 697 681 697 633 q 663 751 697 728 q 558 774 628 774 l 369 774 l 369 199 m 256 -257 l 256 -115 l 803 -115 l 803 -257 l 256 -257 z "},"Ƀ":{"ha":1093,"x_min":14,"x_max":1047,"o":"m 124 0 l 124 972 l 621 972 q 907 902 813 972 q 1001 718 1001 832 q 962 587 1001 643 q 851 501 922 531 q 681 474 779 471 l 707 536 q 886 503 810 535 q 1005 412 963 471 q 1047 268 1047 353 q 946 71 1047 142 q 649 0 844 0 l 124 0 m 14 228 l 14 381 l 229 381 l 281 367 l 550 367 l 550 243 l 281 243 l 229 228 l 14 228 m 394 193 l 626 193 q 734 222 697 193 q 771 303 771 251 q 734 386 771 357 q 626 415 697 415 l 376 415 l 376 588 l 585 588 q 689 610 654 588 q 724 681 724 633 q 689 751 724 728 q 585 774 654 774 l 394 774 l 394 193 z "},"Ƃ":{"ha":1068,"x_min":97,"x_max":1022,"o":"m 97 0 l 97 972 l 932 972 l 932 774 l 369 774 l 369 199 l 600 199 q 708 223 671 199 q 744 299 744 247 q 708 374 744 349 q 600 399 671 399 l 350 399 l 350 588 l 654 588 q 924 517 826 588 q 1022 297 1022 446 q 921 75 1022 150 q 622 0 819 0 l 97 0 z "},"C":{"ha":1014,"x_min":47,"x_max":1000,"o":"m 582 -19 q 369 17 467 -19 q 199 122 271 54 q 88 283 128 190 q 47 486 47 375 q 88 690 47 597 q 199 850 128 782 q 369 955 271 918 q 582 992 467 992 q 823 944 717 992 q 1000 808 929 897 l 825 650 q 722 735 778 706 q 596 764 665 764 q 486 744 536 764 q 401 688 436 725 q 345 600 365 651 q 325 486 325 549 q 345 372 325 424 q 401 284 365 321 q 486 228 436 247 q 596 208 536 208 q 722 238 665 208 q 825 322 778 267 l 1000 164 q 823 28 929 76 q 582 -19 717 -19 z "},"Ć":{"ha":1014,"x_min":47,"x_max":1000,"o":"m 582 -19 q 369 17 467 -19 q 199 122 271 54 q 88 283 128 190 q 47 486 47 375 q 88 690 47 597 q 199 850 128 782 q 369 955 271 918 q 582 992 467 992 q 823 944 717 992 q 1000 808 929 897 l 825 650 q 722 735 778 706 q 596 764 665 764 q 486 744 536 764 q 401 688 436 725 q 345 600 365 651 q 325 486 325 549 q 345 372 325 424 q 401 284 365 321 q 486 228 436 247 q 596 208 536 208 q 722 238 665 208 q 825 322 778 267 l 1000 164 q 823 28 929 76 q 582 -19 717 -19 m 439 1051 l 625 1263 l 889 1263 l 628 1051 l 439 1051 z "},"Ꞓ":{"ha":1093,"x_min":15,"x_max":1078,"o":"m 660 -19 q 447 17 544 -19 q 277 122 349 54 q 166 283 206 190 q 126 486 126 375 q 166 690 126 597 q 278 850 206 782 q 448 955 350 918 q 660 992 546 992 q 901 944 794 992 q 1078 808 1007 897 l 903 650 q 800 735 857 706 q 674 764 743 764 q 565 744 614 764 q 479 688 515 725 q 423 600 443 651 q 403 486 403 549 q 423 372 403 424 q 479 284 443 321 q 565 228 515 247 q 674 208 614 208 q 800 238 743 208 q 903 322 857 267 l 1078 164 q 901 28 1007 76 q 660 -19 794 -19 m 15 410 l 15 579 l 596 579 l 596 410 l 15 410 z "},"Č":{"ha":1014,"x_min":47,"x_max":1000,"o":"m 582 -19 q 369 17 467 -19 q 199 122 271 54 q 88 283 128 190 q 47 486 47 375 q 88 690 47 597 q 199 850 128 782 q 369 955 271 918 q 582 992 467 992 q 823 944 717 992 q 1000 808 929 897 l 825 650 q 722 735 778 706 q 596 764 665 764 q 486 744 536 764 q 401 688 436 725 q 345 600 365 651 q 325 486 325 549 q 345 372 325 424 q 401 284 365 321 q 486 228 436 247 q 596 208 536 208 q 722 238 665 208 q 825 322 778 267 l 1000 164 q 823 28 929 76 q 582 -19 717 -19 m 461 1051 l 281 1263 l 456 1263 l 651 1090 l 499 1090 l 694 1263 l 869 1263 l 689 1051 l 461 1051 z "},"Ç":{"ha":1014,"x_min":47,"x_max":1000,"o":"m 582 -19 q 369 17 467 -19 q 199 122 271 54 q 88 283 128 190 q 47 486 47 375 q 88 690 47 597 q 199 850 128 782 q 369 955 271 918 q 582 992 467 992 q 823 944 717 992 q 1000 808 929 897 l 825 650 q 722 735 778 706 q 596 764 665 764 q 486 744 536 764 q 401 688 436 725 q 345 600 365 651 q 325 486 325 549 q 345 372 325 424 q 401 284 365 321 q 486 228 436 247 q 596 208 536 208 q 722 238 665 208 q 825 322 778 267 l 1000 164 q 823 28 929 76 q 582 -19 717 -19 m 524 -328 q 452 -319 489 -328 q 392 -299 415 -311 l 428 -194 q 467 -208 446 -203 q 514 -214 489 -214 q 567 -203 551 -214 q 583 -175 583 -192 q 569 -149 583 -158 q 521 -140 554 -140 l 469 -140 l 506 13 l 643 13 l 624 -71 q 715 -111 688 -78 q 743 -183 743 -144 q 683 -289 743 -250 q 524 -328 624 -328 z "},"Ḉ":{"ha":1014,"x_min":47,"x_max":1000,"o":"m 582 -19 q 369 17 467 -19 q 199 122 271 54 q 88 283 128 190 q 47 486 47 375 q 88 690 47 597 q 199 850 128 782 q 369 955 271 918 q 582 992 467 992 q 823 944 717 992 q 1000 808 929 897 l 825 650 q 722 735 778 706 q 596 764 665 764 q 486 744 536 764 q 401 688 436 725 q 345 600 365 651 q 325 486 325 549 q 345 372 325 424 q 401 284 365 321 q 486 228 436 247 q 596 208 536 208 q 722 238 665 208 q 825 322 778 267 l 1000 164 q 823 28 929 76 q 582 -19 717 -19 m 524 -328 q 452 -319 489 -328 q 392 -299 415 -311 l 428 -194 q 467 -208 446 -203 q 514 -214 489 -214 q 567 -203 551 -214 q 583 -175 583 -192 q 569 -149 583 -158 q 521 -140 554 -140 l 469 -140 l 506 13 l 643 13 l 624 -71 q 715 -111 688 -78 q 743 -183 743 -144 q 683 -289 743 -250 q 524 -328 624 -328 m 439 1051 l 625 1263 l 889 1263 l 628 1051 l 439 1051 z "},"Ĉ":{"ha":1014,"x_min":47,"x_max":1000,"o":"m 582 -19 q 369 17 467 -19 q 199 122 271 54 q 88 283 128 190 q 47 486 47 375 q 88 690 47 597 q 199 850 128 782 q 369 955 271 918 q 582 992 467 992 q 823 944 717 992 q 1000 808 929 897 l 825 650 q 722 735 778 706 q 596 764 665 764 q 486 744 536 764 q 401 688 436 725 q 345 600 365 651 q 325 486 325 549 q 345 372 325 424 q 401 284 365 321 q 486 228 436 247 q 596 208 536 208 q 722 238 665 208 q 825 322 778 267 l 1000 164 q 823 28 929 76 q 582 -19 717 -19 m 281 1051 l 461 1263 l 689 1263 l 869 1051 l 694 1051 l 499 1225 l 651 1225 l 456 1051 l 281 1051 z "},"Ċ":{"ha":1014,"x_min":47,"x_max":1000,"o":"m 582 -19 q 369 17 467 -19 q 199 122 271 54 q 88 283 128 190 q 47 486 47 375 q 88 690 47 597 q 199 850 128 782 q 369 955 271 918 q 582 992 467 992 q 823 944 717 992 q 1000 808 929 897 l 825 650 q 722 735 778 706 q 596 764 665 764 q 486 744 536 764 q 401 688 436 725 q 345 600 365 651 q 325 486 325 549 q 345 372 325 424 q 401 284 365 321 q 486 228 436 247 q 596 208 536 208 q 722 238 665 208 q 825 322 778 267 l 1000 164 q 823 28 929 76 q 582 -19 717 -19 m 575 1049 q 476 1087 515 1049 q 438 1186 438 1125 q 476 1284 438 1246 q 575 1322 515 1322 q 674 1284 635 1322 q 713 1186 713 1246 q 674 1087 713 1125 q 575 1049 635 1049 z "},"Ꭓ":{"ha":915,"x_min":-151,"x_max":1068,"o":"m 1068 -167 q 942 -260 1013 -228 q 800 -290 872 -292 q 666 -246 728 -287 q 564 -118 604 -204 l 421 190 l 333 313 l 126 696 q 85 740 108 728 q 38 745 63 753 q -14 707 13 738 l -151 871 q -24 962 -94 931 q 116 990 46 993 q 249 943 186 988 q 357 807 313 899 l 488 538 l 568 417 l 789 7 q 829 -39 806 -25 q 878 -44 853 -53 q 931 -3 904 -35 l 1068 -167 m -67 -269 l 350 468 l 417 454 l 661 972 l 965 972 l 571 281 l 510 288 l 242 -269 l -67 -269 z "},"Ƈ":{"ha":1072,"x_min":51,"x_max":1174,"o":"m 1003 808 l 776 810 l 776 956 q 813 1102 776 1044 q 907 1188 849 1160 q 1035 1215 965 1215 q 1174 1186 1106 1214 l 1118 1007 q 1065 1014 1092 1018 q 1020 992 1038 1010 q 1003 939 1003 974 l 1003 808 m 585 -19 q 372 17 469 -19 q 203 122 275 54 q 91 283 131 190 q 51 486 51 375 q 91 690 51 597 q 203 850 131 782 q 373 955 275 918 q 585 992 471 992 q 826 944 719 992 q 1003 808 932 897 l 828 650 q 725 735 782 706 q 599 764 668 764 q 490 744 539 764 q 404 688 440 725 q 349 600 368 651 q 329 486 329 549 q 349 372 329 424 q 404 284 368 321 q 490 228 440 247 q 599 208 539 208 q 725 238 668 208 q 828 322 782 267 l 1003 164 q 826 28 932 76 q 585 -19 719 -19 z "},"Ȼ":{"ha":1014,"x_min":47,"x_max":1000,"o":"m 236 -97 l 781 1069 l 929 1069 l 386 -97 l 236 -97 m 582 -19 q 369 17 467 -19 q 199 122 271 54 q 88 283 128 190 q 47 486 47 375 q 88 690 47 597 q 199 850 128 782 q 369 955 271 918 q 582 992 467 992 q 823 944 717 992 q 1000 808 929 897 l 825 650 q 722 735 778 706 q 596 764 665 764 q 486 744 536 764 q 401 688 436 725 q 345 600 365 651 q 325 486 325 549 q 345 372 325 424 q 401 284 365 321 q 486 228 436 247 q 596 208 536 208 q 722 238 665 208 q 825 322 778 267 l 1000 164 q 823 28 929 76 q 582 -19 717 -19 z "},"D":{"ha":1147,"x_min":97,"x_max":1100,"o":"m 97 0 l 97 972 l 557 972 q 840 913 718 972 q 1031 744 963 853 q 1100 486 1100 636 q 1031 228 1100 338 q 840 60 963 119 q 557 0 718 0 l 97 0 m 372 219 l 546 219 q 691 251 629 219 q 788 342 753 282 q 822 486 822 403 q 788 631 822 571 q 691 722 753 690 q 546 753 629 753 l 372 753 l 372 219 z "},"Ǳ":{"ha":2082,"x_min":97,"x_max":2058,"o":"m 97 0 l 97 972 l 557 972 q 840 913 718 972 q 1031 744 963 853 q 1100 486 1100 636 q 1031 228 1100 338 q 840 60 963 119 q 557 0 718 0 l 97 0 m 372 219 l 546 219 q 691 251 629 219 q 788 342 753 282 q 822 486 822 403 q 788 631 822 571 q 691 722 753 690 q 546 753 629 753 l 372 753 l 372 219 m 1188 0 l 1188 172 l 1760 851 l 1793 754 l 1200 754 l 1200 972 l 2038 972 l 2038 800 l 1465 121 l 1432 218 l 2058 218 l 2058 0 l 1188 0 z "},"Ǆ":{"ha":2082,"x_min":97,"x_max":2058,"o":"m 97 0 l 97 972 l 557 972 q 840 913 718 972 q 1031 744 963 853 q 1100 486 1100 636 q 1031 228 1100 338 q 840 60 963 119 q 557 0 718 0 l 97 0 m 372 219 l 546 219 q 691 251 629 219 q 788 342 753 282 q 822 486 822 403 q 788 631 822 571 q 691 722 753 690 q 546 753 629 753 l 372 753 l 372 219 m 1188 0 l 1188 172 l 1760 851 l 1793 754 l 1200 754 l 1200 972 l 2038 972 l 2038 800 l 1465 121 l 1432 218 l 2058 218 l 2058 0 l 1188 0 m 1510 1051 l 1329 1263 l 1504 1263 l 1700 1090 l 1547 1090 l 1743 1263 l 1918 1263 l 1738 1051 l 1510 1051 z "},"Ď":{"ha":1147,"x_min":97,"x_max":1100,"o":"m 97 0 l 97 972 l 557 972 q 840 913 718 972 q 1031 744 963 853 q 1100 486 1100 636 q 1031 228 1100 338 q 840 60 963 119 q 557 0 718 0 l 97 0 m 372 219 l 546 219 q 691 251 629 219 q 788 342 753 282 q 822 486 822 403 q 788 631 822 571 q 691 722 753 690 q 546 753 629 753 l 372 753 l 372 219 m 393 1051 l 213 1263 l 388 1263 l 583 1090 l 431 1090 l 626 1263 l 801 1263 l 621 1051 l 393 1051 z "},"Ḑ":{"ha":1147,"x_min":97,"x_max":1100,"o":"m 97 0 l 97 972 l 557 972 q 840 913 718 972 q 1031 744 963 853 q 1100 486 1100 636 q 1031 228 1100 338 q 840 60 963 119 q 557 0 718 0 l 97 0 m 372 219 l 546 219 q 691 251 629 219 q 788 342 753 282 q 822 486 822 403 q 788 631 822 571 q 691 722 753 690 q 546 753 629 753 l 372 753 l 372 219 m 419 -368 l 481 -178 l 510 -265 q 428 -241 456 -265 q 400 -175 400 -217 q 429 -108 400 -133 q 510 -82 458 -82 q 590 -108 561 -82 q 619 -175 619 -133 q 614 -217 619 -193 q 590 -275 608 -242 l 539 -368 l 419 -368 z "},"Ḓ":{"ha":1147,"x_min":97,"x_max":1100,"o":"m 97 0 l 97 972 l 557 972 q 840 913 718 972 q 1031 744 963 853 q 1100 486 1100 636 q 1031 228 1100 338 q 840 60 963 119 q 557 0 718 0 l 97 0 m 372 219 l 546 219 q 691 251 629 219 q 788 342 753 282 q 822 486 822 403 q 788 631 822 571 q 691 722 753 690 q 546 753 629 753 l 372 753 l 372 219 m 215 -293 l 396 -82 l 624 -82 l 804 -293 l 629 -293 l 433 -119 l 586 -119 l 390 -293 l 215 -293 z "},"Đ":{"ha":1171,"x_min":-6,"x_max":1122,"o":"m 121 0 l 121 972 l 581 972 q 864 913 742 972 q 1055 744 986 853 q 1124 486 1124 636 q 1055 228 1124 338 q 864 60 986 119 q 581 0 742 0 l 121 0 m 396 219 l 569 219 q 715 251 653 219 q 811 342 776 282 q 846 486 846 403 q 811 631 846 571 q 715 722 776 690 q 569 753 653 753 l 396 753 l 396 219 m -4 410 l -4 579 l 621 579 l 621 410 l -4 410 z "},"Ḋ":{"ha":1147,"x_min":97,"x_max":1100,"o":"m 97 0 l 97 972 l 557 972 q 840 913 718 972 q 1031 744 963 853 q 1100 486 1100 636 q 1031 228 1100 338 q 840 60 963 119 q 557 0 718 0 l 97 0 m 372 219 l 546 219 q 691 251 629 219 q 788 342 753 282 q 822 486 822 403 q 788 631 822 571 q 691 722 753 690 q 546 753 629 753 l 372 753 l 372 219 m 507 1049 q 408 1087 447 1049 q 369 1186 369 1125 q 408 1284 369 1246 q 507 1322 447 1322 q 606 1284 567 1322 q 644 1186 644 1246 q 606 1087 644 1125 q 507 1049 567 1049 z "},"Ḍ":{"ha":1147,"x_min":97,"x_max":1100,"o":"m 97 0 l 97 972 l 557 972 q 840 913 718 972 q 1031 744 963 853 q 1100 486 1100 636 q 1031 228 1100 338 q 840 60 963 119 q 557 0 718 0 l 97 0 m 372 219 l 546 219 q 691 251 629 219 q 788 342 753 282 q 822 486 822 403 q 788 631 822 571 q 691 722 753 690 q 546 753 629 753 l 372 753 l 372 219 m 510 -337 q 411 -299 450 -337 q 372 -200 372 -261 q 411 -102 372 -140 q 510 -64 450 -64 q 608 -102 569 -64 q 647 -200 647 -140 q 608 -299 647 -261 q 510 -337 569 -337 z "},"Ɗ":{"ha":1453,"x_min":18,"x_max":1406,"o":"m 101 464 q 38 591 57 522 q 26 727 18 660 q 72 850 35 794 q 180 939 110 906 q 354 972 250 972 l 413 972 l 413 754 l 350 754 q 294 738 315 754 q 268 693 274 721 q 272 632 263 665 q 306 564 281 599 l 101 464 m 403 0 l 403 972 l 863 972 q 1146 913 1024 972 q 1337 744 1268 853 q 1406 486 1406 636 q 1337 228 1406 338 q 1146 60 1268 119 q 863 0 1024 0 l 403 0 m 678 219 l 851 219 q 997 251 935 219 q 1093 342 1058 282 q 1128 486 1128 403 q 1093 631 1128 571 q 997 722 1058 690 q 851 753 935 753 l 678 753 l 678 219 z "},"Ḏ":{"ha":1147,"x_min":97,"x_max":1100,"o":"m 97 0 l 97 972 l 557 972 q 840 913 718 972 q 1031 744 963 853 q 1100 486 1100 636 q 1031 228 1100 338 q 840 60 963 119 q 557 0 718 0 l 97 0 m 372 219 l 546 219 q 691 251 629 219 q 788 342 753 282 q 822 486 822 403 q 788 631 822 571 q 691 722 753 690 q 546 753 629 753 l 372 753 l 372 219 m 236 -257 l 236 -115 l 783 -115 l 783 -257 l 236 -257 z "},"Ɖ":{"ha":1147,"x_min":-28,"x_max":1100,"o":"m 97 0 l 97 972 l 557 972 q 840 913 718 972 q 1031 744 963 853 q 1100 486 1100 636 q 1031 228 1100 338 q 840 60 963 119 q 557 0 718 0 l 97 0 m 372 219 l 546 219 q 691 251 629 219 q 788 342 753 282 q 822 486 822 403 q 788 631 822 571 q 691 722 753 690 q 546 753 629 753 l 372 753 l 372 219 m -28 410 l -28 579 l 597 579 l 597 410 l -28 410 z "},"Ƌ":{"ha":1054,"x_min":31,"x_max":956,"o":"m 428 0 q 135 78 240 0 q 31 303 31 157 q 125 519 31 440 q 399 599 219 599 l 685 599 l 685 771 l 144 771 l 144 972 l 956 972 l 956 0 l 428 0 m 451 199 l 685 199 l 685 410 l 451 410 q 345 382 381 410 q 310 307 310 354 q 345 229 310 260 q 451 199 381 199 z "},"ǲ":{"ha":1919,"x_min":97,"x_max":1888,"o":"m 97 0 l 97 972 l 557 972 q 840 913 718 972 q 1031 744 963 853 q 1100 486 1100 636 q 1031 228 1100 338 q 840 60 963 119 q 557 0 718 0 l 97 0 m 372 219 l 546 219 q 691 251 629 219 q 788 342 753 282 q 822 486 822 403 q 788 631 822 571 q 691 722 753 690 q 546 753 629 753 l 372 753 l 372 219 m 1193 0 l 1193 156 l 1615 642 l 1660 557 l 1203 557 l 1203 753 l 1874 753 l 1874 599 l 1450 111 l 1406 197 l 1888 197 l 1888 0 l 1193 0 z "},"ǅ":{"ha":1919,"x_min":97,"x_max":1888,"o":"m 97 0 l 97 972 l 557 972 q 840 913 718 972 q 1031 744 963 853 q 1100 486 1100 636 q 1031 228 1100 338 q 840 60 963 119 q 557 0 718 0 l 97 0 m 372 219 l 546 219 q 691 251 629 219 q 788 342 753 282 q 822 486 822 403 q 788 631 822 571 q 691 722 753 690 q 546 753 629 753 l 372 753 l 372 219 m 1193 0 l 1193 156 l 1615 642 l 1660 557 l 1203 557 l 1203 753 l 1874 753 l 1874 599 l 1450 111 l 1406 197 l 1888 197 l 1888 0 l 1193 0 m 1425 843 l 1244 1054 l 1419 1054 l 1615 882 l 1463 882 l 1658 1054 l 1833 1054 l 1653 843 l 1425 843 z "},"Ð":{"ha":1171,"x_min":-6,"x_max":1122,"o":"m 121 0 l 121 972 l 581 972 q 864 913 742 972 q 1055 744 986 853 q 1124 486 1124 636 q 1055 228 1124 338 q 864 60 986 119 q 581 0 742 0 l 121 0 m 396 219 l 569 219 q 715 251 653 219 q 811 342 776 282 q 846 486 846 403 q 811 631 846 571 q 715 722 776 690 q 569 753 653 753 l 396 753 l 396 219 m -4 410 l -4 579 l 621 579 l 621 410 l -4 410 z "},"E":{"ha":933,"x_min":97,"x_max":878,"o":"m 97 0 l 97 972 l 860 972 l 860 760 l 369 760 l 369 213 l 878 213 l 878 0 l 97 0 m 350 390 l 350 596 l 801 596 l 801 390 l 350 390 z "},"É":{"ha":933,"x_min":97,"x_max":878,"o":"m 97 0 l 97 972 l 860 972 l 860 760 l 369 760 l 369 213 l 878 213 l 878 0 l 97 0 m 350 390 l 350 596 l 801 596 l 801 390 l 350 390 m 343 1051 l 529 1263 l 793 1263 l 532 1051 l 343 1051 z "},"Ĕ":{"ha":933,"x_min":97,"x_max":878,"o":"m 97 0 l 97 972 l 860 972 l 860 760 l 369 760 l 369 213 l 878 213 l 878 0 l 97 0 m 350 390 l 350 596 l 801 596 l 801 390 l 350 390 m 479 1053 q 287 1113 363 1053 q 207 1276 211 1172 l 368 1276 q 402 1209 371 1233 q 479 1185 433 1185 q 557 1209 525 1185 q 590 1276 589 1233 l 751 1276 q 672 1113 747 1172 q 479 1053 596 1053 z "},"Ě":{"ha":933,"x_min":97,"x_max":878,"o":"m 97 0 l 97 972 l 860 972 l 860 760 l 369 760 l 369 213 l 878 213 l 878 0 l 97 0 m 350 390 l 350 596 l 801 596 l 801 390 l 350 390 m 365 1051 l 185 1263 l 360 1263 l 556 1090 l 403 1090 l 599 1263 l 774 1263 l 593 1051 l 365 1051 z "},"Ȩ":{"ha":933,"x_min":97,"x_max":878,"o":"m 97 0 l 97 972 l 860 972 l 860 760 l 369 760 l 369 213 l 878 213 l 878 0 l 97 0 m 350 390 l 350 596 l 801 596 l 801 390 l 350 390 m 428 -328 q 356 -319 393 -328 q 296 -299 319 -311 l 332 -194 q 372 -208 350 -203 q 418 -214 393 -214 q 472 -203 456 -214 q 488 -175 488 -192 q 473 -149 488 -158 q 425 -140 458 -140 l 374 -140 l 410 13 l 547 13 l 528 -71 q 619 -111 592 -78 q 647 -183 647 -144 q 588 -289 647 -250 q 428 -328 528 -328 z "},"Ḝ":{"ha":933,"x_min":97,"x_max":878,"o":"m 97 0 l 97 972 l 860 972 l 860 760 l 369 760 l 369 213 l 878 213 l 878 0 l 97 0 m 350 390 l 350 596 l 801 596 l 801 390 l 350 390 m 428 -328 q 356 -319 393 -328 q 296 -299 319 -311 l 332 -194 q 372 -208 350 -203 q 418 -214 393 -214 q 472 -203 456 -214 q 488 -175 488 -192 q 473 -149 488 -158 q 425 -140 458 -140 l 374 -140 l 410 13 l 547 13 l 528 -71 q 619 -111 592 -78 q 647 -183 647 -144 q 588 -289 647 -250 q 428 -328 528 -328 m 479 1053 q 287 1113 363 1053 q 207 1276 211 1172 l 368 1276 q 402 1209 371 1233 q 479 1185 433 1185 q 557 1209 525 1185 q 590 1276 589 1233 l 751 1276 q 672 1113 747 1172 q 479 1053 596 1053 z "},"Ê":{"ha":933,"x_min":97,"x_max":878,"o":"m 97 0 l 97 972 l 860 972 l 860 760 l 369 760 l 369 213 l 878 213 l 878 0 l 97 0 m 350 390 l 350 596 l 801 596 l 801 390 l 350 390 m 185 1051 l 365 1263 l 593 1263 l 774 1051 l 599 1051 l 403 1225 l 556 1225 l 360 1051 l 185 1051 z "},"Ế":{"ha":933,"x_min":97,"x_max":1069,"o":"m 97 0 l 97 972 l 860 972 l 860 760 l 369 760 l 369 213 l 878 213 l 878 0 l 97 0 m 350 390 l 350 596 l 801 596 l 801 390 l 350 390 m 185 1051 l 367 1221 l 592 1221 l 774 1051 l 597 1051 l 407 1183 l 551 1183 l 361 1051 l 185 1051 m 663 1190 l 810 1364 l 1068 1364 l 844 1190 l 663 1190 z "},"Ḙ":{"ha":933,"x_min":97,"x_max":878,"o":"m 97 0 l 97 972 l 860 972 l 860 760 l 369 760 l 369 213 l 878 213 l 878 0 l 97 0 m 350 390 l 350 596 l 801 596 l 801 390 l 350 390 m 185 -293 l 365 -82 l 593 -82 l 774 -293 l 599 -293 l 403 -119 l 556 -119 l 360 -293 l 185 -293 z "},"Ệ":{"ha":933,"x_min":97,"x_max":878,"o":"m 97 0 l 97 972 l 860 972 l 860 760 l 369 760 l 369 213 l 878 213 l 878 0 l 97 0 m 350 390 l 350 596 l 801 596 l 801 390 l 350 390 m 479 -337 q 381 -299 419 -337 q 342 -200 342 -261 q 381 -102 342 -140 q 479 -64 419 -64 q 578 -102 539 -64 q 617 -200 617 -140 q 578 -299 617 -261 q 479 -337 539 -337 m 185 1051 l 365 1263 l 593 1263 l 774 1051 l 599 1051 l 403 1225 l 556 1225 l 360 1051 l 185 1051 z "},"Ề":{"ha":933,"x_min":97,"x_max":928,"o":"m 97 0 l 97 972 l 860 972 l 860 760 l 369 760 l 369 213 l 878 213 l 878 0 l 97 0 m 350 390 l 350 596 l 801 596 l 801 390 l 350 390 m 185 1051 l 367 1221 l 592 1221 l 774 1051 l 597 1051 l 407 1183 l 551 1183 l 361 1051 l 185 1051 m 746 1190 l 521 1364 l 779 1364 l 926 1190 l 746 1190 z "},"Ể":{"ha":933,"x_min":97,"x_max":878,"o":"m 97 0 l 97 972 l 860 972 l 860 760 l 369 760 l 369 213 l 878 213 l 878 0 l 97 0 m 350 390 l 350 596 l 801 596 l 801 390 l 350 390 m 185 1051 l 367 1221 l 592 1221 l 774 1051 l 597 1051 l 407 1183 l 551 1183 l 361 1051 l 185 1051 m 751 1163 l 689 1219 q 728 1249 717 1235 q 739 1275 739 1264 q 726 1302 739 1292 q 694 1313 714 1313 q 632 1296 665 1313 l 590 1371 q 649 1396 617 1388 q 717 1404 682 1404 q 817 1373 779 1404 q 854 1289 854 1342 q 824 1212 854 1244 q 751 1163 794 1179 z "},"Ễ":{"ha":933,"x_min":97,"x_max":878,"o":"m 97 0 l 97 972 l 860 972 l 860 760 l 369 760 l 369 213 l 878 213 l 878 0 l 97 0 m 350 390 l 350 596 l 801 596 l 801 390 l 350 390 m 185 1051 l 367 1221 l 592 1221 l 774 1051 l 597 1051 l 407 1183 l 551 1183 l 361 1051 l 185 1051 m 588 1278 q 519 1289 547 1278 q 469 1315 490 1300 q 430 1340 449 1329 q 392 1351 411 1351 q 350 1334 365 1351 q 332 1289 335 1317 l 200 1289 q 248 1425 201 1376 q 372 1474 294 1474 q 459 1456 425 1474 q 519 1419 493 1438 q 571 1400 544 1400 q 613 1418 597 1400 q 631 1463 629 1436 l 758 1463 q 712 1326 757 1375 q 588 1278 667 1278 z "},"Ȅ":{"ha":933,"x_min":97,"x_max":878,"o":"m 97 0 l 97 972 l 860 972 l 860 760 l 369 760 l 369 213 l 878 213 l 878 0 l 97 0 m 350 390 l 350 596 l 801 596 l 801 390 l 350 390 m 539 1051 l 399 1263 l 635 1263 l 722 1051 l 539 1051 m 236 1051 l 97 1263 l 333 1263 l 419 1051 l 236 1051 z "},"Ë":{"ha":933,"x_min":97,"x_max":878,"o":"m 97 0 l 97 972 l 860 972 l 860 760 l 369 760 l 369 213 l 878 213 l 878 0 l 97 0 m 350 390 l 350 596 l 801 596 l 801 390 l 350 390 m 626 1050 q 549 1080 581 1050 q 517 1158 517 1110 q 549 1238 517 1207 q 626 1268 581 1268 q 704 1238 672 1268 q 736 1158 736 1207 q 704 1080 736 1110 q 626 1050 672 1050 m 332 1050 q 254 1080 286 1050 q 222 1158 222 1110 q 254 1238 222 1207 q 332 1268 286 1268 q 410 1238 378 1268 q 442 1158 442 1207 q 410 1080 442 1110 q 332 1050 378 1050 z "},"Ė":{"ha":933,"x_min":97,"x_max":878,"o":"m 97 0 l 97 972 l 860 972 l 860 760 l 369 760 l 369 213 l 878 213 l 878 0 l 97 0 m 350 390 l 350 596 l 801 596 l 801 390 l 350 390 m 479 1049 q 381 1087 419 1049 q 342 1186 342 1125 q 381 1284 342 1246 q 479 1322 419 1322 q 578 1284 539 1322 q 617 1186 617 1246 q 578 1087 617 1125 q 479 1049 539 1049 z "},"Ẹ":{"ha":933,"x_min":97,"x_max":878,"o":"m 97 0 l 97 972 l 860 972 l 860 760 l 369 760 l 369 213 l 878 213 l 878 0 l 97 0 m 350 390 l 350 596 l 801 596 l 801 390 l 350 390 m 479 -337 q 381 -299 419 -337 q 342 -200 342 -261 q 381 -102 342 -140 q 479 -64 419 -64 q 578 -102 539 -64 q 617 -200 617 -140 q 578 -299 617 -261 q 479 -337 539 -337 z "},"È":{"ha":933,"x_min":97,"x_max":878,"o":"m 97 0 l 97 972 l 860 972 l 860 760 l 369 760 l 369 213 l 878 213 l 878 0 l 97 0 m 350 390 l 350 596 l 801 596 l 801 390 l 350 390 m 426 1051 l 165 1263 l 429 1263 l 615 1051 l 426 1051 z "},"Ẻ":{"ha":933,"x_min":97,"x_max":878,"o":"m 97 0 l 97 972 l 860 972 l 860 760 l 369 760 l 369 213 l 878 213 l 878 0 l 97 0 m 350 390 l 350 596 l 801 596 l 801 390 l 350 390 m 485 1008 l 403 1089 q 457 1128 443 1108 q 471 1169 471 1147 q 453 1210 471 1194 q 408 1225 436 1225 q 328 1197 368 1225 l 274 1299 q 358 1341 315 1328 q 442 1354 401 1354 q 538 1332 496 1354 q 603 1272 579 1310 q 626 1189 626 1235 q 593 1089 626 1136 q 485 1008 560 1042 z "},"Ȇ":{"ha":933,"x_min":97,"x_max":878,"o":"m 97 0 l 97 972 l 860 972 l 860 760 l 369 760 l 369 213 l 878 213 l 878 0 l 97 0 m 350 390 l 350 596 l 801 596 l 801 390 l 350 390 m 207 1051 q 287 1215 211 1156 q 479 1275 363 1275 q 672 1215 596 1275 q 751 1051 747 1156 l 590 1051 q 557 1118 589 1093 q 479 1143 525 1143 q 402 1118 433 1143 q 368 1051 371 1093 l 207 1051 z "},"Ē":{"ha":933,"x_min":97,"x_max":878,"o":"m 97 0 l 97 972 l 860 972 l 860 760 l 369 760 l 369 213 l 878 213 l 878 0 l 97 0 m 350 390 l 350 596 l 801 596 l 801 390 l 350 390 m 206 1086 l 206 1228 l 753 1228 l 753 1086 l 206 1086 z "},"Ḗ":{"ha":933,"x_min":97,"x_max":878,"o":"m 97 0 l 97 972 l 860 972 l 860 760 l 369 760 l 369 213 l 878 213 l 878 0 l 97 0 m 350 390 l 350 596 l 801 596 l 801 390 l 350 390 m 206 1071 l 206 1206 l 753 1206 l 753 1071 l 206 1071 m 329 1294 l 476 1468 l 735 1468 l 511 1294 l 329 1294 z "},"Ḕ":{"ha":933,"x_min":97,"x_max":878,"o":"m 97 0 l 97 972 l 860 972 l 860 760 l 369 760 l 369 213 l 878 213 l 878 0 l 97 0 m 350 390 l 350 596 l 801 596 l 801 390 l 350 390 m 206 1071 l 206 1206 l 753 1206 l 753 1071 l 206 1071 m 450 1294 l 225 1468 l 483 1468 l 631 1294 l 450 1294 z "},"Ę":{"ha":933,"x_min":97,"x_max":911,"o":"m 97 0 l 97 972 l 860 972 l 860 760 l 369 760 l 369 213 l 878 213 l 878 0 l 97 0 m 350 390 l 350 596 l 801 596 l 801 390 l 350 390 m 763 -328 q 612 -283 665 -328 q 558 -165 558 -237 q 583 -75 558 -117 q 657 2 607 -33 q 779 63 707 38 l 878 0 q 783 -50 818 -26 q 733 -96 747 -74 q 718 -142 718 -118 q 737 -185 718 -168 q 794 -203 756 -203 q 839 -197 817 -203 q 876 -182 861 -190 l 911 -296 q 846 -319 886 -310 q 763 -328 806 -328 z "},"Ɛ":{"ha":919,"x_min":43,"x_max":931,"o":"m 526 -19 q 264 18 372 -19 q 99 124 156 56 q 43 279 43 192 q 81 408 43 354 q 189 492 119 463 q 351 522 258 522 l 358 469 q 208 506 269 469 q 115 600 146 543 q 83 719 83 657 q 122 842 83 790 q 224 926 160 893 q 367 976 288 960 q 533 992 447 992 q 728 972 632 992 q 896 913 825 951 l 821 708 q 738 743 786 728 q 635 767 689 758 q 531 776 581 776 q 445 767 483 776 q 384 735 407 757 q 361 676 361 713 q 390 619 361 640 q 482 597 418 597 l 726 597 l 726 396 l 464 396 q 385 384 417 396 q 337 351 353 372 q 321 301 321 331 q 371 224 321 253 q 526 196 421 196 q 697 216 615 196 q 847 276 779 236 l 931 74 q 753 6 857 31 q 526 -19 650 -19 z "},"Ǝ":{"ha":933,"x_min":56,"x_max":836,"o":"m 836 0 l 56 0 l 56 213 l 564 213 l 564 760 l 75 760 l 75 972 l 836 972 l 836 0 m 583 390 l 132 390 l 132 596 l 583 596 l 583 390 z "},"Ɜ":{"ha":919,"x_min":-10,"x_max":878,"o":"m 394 -19 q 167 6 271 -19 q -10 74 64 31 l 72 276 q 224 216 142 236 q 393 196 306 196 q 551 224 501 196 q 600 301 600 253 q 584 351 600 331 q 536 384 568 372 q 457 396 504 396 l 193 396 l 193 597 l 439 597 q 530 619 501 597 q 558 676 558 640 q 536 735 558 713 q 476 767 514 757 q 390 776 438 776 q 285 767 340 776 q 182 743 231 758 q 100 708 133 728 l 24 913 q 192 972 96 951 q 388 992 288 992 q 553 976 474 992 q 697 926 633 960 q 799 842 761 893 q 836 719 836 790 q 805 600 836 657 q 713 506 774 543 q 561 469 651 469 l 568 522 q 732 492 663 522 q 840 408 801 463 q 878 279 878 354 q 821 124 878 192 q 656 18 764 56 q 394 -19 549 -19 z "},"Ʃ":{"ha":744,"x_min":-58,"x_max":799,"o":"m 183 -19 q 50 1 114 -19 q -58 61 -14 21 l 21 246 q 82 212 53 222 q 136 201 111 201 q 205 222 174 201 q 235 297 236 243 l 228 665 q 269 850 226 778 q 386 957 311 922 q 557 992 461 992 q 692 972 629 992 q 799 911 754 951 l 719 726 q 659 760 689 750 q 604 771 629 771 q 559 763 582 771 q 522 734 536 754 q 507 675 507 714 l 513 307 q 488 156 514 218 q 415 55 461 93 q 309 -1 369 17 q 183 -19 249 -19 z "},"Ɇ":{"ha":933,"x_min":97,"x_max":908,"o":"m 218 -97 l 760 1069 l 908 1069 l 367 -97 l 218 -97 m 97 0 l 97 972 l 860 972 l 860 760 l 369 760 l 369 213 l 878 213 l 878 0 l 97 0 m 350 390 l 350 596 l 801 596 l 801 390 l 350 390 z "},"Ẽ":{"ha":933,"x_min":97,"x_max":878,"o":"m 97 0 l 97 972 l 860 972 l 860 760 l 369 760 l 369 213 l 878 213 l 878 0 l 97 0 m 350 390 l 350 596 l 801 596 l 801 390 l 350 390 m 590 1040 q 523 1053 553 1040 q 469 1084 493 1067 q 425 1115 446 1101 q 383 1128 404 1128 q 340 1107 357 1128 q 319 1053 322 1086 l 188 1053 q 238 1215 190 1153 q 368 1278 285 1278 q 436 1265 407 1278 q 490 1234 465 1251 q 535 1203 514 1217 q 575 1190 556 1190 q 620 1210 603 1190 q 639 1263 638 1231 l 769 1263 q 721 1102 768 1164 q 590 1040 674 1040 z "},"Ḛ":{"ha":933,"x_min":97,"x_max":878,"o":"m 97 0 l 97 972 l 860 972 l 860 760 l 369 760 l 369 213 l 878 213 l 878 0 l 97 0 m 350 390 l 350 596 l 801 596 l 801 390 l 350 390 m 590 -303 q 523 -290 553 -303 q 469 -259 493 -276 q 425 -228 446 -242 q 383 -215 404 -215 q 340 -236 357 -215 q 319 -290 322 -257 l 188 -290 q 238 -128 190 -190 q 368 -65 285 -65 q 436 -78 407 -65 q 490 -109 465 -92 q 535 -140 514 -126 q 575 -153 556 -153 q 620 -133 603 -153 q 639 -81 638 -112 l 769 -81 q 721 -241 768 -179 q 590 -303 674 -303 z "},"Ə":{"ha":1136,"x_min":47,"x_max":1088,"o":"m 568 -19 q 358 17 454 -19 q 193 123 263 54 q 85 287 124 192 q 47 497 47 382 l 47 547 l 840 547 l 840 382 l 236 382 l 325 447 q 341 340 325 388 q 389 259 357 293 q 465 207 421 225 q 568 189 510 189 q 671 207 626 189 q 747 259 715 225 q 794 340 778 293 q 811 446 811 386 l 811 497 q 791 605 811 556 q 735 690 771 654 q 651 744 700 725 q 544 764 603 764 q 452 751 501 764 q 358 713 403 739 q 279 650 313 688 l 117 822 q 231 909 163 871 q 380 969 299 947 q 547 992 461 992 q 765 955 665 992 q 937 850 864 918 q 1049 690 1010 782 q 1088 486 1088 597 q 1049 282 1088 375 q 940 122 1010 189 q 776 17 871 54 q 568 -19 681 -19 z "},"Ʒ":{"ha":900,"x_min":24,"x_max":858,"o":"m 417 -19 q 206 6 311 -19 q 24 76 100 31 l 114 282 q 256 222 178 243 q 407 201 333 201 q 535 228 489 201 q 582 304 582 254 q 542 374 582 349 q 417 399 503 399 l 286 399 l 286 575 l 579 857 l 603 757 l 68 757 l 68 972 l 806 972 l 806 799 l 528 517 l 397 593 l 472 593 q 685 556 600 593 q 815 454 771 519 q 858 306 858 389 q 813 147 858 221 q 669 27 767 74 q 417 -19 572 -19 z "},"Ǯ":{"ha":900,"x_min":24,"x_max":858,"o":"m 417 -19 q 206 6 311 -19 q 24 76 100 31 l 114 282 q 256 222 178 243 q 407 201 333 201 q 535 228 489 201 q 582 304 582 254 q 542 374 582 349 q 417 399 503 399 l 286 399 l 286 575 l 579 857 l 603 757 l 68 757 l 68 972 l 806 972 l 806 799 l 528 517 l 397 593 l 472 593 q 685 556 600 593 q 815 454 771 519 q 858 306 858 389 q 813 147 858 221 q 669 27 767 74 q 417 -19 572 -19 m 321 1051 l 140 1263 l 315 1263 l 511 1090 l 358 1090 l 554 1263 l 729 1263 l 549 1051 l 321 1051 z "},"Ƹ":{"ha":893,"x_min":43,"x_max":871,"o":"m 483 -19 q 233 27 329 -19 q 90 147 136 74 q 43 306 43 221 q 87 454 43 389 q 217 556 131 519 q 429 593 303 593 l 504 593 l 381 518 l 96 800 l 96 972 l 828 972 l 828 760 l 299 760 l 324 858 l 608 576 l 608 399 l 486 399 q 360 374 400 399 q 319 304 319 349 q 367 228 319 254 q 492 201 414 201 q 642 222 567 201 q 781 282 718 243 l 871 76 q 693 6 797 31 q 483 -19 589 -19 z "},"F":{"ha":892,"x_min":97,"x_max":860,"o":"m 97 0 l 97 972 l 860 972 l 860 760 l 372 760 l 372 0 l 97 0 m 353 333 l 353 546 l 801 546 l 801 333 l 353 333 z "},"Ḟ":{"ha":892,"x_min":97,"x_max":860,"o":"m 97 0 l 97 972 l 860 972 l 860 760 l 372 760 l 372 0 l 97 0 m 353 333 l 353 546 l 801 546 l 801 333 l 353 333 m 474 1049 q 375 1087 414 1049 q 336 1186 336 1125 q 375 1284 336 1246 q 474 1322 414 1322 q 572 1284 533 1322 q 611 1186 611 1246 q 572 1087 611 1125 q 474 1049 533 1049 z "},"Ƒ":{"ha":929,"x_min":-81,"x_max":886,"o":"m -81 -250 l -17 -61 q 53 -74 21 -76 q 105 -50 85 -71 q 125 10 125 -29 l 125 972 l 886 972 l 886 760 l 400 760 l 400 7 q 356 -158 400 -93 q 240 -255 311 -224 q 84 -285 168 -286 q -81 -250 0 -283 m 381 333 l 381 546 l 829 546 l 829 333 l 381 333 z "},"G":{"ha":1069,"x_min":47,"x_max":1014,"o":"m 583 -19 q 369 17 468 -19 q 199 122 271 54 q 88 283 128 190 q 47 486 47 375 q 88 690 47 597 q 200 850 128 782 q 372 955 272 918 q 589 992 471 992 q 835 946 726 992 q 1014 814 943 900 l 839 656 q 731 737 789 710 q 603 764 674 764 q 489 744 540 764 q 401 688 438 725 q 345 601 365 651 q 325 486 325 550 q 345 374 325 425 q 401 285 365 322 q 488 228 438 249 q 600 208 539 208 q 719 228 661 208 q 838 297 778 249 l 992 104 q 799 13 908 44 q 583 -19 689 -19 m 992 104 l 749 140 l 749 507 l 992 507 l 992 104 z "},"Ǵ":{"ha":1069,"x_min":47,"x_max":1014,"o":"m 583 -19 q 369 17 468 -19 q 199 122 271 54 q 88 283 128 190 q 47 486 47 375 q 88 690 47 597 q 200 850 128 782 q 372 955 272 918 q 589 992 471 992 q 835 946 726 992 q 1014 814 943 900 l 839 656 q 731 737 789 710 q 603 764 674 764 q 489 744 540 764 q 401 688 438 725 q 345 601 365 651 q 325 486 325 550 q 345 374 325 425 q 401 285 365 322 q 488 228 438 249 q 600 208 539 208 q 719 228 661 208 q 838 297 778 249 l 992 104 q 799 13 908 44 q 583 -19 689 -19 m 992 104 l 749 140 l 749 507 l 992 507 l 992 104 m 447 1051 l 633 1263 l 897 1263 l 636 1051 l 447 1051 z "},"Ğ":{"ha":1069,"x_min":47,"x_max":1014,"o":"m 583 -19 q 369 17 468 -19 q 199 122 271 54 q 88 283 128 190 q 47 486 47 375 q 88 690 47 597 q 200 850 128 782 q 372 955 272 918 q 589 992 471 992 q 835 946 726 992 q 1014 814 943 900 l 839 656 q 731 737 789 710 q 603 764 674 764 q 489 744 540 764 q 401 688 438 725 q 345 601 365 651 q 325 486 325 550 q 345 374 325 425 q 401 285 365 322 q 488 228 438 249 q 600 208 539 208 q 719 228 661 208 q 838 297 778 249 l 992 104 q 799 13 908 44 q 583 -19 689 -19 m 992 104 l 749 140 l 749 507 l 992 507 l 992 104 m 583 1053 q 391 1113 467 1053 q 311 1276 315 1172 l 472 1276 q 506 1209 475 1233 q 583 1185 538 1185 q 661 1209 629 1185 q 694 1276 693 1233 l 856 1276 q 776 1113 851 1172 q 583 1053 700 1053 z "},"Ǧ":{"ha":1069,"x_min":47,"x_max":1014,"o":"m 583 -19 q 369 17 468 -19 q 199 122 271 54 q 88 283 128 190 q 47 486 47 375 q 88 690 47 597 q 200 850 128 782 q 372 955 272 918 q 589 992 471 992 q 835 946 726 992 q 1014 814 943 900 l 839 656 q 731 737 789 710 q 603 764 674 764 q 489 744 540 764 q 401 688 438 725 q 345 601 365 651 q 325 486 325 550 q 345 374 325 425 q 401 285 365 322 q 488 228 438 249 q 600 208 539 208 q 719 228 661 208 q 838 297 778 249 l 992 104 q 799 13 908 44 q 583 -19 689 -19 m 992 104 l 749 140 l 749 507 l 992 507 l 992 104 m 469 1051 l 289 1263 l 464 1263 l 660 1090 l 507 1090 l 703 1263 l 878 1263 l 697 1051 l 469 1051 z "},"Ĝ":{"ha":1069,"x_min":47,"x_max":1014,"o":"m 583 -19 q 369 17 468 -19 q 199 122 271 54 q 88 283 128 190 q 47 486 47 375 q 88 690 47 597 q 200 850 128 782 q 372 955 272 918 q 589 992 471 992 q 835 946 726 992 q 1014 814 943 900 l 839 656 q 731 737 789 710 q 603 764 674 764 q 489 744 540 764 q 401 688 438 725 q 345 601 365 651 q 325 486 325 550 q 345 374 325 425 q 401 285 365 322 q 488 228 438 249 q 600 208 539 208 q 719 228 661 208 q 838 297 778 249 l 992 104 q 799 13 908 44 q 583 -19 689 -19 m 992 104 l 749 140 l 749 507 l 992 507 l 992 104 m 289 1051 l 469 1263 l 697 1263 l 878 1051 l 703 1051 l 507 1225 l 660 1225 l 464 1051 l 289 1051 z "},"Ģ":{"ha":1069,"x_min":47,"x_max":1014,"o":"m 583 -19 q 369 17 468 -19 q 199 122 271 54 q 88 283 128 190 q 47 486 47 375 q 88 690 47 597 q 200 850 128 782 q 372 955 272 918 q 589 992 471 992 q 835 946 726 992 q 1014 814 943 900 l 839 656 q 731 737 789 710 q 603 764 674 764 q 489 744 540 764 q 401 688 438 725 q 345 601 365 651 q 325 486 325 550 q 345 374 325 425 q 401 285 365 322 q 488 228 438 249 q 600 208 539 208 q 719 228 661 208 q 838 297 778 249 l 992 104 q 799 13 908 44 q 583 -19 689 -19 m 992 104 l 749 140 l 749 507 l 992 507 l 992 104 m 476 -368 l 538 -178 l 567 -265 q 485 -241 513 -265 q 457 -175 457 -217 q 486 -108 457 -133 q 567 -82 515 -82 q 647 -108 618 -82 q 676 -175 676 -133 q 671 -217 676 -193 q 647 -275 665 -242 l 596 -368 l 476 -368 z "},"Ġ":{"ha":1069,"x_min":47,"x_max":1014,"o":"m 583 -19 q 369 17 468 -19 q 199 122 271 54 q 88 283 128 190 q 47 486 47 375 q 88 690 47 597 q 200 850 128 782 q 372 955 272 918 q 589 992 471 992 q 835 946 726 992 q 1014 814 943 900 l 839 656 q 731 737 789 710 q 603 764 674 764 q 489 744 540 764 q 401 688 438 725 q 345 601 365 651 q 325 486 325 550 q 345 374 325 425 q 401 285 365 322 q 488 228 438 249 q 600 208 539 208 q 719 228 661 208 q 838 297 778 249 l 992 104 q 799 13 908 44 q 583 -19 689 -19 m 992 104 l 749 140 l 749 507 l 992 507 l 992 104 m 583 1049 q 485 1087 524 1049 q 446 1186 446 1125 q 485 1284 446 1246 q 583 1322 524 1322 q 682 1284 643 1322 q 721 1186 721 1246 q 682 1087 721 1125 q 583 1049 643 1049 z "},"Ɠ":{"ha":1099,"x_min":47,"x_max":1185,"o":"m 583 -19 q 369 17 468 -19 q 199 122 271 54 q 88 283 128 190 q 47 486 47 375 q 88 690 47 597 q 200 850 128 782 q 372 955 272 918 q 589 992 471 992 q 835 946 726 992 q 1014 814 943 900 l 839 656 q 731 737 789 710 q 603 764 674 764 q 489 744 540 764 q 401 688 438 725 q 345 601 365 651 q 325 486 325 550 q 345 374 325 425 q 401 285 365 322 q 488 228 438 249 q 600 208 539 208 q 719 228 661 208 q 838 297 778 249 l 992 104 q 799 13 908 44 q 583 -19 689 -19 m 992 104 l 749 140 l 749 507 l 992 507 l 992 104 m 788 825 l 788 956 q 824 1102 788 1044 q 919 1188 860 1160 q 1047 1215 978 1215 q 1185 1186 1117 1214 l 1131 1007 q 1076 1014 1103 1018 q 1032 992 1050 1010 q 1014 939 1014 974 l 1014 814 l 788 825 z "},"Ɂ":{"ha":910,"x_min":-8,"x_max":885,"o":"m 314 0 l 314 242 q 335 356 314 310 q 389 435 356 403 q 460 490 422 467 q 532 535 499 514 q 587 583 565 556 q 608 647 608 610 q 583 717 608 689 q 515 760 557 746 q 428 775 474 775 q 344 763 386 775 q 265 726 301 750 q 201 663 228 701 l -8 776 q 101 894 31 846 q 260 967 171 943 q 444 992 350 992 q 607 972 529 992 q 748 913 685 953 q 848 810 811 872 q 885 663 885 747 q 863 549 885 596 q 808 469 842 503 q 737 409 774 436 q 666 356 700 382 q 610 297 632 329 q 589 218 589 264 l 589 0 l 314 0 z "},"Ḡ":{"ha":1069,"x_min":47,"x_max":1014,"o":"m 583 -19 q 369 17 468 -19 q 199 122 271 54 q 88 283 128 190 q 47 486 47 375 q 88 690 47 597 q 200 850 128 782 q 372 955 272 918 q 589 992 471 992 q 835 946 726 992 q 1014 814 943 900 l 839 656 q 731 737 789 710 q 603 764 674 764 q 489 744 540 764 q 401 688 438 725 q 345 601 365 651 q 325 486 325 550 q 345 374 325 425 q 401 285 365 322 q 488 228 438 249 q 600 208 539 208 q 719 228 661 208 q 838 297 778 249 l 992 104 q 799 13 908 44 q 583 -19 689 -19 m 992 104 l 749 140 l 749 507 l 992 507 l 992 104 m 310 1086 l 310 1228 l 857 1228 l 857 1086 l 310 1086 z "},"Ǥ":{"ha":1125,"x_min":47,"x_max":1101,"o":"m 583 -19 q 369 17 468 -19 q 199 122 271 54 q 88 283 128 190 q 47 486 47 375 q 88 690 47 597 q 200 850 128 782 q 372 955 272 918 q 589 992 471 992 q 835 946 726 992 q 1014 814 943 900 l 839 656 q 731 737 789 710 q 603 764 674 764 q 489 744 540 764 q 401 688 438 725 q 345 601 365 651 q 325 486 325 550 q 345 374 325 425 q 401 285 365 322 q 488 228 438 249 q 600 208 539 208 q 719 228 661 208 q 838 297 778 249 l 992 104 q 799 13 908 44 q 583 -19 689 -19 m 583 292 l 583 461 l 1101 461 l 1101 292 l 583 292 m 992 104 l 749 140 l 749 517 l 992 517 l 992 104 z "},"Ȝ":{"ha":917,"x_min":-11,"x_max":865,"o":"m 0 -158 l -11 68 q 224 99 117 82 q 413 142 332 117 q 537 203 493 167 q 581 288 581 239 q 563 338 581 318 q 513 363 546 357 q 436 357 481 368 l 226 308 l 208 524 l 403 568 q 483 594 450 579 q 533 629 515 608 q 551 679 551 650 q 540 721 551 703 q 504 749 528 739 q 443 760 481 760 q 347 747 406 760 q 218 711 288 735 q 76 656 149 688 l -6 858 q 133 922 54 892 q 301 971 213 951 q 476 990 389 990 q 676 954 599 990 q 792 861 754 918 q 831 738 831 804 q 788 606 831 664 q 672 510 744 549 q 511 450 600 471 l 499 504 q 688 509 606 532 q 818 425 771 486 q 865 276 865 364 q 803 101 865 178 q 628 -31 742 24 q 355 -116 514 -85 q 0 -158 196 -147 z "},"H":{"ha":1119,"x_min":97,"x_max":1022,"o":"m 747 0 l 747 972 l 1022 972 l 1022 0 l 747 0 m 97 0 l 97 972 l 372 972 l 372 0 l 97 0 m 353 379 l 353 607 l 767 607 l 767 379 l 353 379 z "},"Ħ":{"ha":1165,"x_min":11,"x_max":1156,"o":"m 769 0 l 769 972 l 1044 972 l 1044 0 l 769 0 m 121 0 l 121 972 l 396 972 l 396 0 l 121 0 m 376 369 l 376 589 l 789 589 l 789 369 l 376 369 m 11 692 l 11 861 l 1156 861 l 1156 692 l 11 692 z "},"Ḫ":{"ha":1119,"x_min":97,"x_max":1022,"o":"m 747 0 l 747 972 l 1022 972 l 1022 0 l 747 0 m 97 0 l 97 972 l 372 972 l 372 0 l 97 0 m 353 379 l 353 607 l 767 607 l 767 379 l 353 379 m 560 -290 q 367 -231 443 -290 q 288 -67 292 -171 l 449 -67 q 483 -134 451 -110 q 560 -158 514 -158 q 638 -134 606 -158 q 671 -67 669 -110 l 832 -67 q 752 -231 828 -171 q 560 -290 676 -290 z "},"Ȟ":{"ha":1119,"x_min":97,"x_max":1022,"o":"m 747 0 l 747 972 l 1022 972 l 1022 0 l 747 0 m 97 0 l 97 972 l 372 972 l 372 0 l 97 0 m 353 379 l 353 607 l 767 607 l 767 379 l 353 379 m 446 1051 l 265 1263 l 440 1263 l 636 1090 l 483 1090 l 679 1263 l 854 1263 l 674 1051 l 446 1051 z "},"Ḩ":{"ha":1119,"x_min":67,"x_max":1022,"o":"m 747 0 l 747 972 l 1022 972 l 1022 0 l 747 0 m 200 -328 q 128 -319 164 -328 q 67 -299 92 -311 l 103 -194 q 143 -208 121 -203 q 190 -214 165 -214 q 244 -203 228 -214 q 260 -175 260 -192 q 245 -149 260 -158 q 197 -140 231 -140 l 139 -140 l 176 13 l 314 13 l 294 -71 q 391 -111 363 -78 q 419 -183 419 -144 q 359 -289 419 -250 q 200 -328 299 -328 m 97 0 l 97 972 l 372 972 l 372 0 l 97 0 m 353 379 l 353 607 l 767 607 l 767 379 l 353 379 z "},"Ĥ":{"ha":1119,"x_min":97,"x_max":1022,"o":"m 747 0 l 747 972 l 1022 972 l 1022 0 l 747 0 m 97 0 l 97 972 l 372 972 l 372 0 l 97 0 m 353 379 l 353 607 l 767 607 l 767 379 l 353 379 m 265 1051 l 446 1263 l 674 1263 l 854 1051 l 679 1051 l 483 1225 l 636 1225 l 440 1051 l 265 1051 z "},"Ḧ":{"ha":1119,"x_min":97,"x_max":1022,"o":"m 747 0 l 747 972 l 1022 972 l 1022 0 l 747 0 m 97 0 l 97 972 l 372 972 l 372 0 l 97 0 m 353 379 l 353 607 l 767 607 l 767 379 l 353 379 m 707 1050 q 629 1080 661 1050 q 597 1158 597 1110 q 629 1238 597 1207 q 707 1268 661 1268 q 785 1238 753 1268 q 817 1158 817 1207 q 785 1080 817 1110 q 707 1050 753 1050 m 413 1050 q 335 1080 367 1050 q 303 1158 303 1110 q 335 1238 303 1207 q 413 1268 367 1268 q 490 1238 458 1268 q 522 1158 522 1207 q 490 1080 522 1110 q 413 1050 458 1050 z "},"Ḣ":{"ha":1119,"x_min":97,"x_max":1022,"o":"m 747 0 l 747 972 l 1022 972 l 1022 0 l 747 0 m 97 0 l 97 972 l 372 972 l 372 0 l 97 0 m 353 379 l 353 607 l 767 607 l 767 379 l 353 379 m 560 1049 q 461 1087 500 1049 q 422 1186 422 1125 q 461 1284 422 1246 q 560 1322 500 1322 q 658 1284 619 1322 q 697 1186 697 1246 q 658 1087 697 1125 q 560 1049 619 1049 z "},"Ḥ":{"ha":1119,"x_min":97,"x_max":1022,"o":"m 747 0 l 747 972 l 1022 972 l 1022 0 l 747 0 m 97 0 l 97 972 l 372 972 l 372 0 l 97 0 m 353 379 l 353 607 l 767 607 l 767 379 l 353 379 m 560 -337 q 461 -299 500 -337 q 422 -200 422 -261 q 461 -102 422 -140 q 560 -64 500 -64 q 658 -102 619 -64 q 697 -200 697 -140 q 658 -299 697 -261 q 560 -337 619 -337 z "},"Ꜧ":{"ha":1128,"x_min":100,"x_max":1024,"o":"m 525 -242 l 590 -56 q 649 -75 621 -71 q 699 -71 676 -79 q 735 -42 722 -62 q 749 10 749 -22 l 749 972 l 1025 972 l 1025 8 q 978 -163 1025 -97 q 856 -259 931 -229 q 693 -284 781 -289 q 525 -242 606 -279 m 100 0 l 100 972 l 375 972 l 375 0 l 100 0 m 356 382 l 356 607 l 779 607 l 779 382 l 356 382 z "},"Ɦ":{"ha":1425,"x_min":18,"x_max":1328,"o":"m 101 464 q 38 591 57 522 q 26 727 18 660 q 72 850 35 794 q 180 939 110 906 q 354 972 250 972 l 413 972 l 413 754 l 350 754 q 294 738 315 754 q 268 693 274 721 q 272 632 263 665 q 306 564 281 599 l 101 464 m 1053 0 l 1053 972 l 1328 972 l 1328 0 l 1053 0 m 403 0 l 403 972 l 678 972 l 678 0 l 403 0 m 658 379 l 658 607 l 1071 607 l 1071 379 l 658 379 z "},"Ɥ":{"ha":1058,"x_min":43,"x_max":961,"o":"m 961 972 l 961 0 l 694 0 l 694 532 l 743 482 q 614 322 699 376 q 408 267 529 267 q 140 376 236 267 q 43 692 43 486 l 43 972 l 318 972 l 318 700 q 367 543 318 593 q 494 493 415 493 q 631 547 576 493 q 686 714 686 600 l 686 972 l 961 972 z "},"I":{"ha":471,"x_min":97,"x_max":372,"o":"m 97 0 l 97 972 l 372 972 l 372 0 l 97 0 z "},"Ĳ":{"ha":1010,"x_min":65,"x_max":919,"o":"m 456 -19 q 238 11 338 -19 q 65 93 138 42 l 165 293 q 306 227 233 250 q 446 204 379 204 q 595 259 546 204 q 644 429 644 314 l 644 972 l 919 972 l 919 444 q 862 191 919 294 q 699 34 804 88 q 456 -19 594 -19 m 89 457 l 89 972 l 364 972 l 364 457 l 89 457 z "},"Í":{"ha":471,"x_min":97,"x_max":550,"o":"m 97 0 l 97 972 l 372 972 l 372 0 l 97 0 m 99 1051 l 285 1263 l 549 1263 l 288 1051 l 99 1051 z "},"Ĭ":{"ha":471,"x_min":-37,"x_max":508,"o":"m 97 0 l 97 972 l 372 972 l 372 0 l 97 0 m 235 1053 q 42 1113 118 1053 q -37 1276 -33 1172 l 124 1276 q 158 1209 126 1233 q 235 1185 189 1185 q 313 1209 281 1185 q 346 1276 344 1233 l 507 1276 q 427 1113 503 1172 q 235 1053 351 1053 z "},"Ǐ":{"ha":471,"x_min":-60,"x_max":531,"o":"m 97 0 l 97 972 l 372 972 l 372 0 l 97 0 m 121 1051 l -60 1263 l 115 1263 l 311 1090 l 158 1090 l 354 1263 l 529 1263 l 349 1051 l 121 1051 z "},"Î":{"ha":471,"x_min":-60,"x_max":531,"o":"m 97 0 l 97 972 l 372 972 l 372 0 l 97 0 m -60 1051 l 121 1263 l 349 1263 l 529 1051 l 354 1051 l 158 1225 l 311 1225 l 115 1051 l -60 1051 z "},"Ȉ":{"ha":471,"x_min":-147,"x_max":478,"o":"m 97 0 l 97 972 l 372 972 l 372 0 l 97 0 m 294 1051 l 154 1263 l 390 1263 l 478 1051 l 294 1051 m -8 1051 l -147 1263 l 89 1263 l 175 1051 l -8 1051 z "},"Ï":{"ha":471,"x_min":-22,"x_max":493,"o":"m 97 0 l 97 972 l 372 972 l 372 0 l 97 0 m 382 1050 q 304 1080 336 1050 q 272 1158 272 1110 q 304 1238 272 1207 q 382 1268 336 1268 q 460 1238 428 1268 q 492 1158 492 1207 q 460 1080 492 1110 q 382 1050 428 1050 m 88 1050 q 10 1080 42 1050 q -22 1158 -22 1110 q 10 1238 -22 1207 q 88 1268 42 1268 q 165 1238 133 1268 q 197 1158 197 1207 q 165 1080 197 1110 q 88 1050 133 1050 z "},"Ḯ":{"ha":471,"x_min":-11,"x_max":510,"o":"m 97 0 l 97 972 l 372 972 l 372 0 l 97 0 m 376 1047 q 302 1076 332 1047 q 272 1150 272 1106 q 302 1226 272 1197 q 376 1254 332 1254 q 451 1226 421 1254 q 481 1150 481 1197 q 451 1076 481 1106 q 376 1047 421 1047 m 93 1047 q 19 1076 50 1047 q -11 1150 -11 1106 q 19 1226 -11 1197 q 93 1254 50 1254 q 168 1226 138 1254 q 199 1150 199 1197 q 168 1076 199 1106 q 93 1047 138 1047 m 103 1290 l 250 1464 l 508 1464 l 285 1290 l 103 1290 z "},"İ":{"ha":471,"x_min":97,"x_max":372,"o":"m 97 0 l 97 972 l 372 972 l 372 0 l 97 0 m 235 1049 q 136 1087 175 1049 q 97 1186 97 1125 q 136 1284 97 1246 q 235 1322 175 1322 q 333 1284 294 1322 q 372 1186 372 1246 q 333 1087 372 1125 q 235 1049 294 1049 z "},"Ị":{"ha":471,"x_min":97,"x_max":372,"o":"m 97 0 l 97 972 l 372 972 l 372 0 l 97 0 m 235 -337 q 136 -299 175 -337 q 97 -200 97 -261 q 136 -102 97 -140 q 235 -64 175 -64 q 333 -102 294 -64 q 372 -200 372 -140 q 333 -299 372 -261 q 235 -337 294 -337 z "},"Ì":{"ha":471,"x_min":-79,"x_max":372,"o":"m 97 0 l 97 972 l 372 972 l 372 0 l 97 0 m 182 1051 l -79 1263 l 185 1263 l 371 1051 l 182 1051 z "},"Ỉ":{"ha":471,"x_min":31,"x_max":383,"o":"m 97 0 l 97 972 l 372 972 l 372 0 l 97 0 m 242 1008 l 160 1089 q 214 1128 200 1108 q 228 1169 228 1147 q 210 1210 228 1194 q 165 1225 193 1225 q 85 1197 125 1225 l 31 1299 q 115 1341 72 1328 q 199 1354 158 1354 q 294 1332 253 1354 q 360 1272 336 1310 q 383 1189 383 1235 q 350 1089 383 1136 q 242 1008 317 1042 z "},"Ȋ":{"ha":471,"x_min":-37,"x_max":508,"o":"m 97 0 l 97 972 l 372 972 l 372 0 l 97 0 m -37 1051 q 42 1215 -33 1156 q 235 1275 118 1275 q 427 1215 351 1275 q 507 1051 503 1156 l 346 1051 q 313 1118 344 1093 q 235 1143 281 1143 q 158 1118 189 1143 q 124 1051 126 1093 l -37 1051 z "},"Ī":{"ha":471,"x_min":14,"x_max":457,"o":"m 97 0 l 97 972 l 372 972 l 372 0 l 97 0 m 13 1086 l 13 1228 l 457 1228 l 457 1086 l 13 1086 z "},"Į":{"ha":471,"x_min":97,"x_max":413,"o":"m 97 0 l 97 972 l 372 972 l 372 0 l 97 0 m 303 -328 q 169 -283 219 -328 q 119 -164 119 -239 q 166 -34 119 -93 q 299 64 213 25 l 374 0 q 299 -72 319 -39 q 279 -140 279 -106 q 295 -185 279 -168 q 335 -203 311 -203 q 379 -187 360 -203 l 413 -297 q 303 -328 369 -328 z "},"Ɩ":{"ha":571,"x_min":89,"x_max":583,"o":"m 385 -18 l 385 -18 q 239 11 307 -18 q 130 104 171 40 q 89 272 89 168 l 89 972 l 364 972 l 364 300 q 388 226 364 250 q 450 201 413 201 q 489 208 468 201 q 532 225 510 214 l 583 24 q 485 -8 536 3 q 385 -18 433 -18 z "},"Ɨ":{"ha":519,"x_min":13,"x_max":508,"o":"m 122 0 l 122 972 l 397 972 l 397 0 l 122 0 m 13 410 l 13 579 l 508 579 l 508 410 l 13 410 z "},"Ĩ":{"ha":471,"x_min":-24,"x_max":493,"o":"m 97 0 l 97 972 l 372 972 l 372 0 l 97 0 m 332 1040 q 267 1053 293 1040 q 222 1084 240 1067 q 188 1115 204 1101 q 153 1129 172 1129 q 119 1108 129 1129 q 107 1053 110 1088 l -24 1053 q 18 1217 -22 1156 q 138 1278 58 1278 q 203 1265 176 1278 q 247 1233 229 1251 q 282 1202 265 1215 q 318 1189 299 1189 q 351 1208 340 1189 q 363 1261 361 1228 l 493 1261 q 451 1101 492 1163 q 332 1040 411 1040 z "},"Ḭ":{"ha":497,"x_min":-11,"x_max":506,"o":"m 97 0 l 97 972 l 372 972 l 372 0 l 97 0 m 344 -303 q 279 -290 306 -303 q 235 -259 253 -276 q 201 -228 217 -242 q 165 -214 185 -214 q 132 -235 142 -214 q 119 -290 122 -256 l -11 -290 q 31 -126 -10 -187 q 150 -65 71 -65 q 215 -78 189 -65 q 260 -110 242 -92 q 294 -141 278 -128 q 331 -154 311 -154 q 363 -135 353 -154 q 375 -82 374 -115 l 506 -82 q 464 -242 504 -181 q 344 -303 424 -303 z "},"J":{"ha":774,"x_min":-28,"x_max":685,"o":"m 310 -19 q 116 17 203 -19 q -28 124 29 54 l 122 301 q 203 226 161 251 q 290 200 244 200 q 413 342 413 200 l 413 760 l 76 760 l 76 972 l 685 972 l 685 358 q 589 74 685 168 q 310 -19 493 -19 z "},"Ĵ":{"ha":774,"x_min":-28,"x_max":685,"o":"m 310 -19 q 116 17 203 -19 q -28 124 29 54 l 122 301 q 203 226 161 251 q 290 200 244 200 q 413 342 413 200 l 413 760 l 76 760 l 76 972 l 685 972 l 685 358 q 589 74 685 168 q 310 -19 493 -19 m 86 1051 l 267 1263 l 494 1263 l 675 1051 l 500 1051 l 304 1225 l 457 1225 l 261 1051 l 86 1051 z "},"Ʝ":{"ha":792,"x_min":22,"x_max":785,"o":"m 319 -19 q 155 12 221 -19 q 56 95 89 43 q 22 208 22 147 q 52 315 22 264 q 147 400 82 367 q 318 433 213 433 l 785 433 l 785 271 l 338 271 q 275 261 297 271 q 244 237 253 251 q 236 208 236 222 q 245 181 236 193 q 271 160 254 168 q 311 153 288 153 q 360 164 338 153 q 396 199 382 175 q 410 263 410 224 l 411 760 l 75 760 l 75 972 l 683 972 l 682 308 q 631 122 682 194 q 499 15 581 50 q 319 -19 417 -19 z "},"Ɉ":{"ha":779,"x_min":-28,"x_max":794,"o":"m 310 -19 q 116 17 203 -19 q -28 124 29 54 l 122 301 q 203 226 161 251 q 290 200 244 200 q 413 342 413 200 l 413 760 l 76 760 l 76 972 l 685 972 l 685 358 q 589 74 685 168 q 310 -19 493 -19 m 247 410 l 247 579 l 794 579 l 794 410 l 247 410 z "},"K":{"ha":1044,"x_min":97,"x_max":1069,"o":"m 343 215 l 328 524 l 746 972 l 1049 972 l 632 521 l 479 361 l 343 215 m 97 0 l 97 972 l 369 972 l 369 0 l 97 0 m 750 0 l 433 401 l 613 593 l 1069 0 l 750 0 z "},"Ḱ":{"ha":1044,"x_min":97,"x_max":1069,"o":"m 343 215 l 328 524 l 746 972 l 1049 972 l 632 521 l 479 361 l 343 215 m 97 0 l 97 972 l 369 972 l 369 0 l 97 0 m 750 0 l 433 401 l 613 593 l 1069 0 l 750 0 m 394 1051 l 581 1263 l 844 1263 l 583 1051 l 394 1051 z "},"Ǩ":{"ha":1044,"x_min":97,"x_max":1069,"o":"m 343 215 l 328 524 l 746 972 l 1049 972 l 632 521 l 479 361 l 343 215 m 97 0 l 97 972 l 369 972 l 369 0 l 97 0 m 750 0 l 433 401 l 613 593 l 1069 0 l 750 0 m 417 1051 l 236 1263 l 411 1263 l 607 1090 l 454 1090 l 650 1263 l 825 1263 l 644 1051 l 417 1051 z "},"Ķ":{"ha":1044,"x_min":97,"x_max":1069,"o":"m 343 215 l 328 524 l 746 972 l 1049 972 l 632 521 l 479 361 l 343 215 m 97 0 l 97 972 l 369 972 l 369 0 l 97 0 m 750 0 l 433 401 l 613 593 l 1069 0 l 750 0 m 440 -368 l 501 -178 l 531 -265 q 449 -241 476 -265 q 421 -175 421 -217 q 450 -108 421 -133 q 531 -82 479 -82 q 611 -108 582 -82 q 640 -175 640 -133 q 635 -217 640 -193 q 611 -275 629 -242 l 560 -368 l 440 -368 z "},"Ḳ":{"ha":1044,"x_min":97,"x_max":1069,"o":"m 343 215 l 328 524 l 746 972 l 1049 972 l 632 521 l 479 361 l 343 215 m 97 0 l 97 972 l 369 972 l 369 0 l 97 0 m 750 0 l 433 401 l 613 593 l 1069 0 l 750 0 m 531 -337 q 432 -299 471 -337 q 393 -200 393 -261 q 432 -102 393 -140 q 531 -64 471 -64 q 629 -102 590 -64 q 668 -200 668 -140 q 629 -299 668 -261 q 531 -337 590 -337 z "},"Ƙ":{"ha":1042,"x_min":97,"x_max":1081,"o":"m 331 221 l 313 528 l 661 915 q 819 1029 743 1003 q 962 1037 894 1056 q 1081 967 1029 1018 l 963 794 q 900 818 932 824 q 838 781 868 813 l 331 221 m 97 0 l 97 972 l 369 972 l 369 0 l 97 0 m 750 0 l 433 401 l 613 593 l 1069 0 l 750 0 z "},"Ḵ":{"ha":1044,"x_min":97,"x_max":1069,"o":"m 343 215 l 328 524 l 746 972 l 1049 972 l 632 521 l 479 361 l 343 215 m 97 0 l 97 972 l 369 972 l 369 0 l 97 0 m 750 0 l 433 401 l 613 593 l 1069 0 l 750 0 m 257 -257 l 257 -115 l 804 -115 l 804 -257 l 257 -257 z "},"Ꝁ":{"ha":1044,"x_min":11,"x_max":1093,"o":"m 354 160 l 351 485 l 774 972 l 1071 972 l 354 160 m 121 0 l 121 972 l 392 972 l 392 0 l 121 0 m 774 0 l 460 401 l 636 593 l 1093 0 l 774 0 m 11 743 l 11 886 l 543 886 l 543 743 l 11 743 z "},"L":{"ha":847,"x_min":97,"x_max":836,"o":"m 97 0 l 97 972 l 372 972 l 372 218 l 836 218 l 836 0 l 97 0 z "},"Ǉ":{"ha":1649,"x_min":97,"x_max":1558,"o":"m 97 0 l 97 972 l 372 972 l 372 218 l 836 218 l 836 0 l 97 0 m 1183 -19 q 990 17 1076 -19 q 846 124 903 54 l 996 301 q 1076 226 1035 251 q 1164 200 1118 200 q 1286 342 1286 200 l 1286 760 l 950 760 l 950 972 l 1558 972 l 1558 358 q 1463 74 1558 168 q 1183 -19 1367 -19 z "},"Ĺ":{"ha":847,"x_min":97,"x_max":836,"o":"m 97 0 l 97 972 l 372 972 l 372 218 l 836 218 l 836 0 l 97 0 m 99 1051 l 285 1263 l 549 1263 l 288 1051 l 99 1051 z "},"Ƚ":{"ha":863,"x_min":3,"x_max":851,"o":"m 113 0 l 113 972 l 388 972 l 388 218 l 851 218 l 851 0 l 113 0 m 3 410 l 3 579 l 553 579 l 553 410 l 3 410 z "},"Ɬ":{"ha":1004,"x_min":-32,"x_max":992,"o":"m 254 0 l 254 972 l 529 972 l 529 218 l 992 218 l 992 0 l 254 0 m 218 429 q 75 460 131 429 q -6 541 19 492 q -32 644 -32 590 q -8 744 -32 699 q 60 819 15 790 q 167 847 104 847 q 267 818 226 847 q 328 735 307 789 q 349 606 349 682 l 254 606 q 225 685 250 661 q 175 708 200 708 q 142 695 156 708 q 129 664 129 682 q 150 624 129 642 q 219 606 171 606 l 781 606 l 783 429 l 218 429 z "},"Ľ":{"ha":847,"x_min":97,"x_max":836,"o":"m 97 0 l 97 972 l 372 972 l 372 218 l 836 218 l 836 0 l 97 0 m 593 750 l 593 1035 l 783 1035 l 749 750 l 593 750 z "},"Ḽ":{"ha":847,"x_min":97,"x_max":836,"o":"m 97 0 l 97 972 l 372 972 l 372 218 l 836 218 l 836 0 l 97 0 m 172 -293 l 353 -82 l 581 -82 l 761 -293 l 586 -293 l 390 -119 l 543 -119 l 347 -293 l 172 -293 z "},"Ļ":{"ha":847,"x_min":97,"x_max":836,"o":"m 97 0 l 97 972 l 372 972 l 372 218 l 836 218 l 836 0 l 97 0 m 376 -368 l 438 -178 l 467 -265 q 385 -241 413 -265 q 357 -175 357 -217 q 386 -108 357 -133 q 467 -82 415 -82 q 547 -108 518 -82 q 576 -175 576 -133 q 571 -217 576 -193 q 547 -275 565 -242 l 496 -368 l 376 -368 z "},"Ŀ":{"ha":847,"x_min":97,"x_max":836,"o":"m 97 0 l 97 972 l 372 972 l 372 218 l 836 218 l 836 0 l 97 0 m 674 454 q 575 493 614 454 q 536 593 536 532 q 575 693 536 654 q 674 732 614 732 q 774 693 735 732 q 813 593 813 654 q 774 493 813 532 q 674 454 735 454 z "},"Ḷ":{"ha":847,"x_min":97,"x_max":836,"o":"m 97 0 l 97 972 l 372 972 l 372 218 l 836 218 l 836 0 l 97 0 m 467 -337 q 368 -299 407 -337 q 329 -200 329 -261 q 368 -102 329 -140 q 467 -64 407 -64 q 565 -102 526 -64 q 604 -200 604 -140 q 565 -299 604 -261 q 467 -337 526 -337 z "},"Ḹ":{"ha":847,"x_min":-39,"x_max":836,"o":"m 97 0 l 97 972 l 372 972 l 372 218 l 836 218 l 836 0 l 97 0 m 467 -337 q 368 -299 407 -337 q 329 -200 329 -261 q 368 -102 329 -140 q 467 -64 407 -64 q 565 -102 526 -64 q 604 -200 604 -140 q 565 -299 604 -261 q 467 -337 526 -337 m -39 1086 l -39 1228 l 508 1228 l 508 1086 l -39 1086 z "},"Ⱡ":{"ha":907,"x_min":46,"x_max":894,"o":"m 157 0 l 157 972 l 432 972 l 432 218 l 894 218 l 894 0 l 157 0 m 46 351 l 46 519 l 597 519 l 597 351 l 46 351 m 46 575 l 46 744 l 597 744 l 597 575 l 46 575 z "},"ǈ":{"ha":1293,"x_min":97,"x_max":1236,"o":"m 97 0 l 97 972 l 372 972 l 372 218 l 836 218 l 836 0 l 97 0 m 900 -282 q 799 -272 847 -282 q 717 -243 751 -261 l 783 -56 q 865 -78 819 -78 q 922 -54 900 -78 q 943 21 943 -31 l 943 753 l 1207 753 l 1207 19 q 1126 -200 1207 -118 q 900 -282 1046 -282 m 1075 836 q 958 876 1003 836 q 914 976 914 917 q 958 1076 914 1036 q 1075 1117 1003 1117 q 1192 1078 1147 1117 q 1236 981 1236 1040 q 1192 877 1236 918 q 1075 836 1149 836 z "},"Ḻ":{"ha":847,"x_min":97,"x_max":836,"o":"m 97 0 l 97 972 l 372 972 l 372 218 l 836 218 l 836 0 l 97 0 m 193 -257 l 193 -115 l 740 -115 l 740 -257 l 193 -257 z "},"Ɫ":{"ha":942,"x_min":-25,"x_max":929,"o":"m 192 0 l 192 972 l 467 972 l 467 218 l 929 218 l 929 0 l 192 0 m 515 440 q 424 453 475 440 q 323 483 374 467 q 231 513 272 500 q 165 526 189 526 q 122 506 139 526 q 104 453 106 486 l -25 453 q 23 613 -22 553 q 151 674 68 674 q 242 661 192 674 q 344 631 293 649 q 437 601 394 614 q 501 589 479 589 q 546 608 529 589 q 564 658 563 626 l 692 658 q 644 501 690 563 q 515 440 599 440 z "},"Ł":{"ha":871,"x_min":-33,"x_max":860,"o":"m 121 0 l 121 972 l 396 972 l 396 218 l 860 218 l 860 0 l 121 0 m 56 267 l -33 389 l 535 814 l 624 690 l 56 267 z "},"M":{"ha":1325,"x_min":97,"x_max":1228,"o":"m 97 0 l 97 972 l 324 972 l 726 311 l 607 311 l 999 972 l 1225 972 l 1228 0 l 975 0 l 972 588 l 1015 588 l 722 96 l 600 96 l 299 588 l 351 588 l 351 0 l 97 0 z "},"Ḿ":{"ha":1325,"x_min":97,"x_max":1228,"o":"m 97 0 l 97 972 l 324 972 l 726 311 l 607 311 l 999 972 l 1225 972 l 1228 0 l 975 0 l 972 588 l 1015 588 l 722 96 l 600 96 l 299 588 l 351 588 l 351 0 l 97 0 m 525 1051 l 711 1263 l 975 1263 l 714 1051 l 525 1051 z "},"Ṁ":{"ha":1325,"x_min":97,"x_max":1228,"o":"m 97 0 l 97 972 l 324 972 l 726 311 l 607 311 l 999 972 l 1225 972 l 1228 0 l 975 0 l 972 588 l 1015 588 l 722 96 l 600 96 l 299 588 l 351 588 l 351 0 l 97 0 m 661 1049 q 563 1087 601 1049 q 524 1186 524 1125 q 563 1284 524 1246 q 661 1322 601 1322 q 760 1284 721 1322 q 799 1186 799 1246 q 760 1087 799 1125 q 661 1049 721 1049 z "},"Ṃ":{"ha":1325,"x_min":97,"x_max":1228,"o":"m 97 0 l 97 972 l 324 972 l 726 311 l 607 311 l 999 972 l 1225 972 l 1228 0 l 975 0 l 972 588 l 1015 588 l 722 96 l 600 96 l 299 588 l 351 588 l 351 0 l 97 0 m 661 -337 q 563 -299 601 -337 q 524 -200 524 -261 q 563 -102 524 -140 q 661 -64 601 -64 q 760 -102 721 -64 q 799 -200 799 -140 q 760 -299 799 -261 q 661 -337 721 -337 z "},"Ɱ":{"ha":1339,"x_min":111,"x_max":1242,"o":"m 765 -242 l 833 -56 q 890 -74 863 -69 q 940 -70 918 -78 q 974 -42 961 -62 q 988 10 988 -22 l 988 588 l 1029 588 l 736 96 l 614 96 l 313 588 l 364 588 l 364 0 l 111 0 l 111 972 l 338 972 l 739 311 l 619 311 l 1013 972 l 1239 972 l 1242 8 q 1211 -135 1242 -76 q 1131 -231 1181 -194 q 1017 -278 1081 -267 q 889 -281 954 -290 q 765 -242 824 -272 z "},"Ɯ":{"ha":1690,"x_min":89,"x_max":1592,"o":"m 1592 972 l 1592 0 l 1326 0 l 1326 228 l 1365 182 q 1248 33 1329 86 q 1047 -19 1167 -19 q 842 38 925 -19 q 726 200 760 94 l 808 192 q 671 34 764 88 q 456 -19 578 -19 q 187 82 285 -19 q 89 378 89 183 l 89 972 l 364 972 l 364 386 q 411 252 364 296 q 532 208 458 208 q 661 254 611 208 q 711 400 711 300 l 711 972 l 986 972 l 986 386 q 1029 252 986 296 q 1144 208 1072 208 q 1233 228 1194 208 q 1294 291 1272 249 q 1317 400 1317 333 l 1317 972 l 1592 972 z "},"N":{"ha":1119,"x_min":97,"x_max":1022,"o":"m 97 0 l 97 972 l 324 972 l 860 325 l 753 325 l 753 972 l 1022 972 l 1022 0 l 796 0 l 260 647 l 367 647 l 367 0 l 97 0 z "},"Ǌ":{"ha":1893,"x_min":97,"x_max":1804,"o":"m 97 0 l 97 972 l 324 972 l 860 325 l 753 325 l 753 972 l 1022 972 l 1022 0 l 796 0 l 260 647 l 367 647 l 367 0 l 97 0 m 1429 -19 q 1235 17 1322 -19 q 1092 124 1149 54 l 1242 301 q 1322 226 1281 251 q 1410 200 1364 200 q 1532 342 1532 200 l 1532 760 l 1196 760 l 1196 972 l 1804 972 l 1804 358 q 1708 74 1804 168 q 1429 -19 1613 -19 z "},"Ń":{"ha":1119,"x_min":97,"x_max":1022,"o":"m 97 0 l 97 972 l 324 972 l 860 325 l 753 325 l 753 972 l 1022 972 l 1022 0 l 796 0 l 260 647 l 367 647 l 367 0 l 97 0 m 424 1051 l 610 1263 l 874 1263 l 613 1051 l 424 1051 z "},"Ň":{"ha":1119,"x_min":97,"x_max":1022,"o":"m 97 0 l 97 972 l 324 972 l 860 325 l 753 325 l 753 972 l 1022 972 l 1022 0 l 796 0 l 260 647 l 367 647 l 367 0 l 97 0 m 446 1051 l 265 1263 l 440 1263 l 636 1090 l 483 1090 l 679 1263 l 854 1263 l 674 1051 l 446 1051 z "},"Ṋ":{"ha":1119,"x_min":97,"x_max":1022,"o":"m 97 0 l 97 972 l 324 972 l 860 325 l 753 325 l 753 972 l 1022 972 l 1022 0 l 796 0 l 260 647 l 367 647 l 367 0 l 97 0 m 264 -299 l 444 -87 l 672 -87 l 853 -299 l 678 -299 l 482 -125 l 635 -125 l 439 -299 l 264 -299 z "},"Ņ":{"ha":1119,"x_min":97,"x_max":1022,"o":"m 97 0 l 97 972 l 324 972 l 860 325 l 753 325 l 753 972 l 1022 972 l 1022 0 l 796 0 l 260 647 l 367 647 l 367 0 l 97 0 m 469 -368 l 531 -178 l 560 -265 q 478 -241 506 -265 q 450 -175 450 -217 q 479 -108 450 -133 q 560 -82 508 -82 q 640 -108 611 -82 q 669 -175 669 -133 q 664 -217 669 -193 q 640 -275 658 -242 l 589 -368 l 469 -368 z "},"Ṅ":{"ha":1119,"x_min":97,"x_max":1022,"o":"m 97 0 l 97 972 l 324 972 l 860 325 l 753 325 l 753 972 l 1022 972 l 1022 0 l 796 0 l 260 647 l 367 647 l 367 0 l 97 0 m 560 1049 q 461 1087 500 1049 q 422 1186 422 1125 q 461 1284 422 1246 q 560 1322 500 1322 q 658 1284 619 1322 q 697 1186 697 1246 q 658 1087 697 1125 q 560 1049 619 1049 z "},"Ṇ":{"ha":1119,"x_min":97,"x_max":1022,"o":"m 97 0 l 97 972 l 324 972 l 860 325 l 753 325 l 753 972 l 1022 972 l 1022 0 l 796 0 l 260 647 l 367 647 l 367 0 l 97 0 m 560 -337 q 461 -299 500 -337 q 422 -200 422 -261 q 461 -102 422 -140 q 560 -64 500 -64 q 658 -102 619 -64 q 697 -200 697 -140 q 658 -299 697 -261 q 560 -337 619 -337 z "},"Ǹ":{"ha":1119,"x_min":97,"x_max":1022,"o":"m 97 0 l 97 972 l 324 972 l 860 325 l 753 325 l 753 972 l 1022 972 l 1022 0 l 796 0 l 260 647 l 367 647 l 367 0 l 97 0 m 507 1051 l 246 1263 l 510 1263 l 696 1051 l 507 1051 z "},"Ɲ":{"ha":1118,"x_min":-81,"x_max":1029,"o":"m -81 -253 l -17 -65 q 46 -74 17 -78 q 94 -49 75 -69 q 113 8 113 -28 l 113 972 l 379 972 l 379 725 l 331 775 q 458 936 374 881 q 664 992 543 992 q 933 882 836 992 q 1029 567 1029 772 l 1029 0 l 754 0 l 754 558 q 706 714 754 664 q 578 764 658 764 q 442 711 496 764 q 388 544 388 658 l 388 8 q 344 -156 388 -90 q 231 -254 301 -222 q 79 -285 161 -286 q -81 -253 -3 -283 z "},"ǋ":{"ha":1592,"x_min":97,"x_max":1536,"o":"m 97 0 l 97 972 l 324 972 l 860 325 l 753 325 l 753 972 l 1022 972 l 1022 0 l 796 0 l 260 647 l 367 647 l 367 0 l 97 0 m 1200 -282 q 1099 -272 1147 -282 q 1017 -243 1051 -261 l 1083 -56 q 1165 -78 1119 -78 q 1222 -54 1200 -78 q 1243 21 1243 -31 l 1243 753 l 1507 753 l 1507 19 q 1426 -200 1507 -118 q 1200 -282 1346 -282 m 1375 836 q 1258 876 1303 836 q 1214 976 1214 917 q 1258 1076 1214 1036 q 1375 1117 1303 1117 q 1492 1078 1447 1117 q 1536 981 1536 1040 q 1492 877 1536 918 q 1375 836 1449 836 z "},"Ṉ":{"ha":1119,"x_min":97,"x_max":1022,"o":"m 97 0 l 97 972 l 324 972 l 860 325 l 753 325 l 753 972 l 1022 972 l 1022 0 l 796 0 l 260 647 l 367 647 l 367 0 l 97 0 m 286 -257 l 286 -115 l 833 -115 l 833 -257 l 286 -257 z "},"Ƞ":{"ha":1121,"x_min":111,"x_max":1029,"o":"m 753 -269 l 753 558 q 705 714 753 664 q 576 764 657 764 q 440 711 494 764 q 386 544 386 658 l 386 0 l 111 0 l 111 972 l 378 972 l 378 725 l 329 775 q 458 936 374 881 q 663 992 543 992 q 933 882 836 992 q 1029 567 1029 772 l 1029 -269 l 753 -269 z "},"Ñ":{"ha":1119,"x_min":97,"x_max":1022,"o":"m 97 0 l 97 972 l 324 972 l 860 325 l 753 325 l 753 972 l 1022 972 l 1022 0 l 796 0 l 260 647 l 367 647 l 367 0 l 97 0 m 671 1040 q 603 1053 633 1040 q 550 1084 574 1067 q 506 1115 526 1101 q 464 1128 485 1128 q 420 1107 438 1128 q 400 1053 403 1086 l 268 1053 q 318 1215 271 1153 q 449 1278 365 1278 q 517 1265 488 1278 q 570 1234 546 1251 q 615 1203 594 1217 q 656 1190 636 1190 q 701 1210 683 1190 q 719 1263 718 1231 l 850 1263 q 801 1102 849 1164 q 671 1040 754 1040 z "},"Ŋ":{"ha":1119,"x_min":97,"x_max":1022,"o":"m 97 0 l 97 972 l 324 972 l 860 325 l 796 0 l 260 647 l 367 647 l 367 0 l 97 0 m 658 -282 q 507 -260 579 -282 q 388 -197 435 -237 l 511 -14 q 571 -51 539 -37 q 635 -64 603 -64 q 721 -28 689 -64 q 753 79 753 7 l 753 972 l 1022 972 l 1022 101 q 993 -78 1022 -4 q 913 -197 964 -151 q 797 -262 863 -242 q 658 -282 732 -282 z "},"O":{"ha":1175,"x_min":47,"x_max":1128,"o":"m 588 -19 q 372 18 471 -19 q 201 124 274 56 q 88 285 128 193 q 47 486 47 376 q 88 688 47 596 q 201 848 128 779 q 372 954 274 917 q 588 992 471 992 q 803 954 706 992 q 974 848 901 917 q 1087 688 1046 779 q 1128 486 1128 596 q 1087 284 1128 376 q 974 124 1046 192 q 803 18 901 56 q 588 -19 706 -19 m 588 208 q 691 228 643 208 q 774 284 739 247 q 830 372 810 321 q 850 486 850 424 q 830 601 850 550 q 774 688 810 651 q 691 744 739 725 q 588 764 643 764 q 484 744 532 764 q 401 688 436 725 q 345 601 365 651 q 325 486 325 550 q 345 372 325 424 q 401 284 365 321 q 484 228 436 247 q 588 208 532 208 z "},"Ȣ":{"ha":1060,"x_min":40,"x_max":1019,"o":"m 529 -14 q 271 26 381 -14 q 101 142 161 67 q 40 319 40 217 q 101 494 40 419 q 271 610 161 569 q 529 651 381 651 q 789 610 679 651 q 959 494 899 569 q 1019 319 1019 419 q 959 142 1019 217 q 789 26 899 67 q 529 -14 679 -14 m 529 186 q 692 226 633 186 q 751 336 751 267 q 692 443 751 404 q 529 482 633 482 q 411 465 461 482 q 335 415 361 447 q 308 336 308 382 q 335 256 308 289 q 411 204 361 222 q 529 186 461 186 m 529 493 q 291 529 392 493 q 136 635 190 565 q 82 803 82 704 l 82 972 l 353 972 l 353 804 q 400 700 353 736 q 529 664 447 664 q 659 700 613 664 q 706 804 706 736 l 706 972 l 978 972 l 978 803 q 924 635 978 704 q 769 529 869 565 q 529 493 668 493 z "},"Ó":{"ha":1175,"x_min":47,"x_max":1128,"o":"m 588 -19 q 372 18 471 -19 q 201 124 274 56 q 88 285 128 193 q 47 486 47 376 q 88 688 47 596 q 201 848 128 779 q 372 954 274 917 q 588 992 471 992 q 803 954 706 992 q 974 848 901 917 q 1087 688 1046 779 q 1128 486 1128 596 q 1087 284 1128 376 q 974 124 1046 192 q 803 18 901 56 q 588 -19 706 -19 m 588 208 q 691 228 643 208 q 774 284 739 247 q 830 372 810 321 q 850 486 850 424 q 830 601 850 550 q 774 688 810 651 q 691 744 739 725 q 588 764 643 764 q 484 744 532 764 q 401 688 436 725 q 345 601 365 651 q 325 486 325 550 q 345 372 325 424 q 401 284 365 321 q 484 228 436 247 q 588 208 532 208 m 451 1051 l 638 1263 l 901 1263 l 640 1051 l 451 1051 z "},"Ŏ":{"ha":1175,"x_min":47,"x_max":1128,"o":"m 588 -19 q 372 18 471 -19 q 201 124 274 56 q 88 285 128 193 q 47 486 47 376 q 88 688 47 596 q 201 848 128 779 q 372 954 274 917 q 588 992 471 992 q 803 954 706 992 q 974 848 901 917 q 1087 688 1046 779 q 1128 486 1128 596 q 1087 284 1128 376 q 974 124 1046 192 q 803 18 901 56 q 588 -19 706 -19 m 588 208 q 691 228 643 208 q 774 284 739 247 q 830 372 810 321 q 850 486 850 424 q 830 601 850 550 q 774 688 810 651 q 691 744 739 725 q 588 764 643 764 q 484 744 532 764 q 401 688 436 725 q 345 601 365 651 q 325 486 325 550 q 345 372 325 424 q 401 284 365 321 q 484 228 436 247 q 588 208 532 208 m 588 1053 q 395 1113 471 1053 q 315 1276 319 1172 l 476 1276 q 510 1209 479 1233 q 588 1185 542 1185 q 665 1209 633 1185 q 699 1276 697 1233 l 860 1276 q 780 1113 856 1172 q 588 1053 704 1053 z "},"Ǒ":{"ha":1175,"x_min":47,"x_max":1128,"o":"m 588 -19 q 372 18 471 -19 q 201 124 274 56 q 88 285 128 193 q 47 486 47 376 q 88 688 47 596 q 201 848 128 779 q 372 954 274 917 q 588 992 471 992 q 803 954 706 992 q 974 848 901 917 q 1087 688 1046 779 q 1128 486 1128 596 q 1087 284 1128 376 q 974 124 1046 192 q 803 18 901 56 q 588 -19 706 -19 m 588 208 q 691 228 643 208 q 774 284 739 247 q 830 372 810 321 q 850 486 850 424 q 830 601 850 550 q 774 688 810 651 q 691 744 739 725 q 588 764 643 764 q 484 744 532 764 q 401 688 436 725 q 345 601 365 651 q 325 486 325 550 q 345 372 325 424 q 401 284 365 321 q 484 228 436 247 q 588 208 532 208 m 474 1051 l 293 1263 l 468 1263 l 664 1090 l 511 1090 l 707 1263 l 882 1263 l 701 1051 l 474 1051 z "},"Ɵ":{"ha":1165,"x_min":43,"x_max":1122,"o":"m 583 -19 q 367 18 467 -19 q 196 124 268 56 q 83 285 124 193 q 43 486 43 378 q 83 688 43 596 q 196 848 124 779 q 367 954 268 917 q 583 992 467 992 q 799 954 700 992 q 969 849 897 917 q 1082 688 1042 781 q 1122 486 1122 596 q 1082 284 1122 376 q 969 124 1042 192 q 799 18 897 56 q 583 -19 700 -19 m 583 208 q 669 222 629 208 q 742 261 710 235 q 799 325 775 288 q 836 410 824 363 l 329 410 q 365 325 342 363 q 422 261 389 288 q 496 222 456 235 q 583 208 536 208 m 335 579 l 831 579 q 798 655 821 621 q 742 713 775 689 q 668 751 708 738 q 583 764 628 764 q 497 751 538 764 q 423 713 456 738 q 367 655 390 689 q 335 579 344 621 z "},"Ô":{"ha":1175,"x_min":47,"x_max":1128,"o":"m 588 -19 q 372 18 471 -19 q 201 124 274 56 q 88 285 128 193 q 47 486 47 376 q 88 688 47 596 q 201 848 128 779 q 372 954 274 917 q 588 992 471 992 q 803 954 706 992 q 974 848 901 917 q 1087 688 1046 779 q 1128 486 1128 596 q 1087 284 1128 376 q 974 124 1046 192 q 803 18 901 56 q 588 -19 706 -19 m 588 208 q 691 228 643 208 q 774 284 739 247 q 830 372 810 321 q 850 486 850 424 q 830 601 850 550 q 774 688 810 651 q 691 744 739 725 q 588 764 643 764 q 484 744 532 764 q 401 688 436 725 q 345 601 365 651 q 325 486 325 550 q 345 372 325 424 q 401 284 365 321 q 484 228 436 247 q 588 208 532 208 m 293 1051 l 474 1263 l 701 1263 l 882 1051 l 707 1051 l 511 1225 l 664 1225 l 468 1051 l 293 1051 z "},"Ố":{"ha":1175,"x_min":47,"x_max":1178,"o":"m 588 -19 q 372 18 471 -19 q 201 124 274 56 q 88 285 128 193 q 47 486 47 376 q 88 688 47 596 q 201 848 128 779 q 372 954 274 917 q 588 992 471 992 q 803 954 706 992 q 974 848 901 917 q 1087 688 1046 779 q 1128 486 1128 596 q 1087 284 1128 376 q 974 124 1046 192 q 803 18 901 56 q 588 -19 706 -19 m 588 208 q 691 228 643 208 q 774 284 739 247 q 830 372 810 321 q 850 486 850 424 q 830 601 850 550 q 774 688 810 651 q 691 744 739 725 q 588 764 643 764 q 484 744 532 764 q 401 688 436 725 q 345 601 365 651 q 325 486 325 550 q 345 372 325 424 q 401 284 365 321 q 484 228 436 247 q 588 208 532 208 m 293 1051 l 475 1221 l 700 1221 l 882 1051 l 706 1051 l 515 1183 l 660 1183 l 469 1051 l 293 1051 m 771 1190 l 918 1364 l 1176 1364 l 953 1190 l 771 1190 z "},"Ộ":{"ha":1175,"x_min":47,"x_max":1128,"o":"m 588 -19 q 372 18 471 -19 q 201 124 274 56 q 88 285 128 193 q 47 486 47 376 q 88 688 47 596 q 201 848 128 779 q 372 954 274 917 q 588 992 471 992 q 803 954 706 992 q 974 848 901 917 q 1087 688 1046 779 q 1128 486 1128 596 q 1087 284 1128 376 q 974 124 1046 192 q 803 18 901 56 q 588 -19 706 -19 m 588 208 q 691 228 643 208 q 774 284 739 247 q 830 372 810 321 q 850 486 850 424 q 830 601 850 550 q 774 688 810 651 q 691 744 739 725 q 588 764 643 764 q 484 744 532 764 q 401 688 436 725 q 345 601 365 651 q 325 486 325 550 q 345 372 325 424 q 401 284 365 321 q 484 228 436 247 q 588 208 532 208 m 588 -337 q 489 -299 528 -337 q 450 -200 450 -261 q 489 -102 450 -140 q 588 -64 528 -64 q 686 -102 647 -64 q 725 -200 725 -140 q 686 -299 725 -261 q 588 -337 647 -337 m 293 1051 l 474 1263 l 701 1263 l 882 1051 l 707 1051 l 511 1225 l 664 1225 l 468 1051 l 293 1051 z "},"Ồ":{"ha":1175,"x_min":47,"x_max":1128,"o":"m 588 -19 q 372 18 471 -19 q 201 124 274 56 q 88 285 128 193 q 47 486 47 376 q 88 688 47 596 q 201 848 128 779 q 372 954 274 917 q 588 992 471 992 q 803 954 706 992 q 974 848 901 917 q 1087 688 1046 779 q 1128 486 1128 596 q 1087 284 1128 376 q 974 124 1046 192 q 803 18 901 56 q 588 -19 706 -19 m 588 208 q 691 228 643 208 q 774 284 739 247 q 830 372 810 321 q 850 486 850 424 q 830 601 850 550 q 774 688 810 651 q 691 744 739 725 q 588 764 643 764 q 484 744 532 764 q 401 688 436 725 q 345 601 365 651 q 325 486 325 550 q 345 372 325 424 q 401 284 365 321 q 484 228 436 247 q 588 208 532 208 m 293 1051 l 475 1221 l 700 1221 l 882 1051 l 706 1051 l 515 1183 l 660 1183 l 469 1051 l 293 1051 m 854 1190 l 629 1364 l 888 1364 l 1035 1190 l 854 1190 z "},"Ổ":{"ha":1175,"x_min":47,"x_max":1128,"o":"m 588 -19 q 372 18 471 -19 q 201 124 274 56 q 88 285 128 193 q 47 486 47 376 q 88 688 47 596 q 201 848 128 779 q 372 954 274 917 q 588 992 471 992 q 803 954 706 992 q 974 848 901 917 q 1087 688 1046 779 q 1128 486 1128 596 q 1087 284 1128 376 q 974 124 1046 192 q 803 18 901 56 q 588 -19 706 -19 m 588 208 q 691 228 643 208 q 774 284 739 247 q 830 372 810 321 q 850 486 850 424 q 830 601 850 550 q 774 688 810 651 q 691 744 739 725 q 588 764 643 764 q 484 744 532 764 q 401 688 436 725 q 345 601 365 651 q 325 486 325 550 q 345 372 325 424 q 401 284 365 321 q 484 228 436 247 q 588 208 532 208 m 293 1051 l 475 1221 l 700 1221 l 882 1051 l 706 1051 l 515 1183 l 660 1183 l 469 1051 l 293 1051 m 860 1163 l 797 1219 q 836 1249 825 1235 q 847 1275 847 1264 q 835 1302 847 1292 q 803 1313 822 1313 q 740 1296 774 1313 l 699 1371 q 758 1396 725 1388 q 825 1404 790 1404 q 925 1373 888 1404 q 963 1289 963 1342 q 933 1212 963 1244 q 860 1163 903 1179 z "},"Ỗ":{"ha":1175,"x_min":47,"x_max":1128,"o":"m 588 -19 q 372 18 471 -19 q 201 124 274 56 q 88 285 128 193 q 47 486 47 376 q 88 688 47 596 q 201 848 128 779 q 372 954 274 917 q 588 992 471 992 q 803 954 706 992 q 974 848 901 917 q 1087 688 1046 779 q 1128 486 1128 596 q 1087 284 1128 376 q 974 124 1046 192 q 803 18 901 56 q 588 -19 706 -19 m 588 208 q 691 228 643 208 q 774 284 739 247 q 830 372 810 321 q 850 486 850 424 q 830 601 850 550 q 774 688 810 651 q 691 744 739 725 q 588 764 643 764 q 484 744 532 764 q 401 688 436 725 q 345 601 365 651 q 325 486 325 550 q 345 372 325 424 q 401 284 365 321 q 484 228 436 247 q 588 208 532 208 m 293 1051 l 475 1221 l 700 1221 l 882 1051 l 706 1051 l 515 1183 l 660 1183 l 469 1051 l 293 1051 m 696 1278 q 627 1289 656 1278 q 578 1315 599 1300 q 538 1340 557 1329 q 500 1351 519 1351 q 458 1334 474 1351 q 440 1289 443 1317 l 308 1289 q 356 1425 310 1376 q 481 1474 403 1474 q 567 1456 533 1474 q 627 1419 601 1438 q 679 1400 653 1400 q 722 1418 706 1400 q 739 1463 738 1436 l 867 1463 q 820 1326 865 1375 q 696 1278 775 1278 z "},"Ȍ":{"ha":1175,"x_min":47,"x_max":1128,"o":"m 588 -19 q 372 18 471 -19 q 201 124 274 56 q 88 285 128 193 q 47 486 47 376 q 88 688 47 596 q 201 848 128 779 q 372 954 274 917 q 588 992 471 992 q 803 954 706 992 q 974 848 901 917 q 1087 688 1046 779 q 1128 486 1128 596 q 1087 284 1128 376 q 974 124 1046 192 q 803 18 901 56 q 588 -19 706 -19 m 588 208 q 691 228 643 208 q 774 284 739 247 q 830 372 810 321 q 850 486 850 424 q 830 601 850 550 q 774 688 810 651 q 691 744 739 725 q 588 764 643 764 q 484 744 532 764 q 401 688 436 725 q 345 601 365 651 q 325 486 325 550 q 345 372 325 424 q 401 284 365 321 q 484 228 436 247 q 588 208 532 208 m 647 1051 l 507 1263 l 743 1263 l 831 1051 l 647 1051 m 344 1051 l 206 1263 l 442 1263 l 528 1051 l 344 1051 z "},"Ö":{"ha":1175,"x_min":47,"x_max":1128,"o":"m 588 -19 q 372 18 471 -19 q 201 124 274 56 q 88 285 128 193 q 47 486 47 376 q 88 688 47 596 q 201 848 128 779 q 372 954 274 917 q 588 992 471 992 q 803 954 706 992 q 974 848 901 917 q 1087 688 1046 779 q 1128 486 1128 596 q 1087 284 1128 376 q 974 124 1046 192 q 803 18 901 56 q 588 -19 706 -19 m 588 208 q 691 228 643 208 q 774 284 739 247 q 830 372 810 321 q 850 486 850 424 q 830 601 850 550 q 774 688 810 651 q 691 744 739 725 q 588 764 643 764 q 484 744 532 764 q 401 688 436 725 q 345 601 365 651 q 325 486 325 550 q 345 372 325 424 q 401 284 365 321 q 484 228 436 247 q 588 208 532 208 m 735 1050 q 657 1080 689 1050 q 625 1158 625 1110 q 657 1238 625 1207 q 735 1268 689 1268 q 813 1238 781 1268 q 844 1158 844 1207 q 813 1080 844 1110 q 735 1050 781 1050 m 440 1050 q 363 1080 394 1050 q 331 1158 331 1110 q 363 1238 331 1207 q 440 1268 394 1268 q 518 1238 486 1268 q 550 1158 550 1207 q 518 1080 550 1110 q 440 1050 486 1050 z "},"Ȫ":{"ha":1175,"x_min":47,"x_max":1128,"o":"m 588 -19 q 372 18 471 -19 q 201 124 274 56 q 88 285 128 193 q 47 486 47 376 q 88 688 47 596 q 201 848 128 779 q 372 954 274 917 q 588 992 471 992 q 803 954 706 992 q 974 848 901 917 q 1087 688 1046 779 q 1128 486 1128 596 q 1087 284 1128 376 q 974 124 1046 192 q 803 18 901 56 q 588 -19 706 -19 m 588 208 q 691 228 643 208 q 774 284 739 247 q 830 372 810 321 q 850 486 850 424 q 830 601 850 550 q 774 688 810 651 q 691 744 739 725 q 588 764 643 764 q 484 744 532 764 q 401 688 436 725 q 345 601 365 651 q 325 486 325 550 q 345 372 325 424 q 401 284 365 321 q 484 228 436 247 q 588 208 532 208 m 729 1044 q 655 1074 685 1044 q 625 1147 625 1103 q 655 1223 625 1194 q 729 1251 685 1251 q 803 1223 774 1251 q 833 1147 833 1194 q 803 1074 833 1103 q 729 1044 774 1044 m 446 1044 q 372 1074 403 1044 q 342 1147 342 1103 q 372 1223 342 1194 q 446 1251 403 1251 q 521 1223 490 1251 q 551 1147 551 1194 q 521 1074 551 1103 q 446 1044 490 1044 m 314 1325 l 314 1460 l 861 1460 l 861 1325 l 314 1325 z "},"Ȯ":{"ha":1175,"x_min":47,"x_max":1128,"o":"m 588 -19 q 372 18 471 -19 q 201 124 274 56 q 88 285 128 193 q 47 486 47 376 q 88 688 47 596 q 201 848 128 779 q 372 954 274 917 q 588 992 471 992 q 803 954 706 992 q 974 848 901 917 q 1087 688 1046 779 q 1128 486 1128 596 q 1087 284 1128 376 q 974 124 1046 192 q 803 18 901 56 q 588 -19 706 -19 m 588 208 q 691 228 643 208 q 774 284 739 247 q 830 372 810 321 q 850 486 850 424 q 830 601 850 550 q 774 688 810 651 q 691 744 739 725 q 588 764 643 764 q 484 744 532 764 q 401 688 436 725 q 345 601 365 651 q 325 486 325 550 q 345 372 325 424 q 401 284 365 321 q 484 228 436 247 q 588 208 532 208 m 588 1049 q 489 1087 528 1049 q 450 1186 450 1125 q 489 1284 450 1246 q 588 1322 528 1322 q 686 1284 647 1322 q 725 1186 725 1246 q 686 1087 725 1125 q 588 1049 647 1049 z "},"Ȱ":{"ha":1175,"x_min":47,"x_max":1128,"o":"m 588 -19 q 372 18 471 -19 q 201 124 274 56 q 88 285 128 193 q 47 486 47 376 q 88 688 47 596 q 201 848 128 779 q 372 954 274 917 q 588 992 471 992 q 803 954 706 992 q 974 848 901 917 q 1087 688 1046 779 q 1128 486 1128 596 q 1087 284 1128 376 q 974 124 1046 192 q 803 18 901 56 q 588 -19 706 -19 m 588 208 q 691 228 643 208 q 774 284 739 247 q 830 372 810 321 q 850 486 850 424 q 830 601 850 550 q 774 688 810 651 q 691 744 739 725 q 588 764 643 764 q 484 744 532 764 q 401 688 436 725 q 345 601 365 651 q 325 486 325 550 q 345 372 325 424 q 401 284 365 321 q 484 228 436 247 q 588 208 532 208 m 588 1046 q 510 1075 542 1046 q 478 1153 478 1104 q 510 1233 478 1203 q 588 1263 542 1263 q 665 1233 633 1263 q 697 1153 697 1203 q 665 1075 697 1104 q 588 1046 633 1046 m 314 1325 l 314 1460 l 861 1460 l 861 1325 l 314 1325 z "},"Ọ":{"ha":1175,"x_min":47,"x_max":1128,"o":"m 588 -19 q 372 18 471 -19 q 201 124 274 56 q 88 285 128 193 q 47 486 47 376 q 88 688 47 596 q 201 848 128 779 q 372 954 274 917 q 588 992 471 992 q 803 954 706 992 q 974 848 901 917 q 1087 688 1046 779 q 1128 486 1128 596 q 1087 284 1128 376 q 974 124 1046 192 q 803 18 901 56 q 588 -19 706 -19 m 588 208 q 691 228 643 208 q 774 284 739 247 q 830 372 810 321 q 850 486 850 424 q 830 601 850 550 q 774 688 810 651 q 691 744 739 725 q 588 764 643 764 q 484 744 532 764 q 401 688 436 725 q 345 601 365 651 q 325 486 325 550 q 345 372 325 424 q 401 284 365 321 q 484 228 436 247 q 588 208 532 208 m 588 -337 q 489 -299 528 -337 q 450 -200 450 -261 q 489 -102 450 -140 q 588 -64 528 -64 q 686 -102 647 -64 q 725 -200 725 -140 q 686 -299 725 -261 q 588 -337 647 -337 z "},"Ò":{"ha":1175,"x_min":47,"x_max":1128,"o":"m 588 -19 q 372 18 471 -19 q 201 124 274 56 q 88 285 128 193 q 47 486 47 376 q 88 688 47 596 q 201 848 128 779 q 372 954 274 917 q 588 992 471 992 q 803 954 706 992 q 974 848 901 917 q 1087 688 1046 779 q 1128 486 1128 596 q 1087 284 1128 376 q 974 124 1046 192 q 803 18 901 56 q 588 -19 706 -19 m 588 208 q 691 228 643 208 q 774 284 739 247 q 830 372 810 321 q 850 486 850 424 q 830 601 850 550 q 774 688 810 651 q 691 744 739 725 q 588 764 643 764 q 484 744 532 764 q 401 688 436 725 q 345 601 365 651 q 325 486 325 550 q 345 372 325 424 q 401 284 365 321 q 484 228 436 247 q 588 208 532 208 m 535 1051 l 274 1263 l 538 1263 l 724 1051 l 535 1051 z "},"Ỏ":{"ha":1175,"x_min":47,"x_max":1128,"o":"m 588 -19 q 372 18 471 -19 q 201 124 274 56 q 88 285 128 193 q 47 486 47 376 q 88 688 47 596 q 201 848 128 779 q 372 954 274 917 q 588 992 471 992 q 803 954 706 992 q 974 848 901 917 q 1087 688 1046 779 q 1128 486 1128 596 q 1087 284 1128 376 q 974 124 1046 192 q 803 18 901 56 q 588 -19 706 -19 m 588 208 q 691 228 643 208 q 774 284 739 247 q 830 372 810 321 q 850 486 850 424 q 830 601 850 550 q 774 688 810 651 q 691 744 739 725 q 588 764 643 764 q 484 744 532 764 q 401 688 436 725 q 345 601 365 651 q 325 486 325 550 q 345 372 325 424 q 401 284 365 321 q 484 228 436 247 q 588 208 532 208 m 593 1008 l 511 1089 q 565 1128 551 1108 q 579 1169 579 1147 q 562 1210 579 1194 q 517 1225 544 1225 q 436 1197 476 1225 l 382 1299 q 467 1341 424 1328 q 550 1354 510 1354 q 646 1332 604 1354 q 711 1272 688 1310 q 735 1189 735 1235 q 701 1089 735 1136 q 593 1008 668 1042 z "},"Ơ":{"ha":1175,"x_min":47,"x_max":1128,"o":"m 588 -19 q 372 18 471 -19 q 201 124 274 56 q 88 285 128 193 q 47 486 47 378 q 88 688 47 596 q 201 849 128 781 q 376 954 275 917 q 599 992 478 992 q 738 983 675 992 q 847 974 800 974 q 923 995 894 974 q 951 1060 951 1017 q 943 1104 951 1083 q 924 1140 935 1125 l 1075 1194 q 1110 1129 1097 1165 q 1124 1049 1124 1093 q 1046 878 1124 936 q 838 819 968 819 q 721 826 776 819 q 614 840 665 833 l 925 881 q 1031 779 986 839 q 1102 645 1076 719 q 1128 486 1128 571 q 1087 284 1128 376 q 974 124 1046 192 q 803 18 901 56 q 588 -19 706 -19 m 588 208 q 691 228 643 208 q 774 284 739 247 q 830 372 810 321 q 850 486 850 424 q 830 600 850 549 q 774 688 810 651 q 691 744 739 725 q 588 764 643 764 q 484 744 532 764 q 401 688 436 725 q 345 601 365 651 q 325 486 325 550 q 345 372 325 424 q 401 284 365 321 q 484 228 436 247 q 588 208 532 208 z "},"Ớ":{"ha":1175,"x_min":47,"x_max":1128,"o":"m 588 -19 q 372 18 471 -19 q 201 124 274 56 q 88 285 128 193 q 47 486 47 378 q 88 688 47 596 q 201 849 128 781 q 376 954 275 917 q 599 992 478 992 q 738 983 675 992 q 847 974 800 974 q 923 995 894 974 q 951 1060 951 1017 q 943 1104 951 1083 q 924 1140 935 1125 l 1075 1194 q 1110 1129 1097 1165 q 1124 1049 1124 1093 q 1046 878 1124 936 q 838 819 968 819 q 721 826 776 819 q 614 840 665 833 l 925 881 q 1031 779 986 839 q 1102 645 1076 719 q 1128 486 1128 571 q 1087 284 1128 376 q 974 124 1046 192 q 803 18 901 56 q 588 -19 706 -19 m 588 208 q 691 228 643 208 q 774 284 739 247 q 830 372 810 321 q 850 486 850 424 q 830 600 850 549 q 774 688 810 651 q 691 744 739 725 q 588 764 643 764 q 484 744 532 764 q 401 688 436 725 q 345 601 365 651 q 325 486 325 550 q 345 372 325 424 q 401 284 365 321 q 484 228 436 247 q 588 208 532 208 m 451 1051 l 638 1263 l 901 1263 l 640 1051 l 451 1051 z "},"Ợ":{"ha":1175,"x_min":47,"x_max":1128,"o":"m 588 -19 q 372 18 471 -19 q 201 124 274 56 q 88 285 128 193 q 47 486 47 378 q 88 688 47 596 q 201 849 128 781 q 376 954 275 917 q 599 992 478 992 q 738 983 675 992 q 847 974 800 974 q 923 995 894 974 q 951 1060 951 1017 q 943 1104 951 1083 q 924 1140 935 1125 l 1075 1194 q 1110 1129 1097 1165 q 1124 1049 1124 1093 q 1046 878 1124 936 q 838 819 968 819 q 721 826 776 819 q 614 840 665 833 l 925 881 q 1031 779 986 839 q 1102 645 1076 719 q 1128 486 1128 571 q 1087 284 1128 376 q 974 124 1046 192 q 803 18 901 56 q 588 -19 706 -19 m 588 208 q 691 228 643 208 q 774 284 739 247 q 830 372 810 321 q 850 486 850 424 q 830 600 850 549 q 774 688 810 651 q 691 744 739 725 q 588 764 643 764 q 484 744 532 764 q 401 688 436 725 q 345 601 365 651 q 325 486 325 550 q 345 372 325 424 q 401 284 365 321 q 484 228 436 247 q 588 208 532 208 m 588 -337 q 489 -299 528 -337 q 450 -200 450 -261 q 489 -102 450 -140 q 588 -64 528 -64 q 686 -102 647 -64 q 725 -200 725 -140 q 686 -299 725 -261 q 588 -337 647 -337 z "},"Ờ":{"ha":1175,"x_min":47,"x_max":1128,"o":"m 588 -19 q 372 18 471 -19 q 201 124 274 56 q 88 285 128 193 q 47 486 47 378 q 88 688 47 596 q 201 849 128 781 q 376 954 275 917 q 599 992 478 992 q 738 983 675 992 q 847 974 800 974 q 923 995 894 974 q 951 1060 951 1017 q 943 1104 951 1083 q 924 1140 935 1125 l 1075 1194 q 1110 1129 1097 1165 q 1124 1049 1124 1093 q 1046 878 1124 936 q 838 819 968 819 q 721 826 776 819 q 614 840 665 833 l 925 881 q 1031 779 986 839 q 1102 645 1076 719 q 1128 486 1128 571 q 1087 284 1128 376 q 974 124 1046 192 q 803 18 901 56 q 588 -19 706 -19 m 588 208 q 691 228 643 208 q 774 284 739 247 q 830 372 810 321 q 850 486 850 424 q 830 600 850 549 q 774 688 810 651 q 691 744 739 725 q 588 764 643 764 q 484 744 532 764 q 401 688 436 725 q 345 601 365 651 q 325 486 325 550 q 345 372 325 424 q 401 284 365 321 q 484 228 436 247 q 588 208 532 208 m 535 1051 l 274 1263 l 538 1263 l 724 1051 l 535 1051 z "},"Ở":{"ha":1175,"x_min":47,"x_max":1128,"o":"m 588 -19 q 372 18 471 -19 q 201 124 274 56 q 88 285 128 193 q 47 486 47 378 q 88 688 47 596 q 201 849 128 781 q 376 954 275 917 q 599 992 478 992 q 738 983 675 992 q 847 974 800 974 q 923 995 894 974 q 951 1060 951 1017 q 943 1104 951 1083 q 924 1140 935 1125 l 1075 1194 q 1110 1129 1097 1165 q 1124 1049 1124 1093 q 1046 878 1124 936 q 838 819 968 819 q 721 826 776 819 q 614 840 665 833 l 925 881 q 1031 779 986 839 q 1102 645 1076 719 q 1128 486 1128 571 q 1087 284 1128 376 q 974 124 1046 192 q 803 18 901 56 q 588 -19 706 -19 m 588 208 q 691 228 643 208 q 774 284 739 247 q 830 372 810 321 q 850 486 850 424 q 830 600 850 549 q 774 688 810 651 q 691 744 739 725 q 588 764 643 764 q 484 744 532 764 q 401 688 436 725 q 345 601 365 651 q 325 486 325 550 q 345 372 325 424 q 401 284 365 321 q 484 228 436 247 q 588 208 532 208 m 593 1008 l 511 1089 q 565 1128 551 1108 q 579 1169 579 1147 q 562 1210 579 1194 q 517 1225 544 1225 q 436 1197 476 1225 l 382 1299 q 467 1341 424 1328 q 550 1354 510 1354 q 646 1332 604 1354 q 711 1272 688 1310 q 735 1189 735 1235 q 701 1089 735 1136 q 593 1008 668 1042 z "},"Ỡ":{"ha":1175,"x_min":47,"x_max":1128,"o":"m 588 -19 q 372 18 471 -19 q 201 124 274 56 q 88 285 128 193 q 47 486 47 378 q 88 688 47 596 q 201 849 128 781 q 376 954 275 917 q 599 992 478 992 q 738 983 675 992 q 847 974 800 974 q 923 995 894 974 q 951 1060 951 1017 q 943 1104 951 1083 q 924 1140 935 1125 l 1075 1194 q 1110 1129 1097 1165 q 1124 1049 1124 1093 q 1046 878 1124 936 q 838 819 968 819 q 721 826 776 819 q 614 840 665 833 l 925 881 q 1031 779 986 839 q 1102 645 1076 719 q 1128 486 1128 571 q 1087 284 1128 376 q 974 124 1046 192 q 803 18 901 56 q 588 -19 706 -19 m 588 208 q 691 228 643 208 q 774 284 739 247 q 830 372 810 321 q 850 486 850 424 q 830 600 850 549 q 774 688 810 651 q 691 744 739 725 q 588 764 643 764 q 484 744 532 764 q 401 688 436 725 q 345 601 365 651 q 325 486 325 550 q 345 372 325 424 q 401 284 365 321 q 484 228 436 247 q 588 208 532 208 m 699 1040 q 631 1053 661 1040 q 578 1084 601 1067 q 533 1115 554 1101 q 492 1128 513 1128 q 448 1107 465 1128 q 428 1053 431 1086 l 296 1053 q 346 1215 299 1153 q 476 1278 393 1278 q 544 1265 515 1278 q 598 1234 574 1251 q 643 1203 622 1217 q 683 1190 664 1190 q 728 1210 711 1190 q 747 1263 746 1231 l 878 1263 q 829 1102 876 1164 q 699 1040 782 1040 z "},"Ő":{"ha":1175,"x_min":47,"x_max":1128,"o":"m 588 -19 q 372 18 471 -19 q 201 124 274 56 q 88 285 128 193 q 47 486 47 376 q 88 688 47 596 q 201 848 128 779 q 372 954 274 917 q 588 992 471 992 q 803 954 706 992 q 974 848 901 917 q 1087 688 1046 779 q 1128 486 1128 596 q 1087 284 1128 376 q 974 124 1046 192 q 803 18 901 56 q 588 -19 706 -19 m 588 208 q 691 228 643 208 q 774 284 739 247 q 830 372 810 321 q 850 486 850 424 q 830 601 850 550 q 774 688 810 651 q 691 744 739 725 q 588 764 643 764 q 484 744 532 764 q 401 688 436 725 q 345 601 365 651 q 325 486 325 550 q 345 372 325 424 q 401 284 365 321 q 484 228 436 247 q 588 208 532 208 m 647 1051 l 733 1263 l 969 1263 l 831 1051 l 647 1051 m 344 1051 l 432 1263 l 668 1263 l 528 1051 l 344 1051 z "},"Ȏ":{"ha":1175,"x_min":47,"x_max":1128,"o":"m 588 -19 q 372 18 471 -19 q 201 124 274 56 q 88 285 128 193 q 47 486 47 376 q 88 688 47 596 q 201 848 128 779 q 372 954 274 917 q 588 992 471 992 q 803 954 706 992 q 974 848 901 917 q 1087 688 1046 779 q 1128 486 1128 596 q 1087 284 1128 376 q 974 124 1046 192 q 803 18 901 56 q 588 -19 706 -19 m 588 208 q 691 228 643 208 q 774 284 739 247 q 830 372 810 321 q 850 486 850 424 q 830 601 850 550 q 774 688 810 651 q 691 744 739 725 q 588 764 643 764 q 484 744 532 764 q 401 688 436 725 q 345 601 365 651 q 325 486 325 550 q 345 372 325 424 q 401 284 365 321 q 484 228 436 247 q 588 208 532 208 m 315 1051 q 395 1215 319 1156 q 588 1275 471 1275 q 780 1215 704 1275 q 860 1051 856 1156 l 699 1051 q 665 1118 697 1093 q 588 1143 633 1143 q 510 1118 542 1143 q 476 1051 479 1093 l 315 1051 z "},"Ō":{"ha":1175,"x_min":47,"x_max":1128,"o":"m 588 -19 q 372 18 471 -19 q 201 124 274 56 q 88 285 128 193 q 47 486 47 376 q 88 688 47 596 q 201 848 128 779 q 372 954 274 917 q 588 992 471 992 q 803 954 706 992 q 974 848 901 917 q 1087 688 1046 779 q 1128 486 1128 596 q 1087 284 1128 376 q 974 124 1046 192 q 803 18 901 56 q 588 -19 706 -19 m 588 208 q 691 228 643 208 q 774 284 739 247 q 830 372 810 321 q 850 486 850 424 q 830 601 850 550 q 774 688 810 651 q 691 744 739 725 q 588 764 643 764 q 484 744 532 764 q 401 688 436 725 q 345 601 365 651 q 325 486 325 550 q 345 372 325 424 q 401 284 365 321 q 484 228 436 247 q 588 208 532 208 m 314 1086 l 314 1228 l 861 1228 l 861 1086 l 314 1086 z "},"Ṓ":{"ha":1175,"x_min":47,"x_max":1128,"o":"m 588 -19 q 372 18 471 -19 q 201 124 274 56 q 88 285 128 193 q 47 486 47 376 q 88 688 47 596 q 201 848 128 779 q 372 954 274 917 q 588 992 471 992 q 803 954 706 992 q 974 848 901 917 q 1087 688 1046 779 q 1128 486 1128 596 q 1087 284 1128 376 q 974 124 1046 192 q 803 18 901 56 q 588 -19 706 -19 m 588 208 q 691 228 643 208 q 774 284 739 247 q 830 372 810 321 q 850 486 850 424 q 830 601 850 550 q 774 688 810 651 q 691 744 739 725 q 588 764 643 764 q 484 744 532 764 q 401 688 436 725 q 345 601 365 651 q 325 486 325 550 q 345 372 325 424 q 401 284 365 321 q 484 228 436 247 q 588 208 532 208 m 314 1071 l 314 1206 l 861 1206 l 861 1071 l 314 1071 m 438 1294 l 585 1468 l 843 1468 l 619 1294 l 438 1294 z "},"Ṑ":{"ha":1175,"x_min":47,"x_max":1128,"o":"m 588 -19 q 372 18 471 -19 q 201 124 274 56 q 88 285 128 193 q 47 486 47 376 q 88 688 47 596 q 201 848 128 779 q 372 954 274 917 q 588 992 471 992 q 803 954 706 992 q 974 848 901 917 q 1087 688 1046 779 q 1128 486 1128 596 q 1087 284 1128 376 q 974 124 1046 192 q 803 18 901 56 q 588 -19 706 -19 m 588 208 q 691 228 643 208 q 774 284 739 247 q 830 372 810 321 q 850 486 850 424 q 830 601 850 550 q 774 688 810 651 q 691 744 739 725 q 588 764 643 764 q 484 744 532 764 q 401 688 436 725 q 345 601 365 651 q 325 486 325 550 q 345 372 325 424 q 401 284 365 321 q 484 228 436 247 q 588 208 532 208 m 314 1071 l 314 1206 l 861 1206 l 861 1071 l 314 1071 m 558 1294 l 333 1468 l 592 1468 l 739 1294 l 558 1294 z "},"Ꞷ":{"ha":1464,"x_min":57,"x_max":1407,"o":"m 442 -18 q 265 26 338 -18 q 146 144 192 69 q 78 310 100 218 q 57 501 57 403 q 91 760 57 633 q 183 972 125 886 l 451 972 q 392 831 418 914 q 349 658 365 747 q 333 485 333 568 q 349 346 333 408 q 397 245 364 283 q 483 207 431 207 q 546 228 521 207 q 583 288 571 249 q 596 381 596 326 l 596 640 l 863 640 l 863 381 q 875 288 863 326 q 913 228 888 249 q 975 207 938 207 q 1063 245 1031 207 q 1110 347 1094 283 q 1125 485 1125 410 q 1109 658 1125 568 q 1067 830 1093 747 q 1008 972 1042 913 l 1275 972 q 1344 838 1315 915 q 1390 675 1374 761 q 1407 500 1407 589 q 1385 310 1407 401 q 1316 144 1363 218 q 1195 26 1269 69 q 1017 -18 1121 -18 q 837 24 914 -18 q 715 138 760 65 q 665 304 671 211 l 793 304 q 744 140 789 213 q 623 24 700 67 q 442 -18 546 -18 z "},"Ǫ":{"ha":1175,"x_min":47,"x_max":1128,"o":"m 626 -328 q 475 -283 529 -328 q 421 -165 421 -237 q 445 -74 421 -117 q 519 3 469 -32 q 643 63 569 38 l 657 -15 q 618 -18 635 -17 q 588 -19 601 -19 q 372 18 471 -19 q 201 124 274 56 q 88 284 128 192 q 47 486 47 376 q 88 688 47 596 q 201 849 128 781 q 372 954 274 917 q 588 992 471 992 q 803 954 706 992 q 974 849 901 917 q 1087 688 1046 781 q 1128 486 1128 596 q 1080 269 1128 365 q 951 106 1032 172 q 768 7 869 40 q 658 -38 700 -14 q 599 -88 617 -62 q 581 -142 581 -114 q 600 -185 581 -168 q 657 -203 619 -203 q 702 -197 681 -203 q 740 -182 724 -190 l 774 -296 q 708 -319 749 -310 q 626 -328 668 -328 m 588 208 q 691 228 643 208 q 774 284 739 247 q 830 372 810 321 q 850 486 850 424 q 830 601 850 550 q 774 688 810 651 q 691 744 739 725 q 588 764 643 764 q 484 744 532 764 q 401 688 436 725 q 345 601 365 651 q 325 486 325 550 q 345 372 325 424 q 401 284 365 321 q 484 228 436 247 q 588 208 532 208 z "},"Ǭ":{"ha":1175,"x_min":47,"x_max":1128,"o":"m 626 -328 q 475 -283 529 -328 q 421 -165 421 -237 q 445 -74 421 -117 q 519 3 469 -32 q 643 63 569 38 l 657 -15 q 618 -18 635 -17 q 588 -19 601 -19 q 372 18 471 -19 q 201 124 274 56 q 88 284 128 192 q 47 486 47 376 q 88 688 47 596 q 201 849 128 781 q 372 954 274 917 q 588 992 471 992 q 803 954 706 992 q 974 849 901 917 q 1087 688 1046 781 q 1128 486 1128 596 q 1080 269 1128 365 q 951 106 1032 172 q 768 7 869 40 q 658 -38 700 -14 q 599 -88 617 -62 q 581 -142 581 -114 q 600 -185 581 -168 q 657 -203 619 -203 q 702 -197 681 -203 q 740 -182 724 -190 l 774 -296 q 708 -319 749 -310 q 626 -328 668 -328 m 588 208 q 691 228 643 208 q 774 284 739 247 q 830 372 810 321 q 850 486 850 424 q 830 601 850 550 q 774 688 810 651 q 691 744 739 725 q 588 764 643 764 q 484 744 532 764 q 401 688 436 725 q 345 601 365 651 q 325 486 325 550 q 345 372 325 424 q 401 284 365 321 q 484 228 436 247 q 588 208 532 208 m 314 1086 l 314 1228 l 861 1228 l 861 1086 l 314 1086 z "},"Ɔ":{"ha":1014,"x_min":15,"x_max":967,"o":"m 432 992 q 645 955 547 992 q 815 850 743 918 q 927 690 888 782 q 967 486 967 597 q 927 283 967 375 q 815 122 888 190 q 645 17 743 54 q 432 -19 547 -19 q 191 28 297 -19 q 15 164 85 76 l 189 322 q 293 238 236 267 q 418 208 350 208 q 528 228 479 208 q 613 284 578 247 q 669 372 649 321 q 689 486 689 424 q 669 600 689 549 q 613 688 649 651 q 528 744 578 725 q 418 764 479 764 q 293 735 350 764 q 189 650 236 706 l 15 808 q 191 944 85 897 q 432 992 297 992 z "},"Ø":{"ha":1175,"x_min":47,"x_max":1128,"o":"m 588 -19 q 372 18 471 -19 q 201 124 274 56 q 88 285 128 193 q 47 486 47 376 q 88 688 47 596 q 201 848 128 779 q 372 954 274 917 q 588 992 471 992 q 803 954 706 992 q 974 848 901 917 q 1087 688 1046 779 q 1128 486 1128 596 q 1087 284 1128 376 q 974 124 1046 192 q 803 18 901 56 q 588 -19 706 -19 m 588 208 q 691 228 643 208 q 774 284 739 247 q 830 372 810 321 q 850 486 850 424 q 830 601 850 550 q 774 688 810 651 q 691 744 739 725 q 588 764 643 764 q 484 744 532 764 q 401 688 436 725 q 345 601 365 651 q 325 486 325 550 q 345 372 325 424 q 401 284 365 321 q 484 228 436 247 q 588 208 532 208 m 190 -97 l 825 1069 l 986 1069 l 351 -97 l 190 -97 z "},"Ǿ":{"ha":1175,"x_min":47,"x_max":1128,"o":"m 588 -19 q 372 18 471 -19 q 201 124 274 56 q 88 285 128 193 q 47 486 47 376 q 88 688 47 596 q 201 848 128 779 q 372 954 274 917 q 588 992 471 992 q 803 954 706 992 q 974 848 901 917 q 1087 688 1046 779 q 1128 486 1128 596 q 1087 284 1128 376 q 974 124 1046 192 q 803 18 901 56 q 588 -19 706 -19 m 588 208 q 691 228 643 208 q 774 284 739 247 q 830 372 810 321 q 850 486 850 424 q 830 601 850 550 q 774 688 810 651 q 691 744 739 725 q 588 764 643 764 q 484 744 532 764 q 401 688 436 725 q 345 601 365 651 q 325 486 325 550 q 345 372 325 424 q 401 284 365 321 q 484 228 436 247 q 588 208 532 208 m 190 -97 l 825 1069 l 986 1069 l 351 -97 l 190 -97 m 451 1051 l 638 1263 l 901 1263 l 640 1051 l 451 1051 z "},"Õ":{"ha":1175,"x_min":47,"x_max":1128,"o":"m 588 -19 q 372 18 471 -19 q 201 124 274 56 q 88 285 128 193 q 47 486 47 376 q 88 688 47 596 q 201 848 128 779 q 372 954 274 917 q 588 992 471 992 q 803 954 706 992 q 974 848 901 917 q 1087 688 1046 779 q 1128 486 1128 596 q 1087 284 1128 376 q 974 124 1046 192 q 803 18 901 56 q 588 -19 706 -19 m 588 208 q 691 228 643 208 q 774 284 739 247 q 830 372 810 321 q 850 486 850 424 q 830 601 850 550 q 774 688 810 651 q 691 744 739 725 q 588 764 643 764 q 484 744 532 764 q 401 688 436 725 q 345 601 365 651 q 325 486 325 550 q 345 372 325 424 q 401 284 365 321 q 484 228 436 247 q 588 208 532 208 m 699 1040 q 631 1053 661 1040 q 578 1084 601 1067 q 533 1115 554 1101 q 492 1128 513 1128 q 448 1107 465 1128 q 428 1053 431 1086 l 296 1053 q 346 1215 299 1153 q 476 1278 393 1278 q 544 1265 515 1278 q 598 1234 574 1251 q 643 1203 622 1217 q 683 1190 664 1190 q 728 1210 711 1190 q 747 1263 746 1231 l 878 1263 q 829 1102 876 1164 q 699 1040 782 1040 z "},"Ṍ":{"ha":1175,"x_min":47,"x_max":1128,"o":"m 588 -19 q 372 18 471 -19 q 201 124 274 56 q 88 285 128 193 q 47 486 47 376 q 88 688 47 596 q 201 848 128 779 q 372 954 274 917 q 588 992 471 992 q 803 954 706 992 q 974 848 901 917 q 1087 688 1046 779 q 1128 486 1128 596 q 1087 284 1128 376 q 974 124 1046 192 q 803 18 901 56 q 588 -19 706 -19 m 588 208 q 691 228 643 208 q 774 284 739 247 q 830 372 810 321 q 850 486 850 424 q 830 601 850 550 q 774 688 810 651 q 691 744 739 725 q 588 764 643 764 q 484 744 532 764 q 401 688 436 725 q 345 601 365 651 q 325 486 325 550 q 345 372 325 424 q 401 284 365 321 q 484 228 436 247 q 588 208 532 208 m 696 1043 q 627 1054 656 1043 q 578 1080 599 1065 q 538 1106 557 1094 q 500 1117 519 1117 q 458 1099 474 1117 q 440 1054 443 1082 l 308 1054 q 356 1190 310 1142 q 481 1239 403 1239 q 567 1221 533 1239 q 627 1184 601 1203 q 679 1165 653 1165 q 722 1183 706 1165 q 739 1228 738 1201 l 867 1228 q 820 1092 865 1140 q 696 1043 775 1043 m 456 1290 l 603 1464 l 861 1464 l 638 1290 l 456 1290 z "},"Ṏ":{"ha":1175,"x_min":47,"x_max":1128,"o":"m 588 -19 q 372 18 471 -19 q 201 124 274 56 q 88 285 128 193 q 47 486 47 376 q 88 688 47 596 q 201 848 128 779 q 372 954 274 917 q 588 992 471 992 q 803 954 706 992 q 974 848 901 917 q 1087 688 1046 779 q 1128 486 1128 596 q 1087 284 1128 376 q 974 124 1046 192 q 803 18 901 56 q 588 -19 706 -19 m 588 208 q 691 228 643 208 q 774 284 739 247 q 830 372 810 321 q 850 486 850 424 q 830 601 850 550 q 774 688 810 651 q 691 744 739 725 q 588 764 643 764 q 484 744 532 764 q 401 688 436 725 q 345 601 365 651 q 325 486 325 550 q 345 372 325 424 q 401 284 365 321 q 484 228 436 247 q 588 208 532 208 m 696 1043 q 627 1054 656 1043 q 578 1080 599 1065 q 538 1106 557 1094 q 500 1117 519 1117 q 458 1099 474 1117 q 440 1054 443 1082 l 308 1054 q 356 1190 310 1142 q 481 1239 403 1239 q 567 1221 533 1239 q 627 1184 601 1203 q 679 1165 653 1165 q 722 1183 706 1165 q 739 1228 738 1201 l 867 1228 q 820 1092 865 1140 q 696 1043 775 1043 m 729 1286 q 655 1315 685 1286 q 625 1389 625 1344 q 655 1465 625 1436 q 729 1493 685 1493 q 803 1465 774 1493 q 833 1389 833 1436 q 803 1315 833 1344 q 729 1286 774 1286 m 446 1286 q 372 1315 403 1286 q 342 1389 342 1344 q 372 1465 342 1436 q 446 1493 403 1493 q 521 1465 490 1493 q 551 1389 551 1436 q 521 1315 551 1344 q 446 1286 490 1286 z "},"Ȭ":{"ha":1175,"x_min":47,"x_max":1128,"o":"m 588 -19 q 372 18 471 -19 q 201 124 274 56 q 88 285 128 193 q 47 486 47 376 q 88 688 47 596 q 201 848 128 779 q 372 954 274 917 q 588 992 471 992 q 803 954 706 992 q 974 848 901 917 q 1087 688 1046 779 q 1128 486 1128 596 q 1087 284 1128 376 q 974 124 1046 192 q 803 18 901 56 q 588 -19 706 -19 m 588 208 q 691 228 643 208 q 774 284 739 247 q 830 372 810 321 q 850 486 850 424 q 830 601 850 550 q 774 688 810 651 q 691 744 739 725 q 588 764 643 764 q 484 744 532 764 q 401 688 436 725 q 345 601 365 651 q 325 486 325 550 q 345 372 325 424 q 401 284 365 321 q 484 228 436 247 q 588 208 532 208 m 696 1043 q 627 1054 656 1043 q 578 1080 599 1065 q 538 1106 557 1094 q 500 1117 519 1117 q 458 1099 474 1117 q 440 1054 443 1082 l 308 1054 q 356 1190 310 1142 q 481 1239 403 1239 q 567 1221 533 1239 q 627 1184 601 1203 q 679 1165 653 1165 q 722 1183 706 1165 q 739 1228 738 1201 l 867 1228 q 820 1092 865 1140 q 696 1043 775 1043 m 314 1325 l 314 1460 l 861 1460 l 861 1325 l 314 1325 z "},"Œ":{"ha":1586,"x_min":47,"x_max":1531,"o":"m 590 0 q 307 60 429 0 q 116 228 185 119 q 47 486 47 338 q 116 744 47 635 q 307 913 185 853 q 590 972 429 972 l 821 972 l 821 753 l 601 753 q 457 722 519 753 q 360 631 394 690 q 325 486 325 571 q 360 342 325 403 q 457 251 394 282 q 601 219 519 219 l 821 219 l 821 0 l 590 0 m 751 0 l 751 972 l 1513 972 l 1513 760 l 1022 760 l 1022 213 l 1531 213 l 1531 0 l 751 0 m 1003 390 l 1003 596 l 1454 596 l 1454 390 l 1003 390 z "},"P":{"ha":1024,"x_min":97,"x_max":974,"o":"m 97 0 l 97 972 l 542 972 q 772 929 675 972 q 921 805 868 886 q 974 613 974 724 q 921 422 974 503 q 772 298 868 342 q 542 254 675 254 l 250 254 l 372 374 l 372 0 l 97 0 m 372 344 l 250 471 l 525 471 q 653 508 611 471 q 696 613 696 546 q 653 718 696 681 q 525 756 611 756 l 250 756 l 372 882 l 372 344 z "},"Ṕ":{"ha":1024,"x_min":97,"x_max":974,"o":"m 97 0 l 97 972 l 542 972 q 772 929 675 972 q 921 805 868 886 q 974 613 974 724 q 921 422 974 503 q 772 298 868 342 q 542 254 675 254 l 250 254 l 372 374 l 372 0 l 97 0 m 372 344 l 250 471 l 525 471 q 653 508 611 471 q 696 613 696 546 q 653 718 696 681 q 525 756 611 756 l 250 756 l 372 882 l 372 344 m 376 1051 l 563 1263 l 826 1263 l 565 1051 l 376 1051 z "},"Ṗ":{"ha":1024,"x_min":97,"x_max":974,"o":"m 97 0 l 97 972 l 542 972 q 772 929 675 972 q 921 805 868 886 q 974 613 974 724 q 921 422 974 503 q 772 298 868 342 q 542 254 675 254 l 250 254 l 372 374 l 372 0 l 97 0 m 372 344 l 250 471 l 525 471 q 653 508 611 471 q 696 613 696 546 q 653 718 696 681 q 525 756 611 756 l 250 756 l 372 882 l 372 344 m 513 1049 q 414 1087 453 1049 q 375 1186 375 1125 q 414 1284 375 1246 q 513 1322 453 1322 q 611 1284 572 1322 q 650 1186 650 1246 q 611 1087 650 1125 q 513 1049 572 1049 z "},"Ƥ":{"ha":1329,"x_min":18,"x_max":1279,"o":"m 101 464 q 38 591 57 522 q 26 727 18 660 q 72 850 35 794 q 180 939 110 906 q 354 972 250 972 l 413 972 l 413 754 l 350 754 q 294 738 315 754 q 268 693 274 721 q 272 632 263 665 q 306 564 281 599 l 101 464 m 403 0 l 403 972 l 847 972 q 1077 929 981 972 q 1226 805 1174 886 q 1279 613 1279 724 q 1226 422 1279 503 q 1077 298 1174 342 q 847 254 981 254 l 556 254 l 678 374 l 678 0 l 403 0 m 678 344 l 556 471 l 831 471 q 959 508 917 471 q 1001 613 1001 546 q 959 718 1001 681 q 831 756 917 756 l 556 756 l 678 882 l 678 344 z "},"Þ":{"ha":1024,"x_min":97,"x_max":974,"o":"m 315 153 l 315 371 l 525 371 q 653 408 611 371 q 696 513 696 446 q 653 617 696 579 q 525 654 611 654 l 315 654 l 315 872 l 542 872 q 772 828 675 872 q 921 704 868 785 q 974 513 974 624 q 921 322 974 403 q 772 197 868 240 q 542 153 675 153 l 315 153 m 97 0 l 97 974 l 372 974 l 372 0 l 97 0 z "},"Ᵽ":{"ha":1031,"x_min":-6,"x_max":981,"o":"m 106 0 l 106 972 l 549 972 q 779 929 682 972 q 928 805 876 886 q 981 613 981 724 q 928 422 981 503 q 779 298 876 342 q 549 254 682 254 l 257 254 l 381 374 l 381 0 l 106 0 m -6 531 l -6 697 l 536 697 l 536 531 l -6 531 m 381 344 l 257 461 l 532 461 q 660 501 617 461 q 704 613 704 540 q 660 725 704 686 q 532 764 617 764 l 257 764 l 381 882 l 381 344 z "},"Q":{"ha":1175,"x_min":47,"x_max":1178,"o":"m 588 -19 q 372 18 471 -19 q 201 124 274 56 q 88 285 128 193 q 47 486 47 376 q 88 688 47 596 q 201 848 128 779 q 372 954 274 917 q 588 992 471 992 q 803 954 706 992 q 974 849 901 917 q 1087 688 1046 781 q 1128 486 1128 596 q 1087 284 1128 376 q 974 124 1046 192 q 803 18 901 56 q 588 -19 706 -19 m 906 -235 q 789 -222 843 -235 q 683 -179 735 -208 q 574 -100 631 -150 q 449 24 518 -50 l 736 96 q 799 15 771 44 q 853 -26 826 -14 q 911 -39 881 -39 q 1058 29 992 -39 l 1178 -112 q 906 -235 1076 -235 m 588 208 q 691 228 643 208 q 774 284 739 247 q 830 372 810 321 q 850 486 850 424 q 830 601 850 550 q 774 688 810 651 q 691 744 739 725 q 588 764 643 764 q 484 744 532 764 q 401 688 436 725 q 345 601 365 651 q 325 486 325 550 q 345 372 325 424 q 401 284 365 321 q 484 228 436 247 q 588 208 532 208 z "},"Ɋ":{"ha":1218,"x_min":47,"x_max":1304,"o":"m 538 -19 q 346 18 435 -19 q 190 124 257 56 q 85 285 124 193 q 47 486 47 376 q 85 688 47 596 q 190 848 124 779 q 346 954 257 917 q 538 992 435 992 q 723 954 640 992 q 866 849 806 917 q 959 688 926 781 q 992 486 992 596 q 959 284 992 376 q 866 124 926 192 q 723 18 806 56 q 538 -19 640 -19 m 588 208 q 694 228 646 208 q 776 284 742 247 q 831 372 811 321 q 850 486 850 424 q 831 600 850 549 q 778 688 813 651 q 694 744 743 725 q 588 764 646 764 q 481 744 529 764 q 397 688 432 725 q 344 600 363 651 q 325 486 325 549 q 344 372 325 424 q 397 284 363 321 q 481 228 432 247 q 588 208 529 208 m 1304 -256 q 1143 -287 1225 -286 q 993 -257 1061 -287 q 883 -162 925 -226 q 840 3 840 -97 l 840 221 l 872 486 l 847 790 l 840 972 l 1115 972 l 1115 4 q 1133 -49 1115 -29 q 1181 -74 1151 -69 q 1244 -65 1210 -78 l 1304 -256 z "},"R":{"ha":1028,"x_min":97,"x_max":993,"o":"m 97 0 l 97 972 l 532 972 q 859 876 744 972 q 974 613 974 779 q 921 423 974 503 q 772 301 868 343 q 542 258 675 258 l 250 258 l 372 374 l 372 0 l 97 0 m 699 0 l 457 354 l 750 354 l 993 0 l 699 0 m 372 344 l 250 471 l 525 471 q 653 508 611 471 q 696 613 696 546 q 653 718 696 681 q 525 756 611 756 l 250 756 l 372 882 l 372 344 z "},"Ŕ":{"ha":1028,"x_min":97,"x_max":993,"o":"m 97 0 l 97 972 l 532 972 q 859 876 744 972 q 974 613 974 779 q 921 423 974 503 q 772 301 868 343 q 542 258 675 258 l 250 258 l 372 374 l 372 0 l 97 0 m 699 0 l 457 354 l 750 354 l 993 0 l 699 0 m 372 344 l 250 471 l 525 471 q 653 508 611 471 q 696 613 696 546 q 653 718 696 681 q 525 756 611 756 l 250 756 l 372 882 l 372 344 m 372 1051 l 558 1263 l 822 1263 l 561 1051 l 372 1051 z "},"Ř":{"ha":1028,"x_min":97,"x_max":993,"o":"m 97 0 l 97 972 l 532 972 q 859 876 744 972 q 974 613 974 779 q 921 423 974 503 q 772 301 868 343 q 542 258 675 258 l 250 258 l 372 374 l 372 0 l 97 0 m 699 0 l 457 354 l 750 354 l 993 0 l 699 0 m 372 344 l 250 471 l 525 471 q 653 508 611 471 q 696 613 696 546 q 653 718 696 681 q 525 756 611 756 l 250 756 l 372 882 l 372 344 m 394 1051 l 214 1263 l 389 1263 l 585 1090 l 432 1090 l 628 1263 l 803 1263 l 622 1051 l 394 1051 z "},"Ŗ":{"ha":1028,"x_min":97,"x_max":993,"o":"m 97 0 l 97 972 l 532 972 q 859 876 744 972 q 974 613 974 779 q 921 423 974 503 q 772 301 868 343 q 542 258 675 258 l 250 258 l 372 374 l 372 0 l 97 0 m 699 0 l 457 354 l 750 354 l 993 0 l 699 0 m 372 344 l 250 471 l 525 471 q 653 508 611 471 q 696 613 696 546 q 653 718 696 681 q 525 756 611 756 l 250 756 l 372 882 l 372 344 m 418 -368 l 479 -178 l 508 -265 q 426 -241 454 -265 q 399 -175 399 -217 q 428 -108 399 -133 q 508 -82 457 -82 q 589 -108 560 -82 q 618 -175 618 -133 q 613 -217 618 -193 q 589 -275 607 -242 l 538 -368 l 418 -368 z "},"Ȑ":{"ha":1028,"x_min":97,"x_max":993,"o":"m 97 0 l 97 972 l 532 972 q 859 876 744 972 q 974 613 974 779 q 921 423 974 503 q 772 301 868 343 q 542 258 675 258 l 250 258 l 372 374 l 372 0 l 97 0 m 699 0 l 457 354 l 750 354 l 993 0 l 699 0 m 372 344 l 250 471 l 525 471 q 653 508 611 471 q 696 613 696 546 q 653 718 696 681 q 525 756 611 756 l 250 756 l 372 882 l 372 344 m 568 1051 l 428 1263 l 664 1263 l 751 1051 l 568 1051 m 265 1051 l 126 1263 l 363 1263 l 449 1051 l 265 1051 z "},"Ṙ":{"ha":1028,"x_min":97,"x_max":993,"o":"m 97 0 l 97 972 l 532 972 q 859 876 744 972 q 974 613 974 779 q 921 423 974 503 q 772 301 868 343 q 542 258 675 258 l 250 258 l 372 374 l 372 0 l 97 0 m 699 0 l 457 354 l 750 354 l 993 0 l 699 0 m 372 344 l 250 471 l 525 471 q 653 508 611 471 q 696 613 696 546 q 653 718 696 681 q 525 756 611 756 l 250 756 l 372 882 l 372 344 m 508 1049 q 410 1087 449 1049 q 371 1186 371 1125 q 410 1284 371 1246 q 508 1322 449 1322 q 607 1284 568 1322 q 646 1186 646 1246 q 607 1087 646 1125 q 508 1049 568 1049 z "},"Ṛ":{"ha":1028,"x_min":97,"x_max":993,"o":"m 97 0 l 97 972 l 532 972 q 859 876 744 972 q 974 613 974 779 q 921 423 974 503 q 772 301 868 343 q 542 258 675 258 l 250 258 l 372 374 l 372 0 l 97 0 m 699 0 l 457 354 l 750 354 l 993 0 l 699 0 m 372 344 l 250 471 l 525 471 q 653 508 611 471 q 696 613 696 546 q 653 718 696 681 q 525 756 611 756 l 250 756 l 372 882 l 372 344 m 508 -337 q 410 -299 449 -337 q 371 -200 371 -261 q 410 -102 371 -140 q 508 -64 449 -64 q 607 -102 568 -64 q 646 -200 646 -140 q 607 -299 646 -261 q 508 -337 568 -337 z "},"Ṝ":{"ha":1028,"x_min":97,"x_max":993,"o":"m 97 0 l 97 972 l 532 972 q 859 876 744 972 q 974 613 974 779 q 921 423 974 503 q 772 301 868 343 q 542 258 675 258 l 250 258 l 372 374 l 372 0 l 97 0 m 699 0 l 457 354 l 750 354 l 993 0 l 699 0 m 372 344 l 250 471 l 525 471 q 653 508 611 471 q 696 613 696 546 q 653 718 696 681 q 525 756 611 756 l 250 756 l 372 882 l 372 344 m 508 -337 q 410 -299 449 -337 q 371 -200 371 -261 q 410 -102 371 -140 q 508 -64 449 -64 q 607 -102 568 -64 q 646 -200 646 -140 q 607 -299 646 -261 q 508 -337 568 -337 m 235 1086 l 235 1228 l 782 1228 l 782 1086 l 235 1086 z "},"Ȓ":{"ha":1028,"x_min":97,"x_max":993,"o":"m 97 0 l 97 972 l 532 972 q 859 876 744 972 q 974 613 974 779 q 921 423 974 503 q 772 301 868 343 q 542 258 675 258 l 250 258 l 372 374 l 372 0 l 97 0 m 699 0 l 457 354 l 750 354 l 993 0 l 699 0 m 372 344 l 250 471 l 525 471 q 653 508 611 471 q 696 613 696 546 q 653 718 696 681 q 525 756 611 756 l 250 756 l 372 882 l 372 344 m 236 1051 q 316 1215 240 1156 q 508 1275 392 1275 q 701 1215 625 1275 q 781 1051 776 1156 l 619 1051 q 586 1118 618 1093 q 508 1143 554 1143 q 431 1118 463 1143 q 397 1051 400 1093 l 236 1051 z "},"Ṟ":{"ha":1028,"x_min":97,"x_max":993,"o":"m 97 0 l 97 972 l 532 972 q 859 876 744 972 q 974 613 974 779 q 921 423 974 503 q 772 301 868 343 q 542 258 675 258 l 250 258 l 372 374 l 372 0 l 97 0 m 699 0 l 457 354 l 750 354 l 993 0 l 699 0 m 372 344 l 250 471 l 525 471 q 653 508 611 471 q 696 613 696 546 q 653 718 696 681 q 525 756 611 756 l 250 756 l 372 882 l 372 344 m 235 -257 l 235 -115 l 782 -115 l 782 -257 l 235 -257 z "},"Ɍ":{"ha":1028,"x_min":-12,"x_max":993,"o":"m 97 0 l 97 972 l 532 972 q 859 876 744 972 q 974 613 974 779 q 921 423 974 503 q 772 301 868 343 q 542 258 675 258 l 250 258 l 372 374 l 372 0 l 97 0 m 699 0 l 457 354 l 750 354 l 993 0 l 699 0 m 372 344 l 250 471 l 525 471 q 653 508 611 471 q 696 613 696 546 q 653 718 696 681 q 525 756 611 756 l 250 756 l 372 882 l 372 344 m -12 301 l -12 471 l 526 471 l 526 301 l -12 301 z "},"Ɽ":{"ha":1051,"x_min":111,"x_max":1007,"o":"m 618 -239 q 447 -285 536 -278 q 282 -265 358 -293 q 158 -171 206 -236 q 111 3 111 -106 l 111 972 l 556 972 q 785 929 689 972 q 935 805 882 886 q 988 613 988 724 q 935 423 988 503 q 785 301 882 343 q 556 258 689 258 l 322 258 l 386 326 l 386 4 q 400 -45 386 -26 q 437 -72 414 -64 q 489 -74 460 -79 q 549 -51 518 -68 l 618 -239 m 713 0 l 471 354 l 764 354 l 1007 0 l 713 0 m 386 392 l 322 471 l 539 471 q 667 508 625 471 q 710 613 710 546 q 667 718 710 681 q 539 756 625 756 l 322 756 l 386 835 l 386 392 z "},"S":{"ha":899,"x_min":29,"x_max":869,"o":"m 439 -19 q 209 10 319 -19 q 29 88 99 40 l 119 290 q 270 222 185 249 q 440 194 356 194 q 532 205 497 194 q 583 233 567 215 q 599 274 599 250 q 568 326 599 307 q 489 358 538 346 q 381 383 440 371 q 263 415 322 396 q 156 466 204 435 q 76 548 107 497 q 46 676 46 599 q 94 835 46 764 q 238 949 142 906 q 476 992 333 992 q 665 970 572 992 q 829 907 757 949 l 744 703 q 607 759 675 740 q 475 778 539 778 q 383 766 418 778 q 333 735 349 754 q 318 690 318 715 q 348 640 318 658 q 427 609 378 621 q 535 585 476 597 q 653 553 594 572 q 761 503 713 535 q 840 422 810 472 q 869 294 869 371 q 822 138 869 210 q 678 24 774 67 q 439 -19 583 -19 z "},"Ś":{"ha":899,"x_min":29,"x_max":869,"o":"m 439 -19 q 209 10 319 -19 q 29 88 99 40 l 119 290 q 270 222 185 249 q 440 194 356 194 q 532 205 497 194 q 583 233 567 215 q 599 274 599 250 q 568 326 599 307 q 489 358 538 346 q 381 383 440 371 q 263 415 322 396 q 156 466 204 435 q 76 548 107 497 q 46 676 46 599 q 94 835 46 764 q 238 949 142 906 q 476 992 333 992 q 665 970 572 992 q 829 907 757 949 l 744 703 q 607 759 675 740 q 475 778 539 778 q 383 766 418 778 q 333 735 349 754 q 318 690 318 715 q 348 640 318 658 q 427 609 378 621 q 535 585 476 597 q 653 553 594 572 q 761 503 713 535 q 840 422 810 472 q 869 294 869 371 q 822 138 869 210 q 678 24 774 67 q 439 -19 583 -19 m 318 1051 l 504 1263 l 768 1263 l 507 1051 l 318 1051 z "},"Ṥ":{"ha":899,"x_min":29,"x_max":869,"o":"m 439 -19 q 209 10 319 -19 q 29 88 99 40 l 119 290 q 270 222 185 249 q 440 194 356 194 q 532 205 497 194 q 583 233 567 215 q 599 274 599 250 q 568 326 599 307 q 489 358 538 346 q 381 383 440 371 q 263 415 322 396 q 156 466 204 435 q 76 548 107 497 q 46 676 46 599 q 94 835 46 764 q 238 949 142 906 q 476 992 333 992 q 665 970 572 992 q 829 907 757 949 l 744 703 q 607 759 675 740 q 475 778 539 778 q 383 766 418 778 q 333 735 349 754 q 318 690 318 715 q 348 640 318 658 q 427 609 378 621 q 535 585 476 597 q 653 553 594 572 q 761 503 713 535 q 840 422 810 472 q 869 294 869 371 q 822 138 869 210 q 678 24 774 67 q 439 -19 583 -19 m 322 1051 l 469 1225 l 728 1225 l 504 1051 l 322 1051 m 468 1274 q 390 1303 422 1274 q 358 1381 358 1332 q 390 1460 358 1431 q 468 1490 422 1490 q 546 1460 514 1490 q 578 1381 578 1431 q 546 1303 578 1332 q 468 1274 514 1274 z "},"Š":{"ha":899,"x_min":29,"x_max":869,"o":"m 439 -19 q 209 10 319 -19 q 29 88 99 40 l 119 290 q 270 222 185 249 q 440 194 356 194 q 532 205 497 194 q 583 233 567 215 q 599 274 599 250 q 568 326 599 307 q 489 358 538 346 q 381 383 440 371 q 263 415 322 396 q 156 466 204 435 q 76 548 107 497 q 46 676 46 599 q 94 835 46 764 q 238 949 142 906 q 476 992 333 992 q 665 970 572 992 q 829 907 757 949 l 744 703 q 607 759 675 740 q 475 778 539 778 q 383 766 418 778 q 333 735 349 754 q 318 690 318 715 q 348 640 318 658 q 427 609 378 621 q 535 585 476 597 q 653 553 594 572 q 761 503 713 535 q 840 422 810 472 q 869 294 869 371 q 822 138 869 210 q 678 24 774 67 q 439 -19 583 -19 m 340 1051 l 160 1263 l 335 1263 l 531 1090 l 378 1090 l 574 1263 l 749 1263 l 568 1051 l 340 1051 z "},"Ṧ":{"ha":899,"x_min":29,"x_max":869,"o":"m 439 -19 q 209 10 319 -19 q 29 88 99 40 l 119 290 q 270 222 185 249 q 440 194 356 194 q 532 205 497 194 q 583 233 567 215 q 599 274 599 250 q 568 326 599 307 q 489 358 538 346 q 381 383 440 371 q 263 415 322 396 q 156 466 204 435 q 76 548 107 497 q 46 676 46 599 q 94 835 46 764 q 238 949 142 906 q 476 992 333 992 q 665 970 572 992 q 829 907 757 949 l 744 703 q 607 759 675 740 q 475 778 539 778 q 383 766 418 778 q 333 735 349 754 q 318 690 318 715 q 348 640 318 658 q 427 609 378 621 q 535 585 476 597 q 653 553 594 572 q 761 503 713 535 q 840 422 810 472 q 869 294 869 371 q 822 138 869 210 q 678 24 774 67 q 439 -19 583 -19 m 342 1061 l 160 1231 l 336 1231 l 526 1099 l 382 1099 l 572 1231 l 749 1231 l 567 1061 l 342 1061 m 454 1260 q 376 1289 408 1260 q 344 1367 344 1318 q 376 1447 344 1417 q 454 1476 408 1476 q 532 1447 500 1476 q 564 1367 564 1417 q 532 1289 564 1318 q 454 1260 500 1260 z "},"Ş":{"ha":899,"x_min":29,"x_max":869,"o":"m 439 -19 q 209 10 319 -19 q 29 88 99 40 l 119 290 q 270 222 185 249 q 440 194 356 194 q 532 205 497 194 q 583 233 567 215 q 599 274 599 250 q 568 326 599 307 q 489 358 538 346 q 381 383 440 371 q 263 415 322 396 q 156 466 204 435 q 76 548 107 497 q 46 676 46 599 q 94 835 46 764 q 238 949 142 906 q 476 992 333 992 q 665 970 572 992 q 829 907 757 949 l 744 703 q 607 759 675 740 q 475 778 539 778 q 383 766 418 778 q 333 735 349 754 q 318 690 318 715 q 348 640 318 658 q 427 609 378 621 q 535 585 476 597 q 653 553 594 572 q 761 503 713 535 q 840 422 810 472 q 869 294 869 371 q 822 138 869 210 q 678 24 774 67 q 439 -19 583 -19 m 403 -328 q 331 -319 368 -328 q 271 -299 294 -311 l 307 -194 q 347 -208 325 -203 q 393 -214 368 -214 q 447 -203 431 -214 q 463 -175 463 -192 q 448 -149 463 -158 q 400 -140 433 -140 l 349 -140 l 385 13 l 522 13 l 503 -71 q 594 -111 567 -78 q 622 -183 622 -144 q 563 -289 622 -250 q 403 -328 503 -328 z "},"Ŝ":{"ha":899,"x_min":29,"x_max":869,"o":"m 439 -19 q 209 10 319 -19 q 29 88 99 40 l 119 290 q 270 222 185 249 q 440 194 356 194 q 532 205 497 194 q 583 233 567 215 q 599 274 599 250 q 568 326 599 307 q 489 358 538 346 q 381 383 440 371 q 263 415 322 396 q 156 466 204 435 q 76 548 107 497 q 46 676 46 599 q 94 835 46 764 q 238 949 142 906 q 476 992 333 992 q 665 970 572 992 q 829 907 757 949 l 744 703 q 607 759 675 740 q 475 778 539 778 q 383 766 418 778 q 333 735 349 754 q 318 690 318 715 q 348 640 318 658 q 427 609 378 621 q 535 585 476 597 q 653 553 594 572 q 761 503 713 535 q 840 422 810 472 q 869 294 869 371 q 822 138 869 210 q 678 24 774 67 q 439 -19 583 -19 m 160 1051 l 340 1263 l 568 1263 l 749 1051 l 574 1051 l 378 1225 l 531 1225 l 335 1051 l 160 1051 z "},"Ș":{"ha":899,"x_min":29,"x_max":869,"o":"m 439 -19 q 209 10 319 -19 q 29 88 99 40 l 119 290 q 270 222 185 249 q 440 194 356 194 q 532 205 497 194 q 583 233 567 215 q 599 274 599 250 q 568 326 599 307 q 489 358 538 346 q 381 383 440 371 q 263 415 322 396 q 156 466 204 435 q 76 548 107 497 q 46 676 46 599 q 94 835 46 764 q 238 949 142 906 q 476 992 333 992 q 665 970 572 992 q 829 907 757 949 l 744 703 q 607 759 675 740 q 475 778 539 778 q 383 766 418 778 q 333 735 349 754 q 318 690 318 715 q 348 640 318 658 q 427 609 378 621 q 535 585 476 597 q 653 553 594 572 q 761 503 713 535 q 840 422 810 472 q 869 294 869 371 q 822 138 869 210 q 678 24 774 67 q 439 -19 583 -19 m 364 -368 l 425 -178 l 454 -265 q 372 -241 400 -265 q 344 -175 344 -217 q 374 -108 344 -133 q 454 -82 403 -82 q 535 -108 506 -82 q 564 -175 564 -133 q 558 -217 564 -193 q 535 -275 553 -242 l 483 -368 l 364 -368 z "},"Ṡ":{"ha":899,"x_min":29,"x_max":869,"o":"m 439 -19 q 209 10 319 -19 q 29 88 99 40 l 119 290 q 270 222 185 249 q 440 194 356 194 q 532 205 497 194 q 583 233 567 215 q 599 274 599 250 q 568 326 599 307 q 489 358 538 346 q 381 383 440 371 q 263 415 322 396 q 156 466 204 435 q 76 548 107 497 q 46 676 46 599 q 94 835 46 764 q 238 949 142 906 q 476 992 333 992 q 665 970 572 992 q 829 907 757 949 l 744 703 q 607 759 675 740 q 475 778 539 778 q 383 766 418 778 q 333 735 349 754 q 318 690 318 715 q 348 640 318 658 q 427 609 378 621 q 535 585 476 597 q 653 553 594 572 q 761 503 713 535 q 840 422 810 472 q 869 294 869 371 q 822 138 869 210 q 678 24 774 67 q 439 -19 583 -19 m 454 1049 q 356 1087 394 1049 q 317 1186 317 1125 q 356 1284 317 1246 q 454 1322 394 1322 q 553 1284 514 1322 q 592 1186 592 1246 q 553 1087 592 1125 q 454 1049 514 1049 z "},"Ṣ":{"ha":899,"x_min":29,"x_max":869,"o":"m 439 -19 q 209 10 319 -19 q 29 88 99 40 l 119 290 q 270 222 185 249 q 440 194 356 194 q 532 205 497 194 q 583 233 567 215 q 599 274 599 250 q 568 326 599 307 q 489 358 538 346 q 381 383 440 371 q 263 415 322 396 q 156 466 204 435 q 76 548 107 497 q 46 676 46 599 q 94 835 46 764 q 238 949 142 906 q 476 992 333 992 q 665 970 572 992 q 829 907 757 949 l 744 703 q 607 759 675 740 q 475 778 539 778 q 383 766 418 778 q 333 735 349 754 q 318 690 318 715 q 348 640 318 658 q 427 609 378 621 q 535 585 476 597 q 653 553 594 572 q 761 503 713 535 q 840 422 810 472 q 869 294 869 371 q 822 138 869 210 q 678 24 774 67 q 439 -19 583 -19 m 454 -337 q 356 -299 394 -337 q 317 -200 317 -261 q 356 -102 317 -140 q 454 -64 394 -64 q 553 -102 514 -64 q 592 -200 592 -140 q 553 -299 592 -261 q 454 -337 514 -337 z "},"Ṩ":{"ha":899,"x_min":29,"x_max":869,"o":"m 439 -19 q 209 10 319 -19 q 29 88 99 40 l 119 290 q 270 222 185 249 q 440 194 356 194 q 532 205 497 194 q 583 233 567 215 q 599 274 599 250 q 568 326 599 307 q 489 358 538 346 q 381 383 440 371 q 263 415 322 396 q 156 466 204 435 q 76 548 107 497 q 46 676 46 599 q 94 835 46 764 q 238 949 142 906 q 476 992 333 992 q 665 970 572 992 q 829 907 757 949 l 744 703 q 607 759 675 740 q 475 778 539 778 q 383 766 418 778 q 333 735 349 754 q 318 690 318 715 q 348 640 318 658 q 427 609 378 621 q 535 585 476 597 q 653 553 594 572 q 761 503 713 535 q 840 422 810 472 q 869 294 869 371 q 822 138 869 210 q 678 24 774 67 q 439 -19 583 -19 m 454 -337 q 356 -299 394 -337 q 317 -200 317 -261 q 356 -102 317 -140 q 454 -64 394 -64 q 553 -102 514 -64 q 592 -200 592 -140 q 553 -299 592 -261 q 454 -337 514 -337 m 454 1049 q 356 1087 394 1049 q 317 1186 317 1125 q 356 1284 317 1246 q 454 1322 394 1322 q 553 1284 514 1322 q 592 1186 592 1246 q 553 1087 592 1125 q 454 1049 514 1049 z "},"ẞ":{"ha":1094,"x_min":89,"x_max":1050,"o":"m 674 -19 q 559 -11 611 -19 q 464 14 507 -3 l 503 224 q 565 203 529 211 q 633 194 600 194 q 736 222 701 194 q 771 301 771 249 q 736 380 771 353 q 635 407 701 407 q 585 403 610 407 q 540 393 561 400 l 493 507 l 817 881 l 838 706 q 725 759 783 740 q 596 778 667 778 q 423 713 482 778 q 364 529 364 649 l 364 0 l 89 0 l 89 536 q 147 778 89 676 q 318 936 206 881 q 590 992 431 992 q 717 981 651 992 q 844 950 783 971 q 950 899 906 929 l 950 738 l 693 442 l 588 588 q 635 596 610 593 q 692 599 661 599 q 868 562 786 599 q 1000 456 950 525 q 1050 289 1050 388 q 1000 123 1050 192 q 865 17 950 54 q 674 -19 781 -19 z "},"Ꞩ":{"ha":889,"x_min":29,"x_max":860,"o":"m 435 -18 q 283 -5 358 -18 q 142 33 207 8 q 29 90 76 57 l 115 283 q 264 213 178 240 q 436 186 350 186 q 533 197 497 186 q 586 227 569 207 q 603 272 603 247 q 573 327 603 307 q 494 360 543 347 q 385 387 444 374 q 265 419 325 400 q 156 469 206 438 q 77 551 107 500 q 47 681 47 603 q 94 835 47 765 q 235 948 140 906 q 471 990 329 990 q 658 969 567 990 q 819 906 750 947 l 739 713 q 603 767 671 749 q 469 786 535 786 q 373 774 410 786 q 320 740 336 761 q 304 693 304 719 q 334 639 304 658 q 413 607 364 619 q 522 582 463 594 q 642 551 582 569 q 751 501 701 532 q 830 419 800 469 q 860 292 860 368 q 813 138 860 208 q 672 24 767 67 q 435 -18 578 -18 m 368 236 l 242 306 l 485 738 l 608 675 l 368 236 z "},"T":{"ha":882,"x_min":6,"x_max":876,"o":"m 304 0 l 304 754 l 6 754 l 6 972 l 876 972 l 876 754 l 579 754 l 579 0 l 304 0 z "},"Ŧ":{"ha":882,"x_min":6,"x_max":876,"o":"m 304 0 l 304 754 l 6 754 l 6 972 l 876 972 l 876 754 l 579 754 l 579 0 l 304 0 m 138 371 l 138 540 l 744 540 l 744 371 l 138 371 z "},"Ť":{"ha":882,"x_min":6,"x_max":876,"o":"m 304 0 l 304 754 l 6 754 l 6 972 l 876 972 l 876 754 l 579 754 l 579 0 l 304 0 m 328 1051 l 147 1263 l 322 1263 l 518 1090 l 365 1090 l 561 1263 l 736 1263 l 556 1051 l 328 1051 z "},"Ţ":{"ha":882,"x_min":6,"x_max":876,"o":"m 304 0 l 304 754 l 6 754 l 6 972 l 876 972 l 876 754 l 579 754 l 579 0 l 304 0 m 390 -328 q 319 -319 356 -328 q 258 -299 282 -311 l 294 -194 q 334 -208 313 -203 q 381 -214 356 -214 q 434 -203 418 -214 q 450 -175 450 -192 q 435 -149 450 -158 q 388 -140 421 -140 l 336 -140 l 372 13 l 510 13 l 490 -71 q 582 -111 554 -78 q 610 -183 610 -144 q 550 -289 610 -250 q 390 -328 490 -328 z "},"Ṱ":{"ha":882,"x_min":6,"x_max":876,"o":"m 304 0 l 304 754 l 6 754 l 6 972 l 876 972 l 876 754 l 579 754 l 579 0 l 304 0 m 147 -293 l 328 -82 l 556 -82 l 736 -293 l 561 -293 l 365 -119 l 518 -119 l 322 -293 l 147 -293 z "},"Ț":{"ha":882,"x_min":6,"x_max":876,"o":"m 304 0 l 304 754 l 6 754 l 6 972 l 876 972 l 876 754 l 579 754 l 579 0 l 304 0 m 351 -368 l 413 -178 l 442 -265 q 360 -241 388 -265 q 332 -175 332 -217 q 361 -108 332 -133 q 442 -82 390 -82 q 522 -108 493 -82 q 551 -175 551 -133 q 546 -217 551 -193 q 522 -275 540 -242 l 471 -368 l 351 -368 z "},"Ⱦ":{"ha":881,"x_min":6,"x_max":875,"o":"m 314 0 l 314 754 l 6 754 l 6 972 l 875 972 l 875 754 l 568 754 l 568 0 l 314 0 m 154 -97 l 696 1069 l 843 1069 l 301 -97 l 154 -97 z "},"Ṫ":{"ha":882,"x_min":6,"x_max":876,"o":"m 304 0 l 304 754 l 6 754 l 6 972 l 876 972 l 876 754 l 579 754 l 579 0 l 304 0 m 442 1049 q 343 1087 382 1049 q 304 1186 304 1125 q 343 1284 304 1246 q 442 1322 382 1322 q 540 1284 501 1322 q 579 1186 579 1246 q 540 1087 579 1125 q 442 1049 501 1049 z "},"Ṭ":{"ha":882,"x_min":6,"x_max":876,"o":"m 304 0 l 304 754 l 6 754 l 6 972 l 876 972 l 876 754 l 579 754 l 579 0 l 304 0 m 442 -337 q 343 -299 382 -337 q 304 -200 304 -261 q 343 -102 304 -140 q 442 -64 382 -64 q 540 -102 501 -64 q 579 -200 579 -140 q 540 -299 579 -261 q 442 -337 501 -337 z "},"Ƭ":{"ha":1039,"x_min":19,"x_max":1033,"o":"m 460 0 l 460 797 l 514 754 l 343 754 q 285 738 306 754 q 259 692 264 721 q 264 630 254 664 q 299 560 274 596 l 104 464 q 39 590 58 522 q 28 726 19 658 q 74 849 36 793 q 179 939 111 906 q 346 972 247 972 l 1033 972 l 1033 754 l 672 754 l 735 797 l 735 0 l 460 0 z "},"Ṯ":{"ha":882,"x_min":6,"x_max":876,"o":"m 304 0 l 304 754 l 6 754 l 6 972 l 876 972 l 876 754 l 579 754 l 579 0 l 304 0 m 168 -257 l 168 -115 l 715 -115 l 715 -257 l 168 -257 z "},"Ʈ":{"ha":882,"x_min":6,"x_max":876,"o":"m 810 -237 q 640 -284 728 -276 q 475 -264 551 -292 q 351 -170 399 -236 q 304 4 304 -104 l 304 790 l 579 790 l 579 6 q 593 -44 579 -25 q 629 -71 607 -64 q 681 -72 651 -78 q 742 -50 711 -67 l 810 -237 m 6 754 l 6 972 l 876 972 l 876 754 l 6 754 z "},"Ʇ":{"ha":882,"x_min":6,"x_max":876,"o":"m 579 972 l 579 218 l 876 218 l 876 0 l 6 0 l 6 218 l 304 218 l 304 972 l 579 972 z "},"U":{"ha":1092,"x_min":89,"x_max":1003,"o":"m 546 -19 q 210 99 331 -19 q 89 433 89 217 l 89 972 l 364 972 l 364 442 q 413 263 364 317 q 549 208 463 208 q 683 263 635 208 q 732 442 732 317 l 732 972 l 1003 972 l 1003 433 q 882 99 1003 217 q 546 -19 761 -19 z "},"Ú":{"ha":1092,"x_min":89,"x_max":1003,"o":"m 546 -19 q 210 99 331 -19 q 89 433 89 217 l 89 972 l 364 972 l 364 442 q 413 263 364 317 q 549 208 463 208 q 683 263 635 208 q 732 442 732 317 l 732 972 l 1003 972 l 1003 433 q 882 99 1003 217 q 546 -19 761 -19 m 413 1051 l 599 1263 l 863 1263 l 601 1051 l 413 1051 z "},"Ʉ":{"ha":1100,"x_min":-18,"x_max":1117,"o":"m 549 -19 q 214 99 335 -19 q 93 433 93 217 l 93 972 l 368 972 l 368 442 q 417 263 368 317 q 551 208 465 208 q 686 263 638 208 q 735 442 735 317 l 735 972 l 1006 972 l 1006 433 q 885 99 1006 217 q 549 -19 764 -19 m -18 410 l -18 579 l 1117 579 l 1117 410 l -18 410 z "},"Ŭ":{"ha":1092,"x_min":89,"x_max":1003,"o":"m 546 -19 q 210 99 331 -19 q 89 433 89 217 l 89 972 l 364 972 l 364 442 q 413 263 364 317 q 549 208 463 208 q 683 263 635 208 q 732 442 732 317 l 732 972 l 1003 972 l 1003 433 q 882 99 1003 217 q 546 -19 761 -19 m 549 1053 q 356 1113 432 1053 q 276 1276 281 1172 l 438 1276 q 472 1209 440 1233 q 549 1185 503 1185 q 626 1209 594 1185 q 660 1276 658 1233 l 821 1276 q 741 1113 817 1172 q 549 1053 665 1053 z "},"Ǔ":{"ha":1092,"x_min":89,"x_max":1003,"o":"m 546 -19 q 210 99 331 -19 q 89 433 89 217 l 89 972 l 364 972 l 364 442 q 413 263 364 317 q 549 208 463 208 q 683 263 635 208 q 732 442 732 317 l 732 972 l 1003 972 l 1003 433 q 882 99 1003 217 q 546 -19 761 -19 m 435 1051 l 254 1263 l 429 1263 l 625 1090 l 472 1090 l 668 1263 l 843 1263 l 663 1051 l 435 1051 z "},"Û":{"ha":1092,"x_min":89,"x_max":1003,"o":"m 546 -19 q 210 99 331 -19 q 89 433 89 217 l 89 972 l 364 972 l 364 442 q 413 263 364 317 q 549 208 463 208 q 683 263 635 208 q 732 442 732 317 l 732 972 l 1003 972 l 1003 433 q 882 99 1003 217 q 546 -19 761 -19 m 254 1051 l 435 1263 l 663 1263 l 843 1051 l 668 1051 l 472 1225 l 625 1225 l 429 1051 l 254 1051 z "},"Ṷ":{"ha":1092,"x_min":89,"x_max":1003,"o":"m 546 -19 q 210 99 331 -19 q 89 433 89 217 l 89 972 l 364 972 l 364 442 q 413 263 364 317 q 549 208 463 208 q 683 263 635 208 q 732 442 732 317 l 732 972 l 1003 972 l 1003 433 q 882 99 1003 217 q 546 -19 761 -19 m 254 -293 l 435 -82 l 663 -82 l 843 -293 l 668 -293 l 472 -119 l 625 -119 l 429 -293 l 254 -293 z "},"Ȕ":{"ha":1092,"x_min":89,"x_max":1003,"o":"m 546 -19 q 210 99 331 -19 q 89 433 89 217 l 89 972 l 364 972 l 364 442 q 413 263 364 317 q 549 208 463 208 q 683 263 635 208 q 732 442 732 317 l 732 972 l 1003 972 l 1003 433 q 882 99 1003 217 q 546 -19 761 -19 m 608 1051 l 468 1263 l 704 1263 l 792 1051 l 608 1051 m 306 1051 l 167 1263 l 403 1263 l 489 1051 l 306 1051 z "},"Ü":{"ha":1092,"x_min":89,"x_max":1003,"o":"m 546 -19 q 210 99 331 -19 q 89 433 89 217 l 89 972 l 364 972 l 364 442 q 413 263 364 317 q 549 208 463 208 q 683 263 635 208 q 732 442 732 317 l 732 972 l 1003 972 l 1003 433 q 882 99 1003 217 q 546 -19 761 -19 m 696 1050 q 618 1080 650 1050 q 586 1158 586 1110 q 618 1238 586 1207 q 696 1268 650 1268 q 774 1238 742 1268 q 806 1158 806 1207 q 774 1080 806 1110 q 696 1050 742 1050 m 401 1050 q 324 1080 356 1050 q 292 1158 292 1110 q 324 1238 292 1207 q 401 1268 356 1268 q 479 1238 447 1268 q 511 1158 511 1207 q 479 1080 511 1110 q 401 1050 447 1050 z "},"Ǘ":{"ha":1092,"x_min":89,"x_max":1003,"o":"m 546 -19 q 210 99 331 -19 q 89 433 89 217 l 89 972 l 364 972 l 364 442 q 413 263 364 317 q 549 208 463 208 q 683 263 635 208 q 732 442 732 317 l 732 972 l 1003 972 l 1003 433 q 882 99 1003 217 q 546 -19 761 -19 m 690 1047 q 616 1076 646 1047 q 586 1150 586 1106 q 616 1226 586 1197 q 690 1254 646 1254 q 765 1226 735 1254 q 794 1150 794 1197 q 765 1076 794 1106 q 690 1047 735 1047 m 407 1047 q 333 1076 364 1047 q 303 1150 303 1106 q 333 1226 303 1197 q 407 1254 364 1254 q 482 1226 451 1254 q 513 1150 513 1197 q 482 1076 513 1106 q 407 1047 451 1047 m 417 1290 l 564 1464 l 822 1464 l 599 1290 l 417 1290 z "},"Ṳ":{"ha":1092,"x_min":89,"x_max":1003,"o":"m 546 -19 q 210 99 331 -19 q 89 433 89 217 l 89 972 l 364 972 l 364 442 q 413 263 364 317 q 549 208 463 208 q 683 263 635 208 q 732 442 732 317 l 732 972 l 1003 972 l 1003 433 q 882 99 1003 217 q 546 -19 761 -19 m 696 -296 q 618 -266 650 -296 q 586 -187 586 -236 q 618 -108 586 -139 q 696 -78 650 -78 q 774 -108 742 -78 q 806 -187 806 -139 q 774 -266 806 -236 q 696 -296 742 -296 m 401 -296 q 324 -266 356 -296 q 292 -187 292 -236 q 324 -108 292 -139 q 401 -78 356 -78 q 479 -108 447 -78 q 511 -187 511 -139 q 479 -266 511 -236 q 401 -296 447 -296 z "},"Ǚ":{"ha":1092,"x_min":89,"x_max":1003,"o":"m 546 -19 q 210 99 331 -19 q 89 433 89 217 l 89 972 l 364 972 l 364 442 q 413 263 364 317 q 549 208 463 208 q 683 263 635 208 q 732 442 732 317 l 732 972 l 1003 972 l 1003 433 q 882 99 1003 217 q 546 -19 761 -19 m 696 1050 q 618 1080 650 1050 q 586 1158 586 1110 q 618 1238 586 1207 q 696 1268 650 1268 q 774 1238 742 1268 q 806 1158 806 1207 q 774 1080 806 1110 q 696 1050 742 1050 m 401 1050 q 324 1080 356 1050 q 292 1158 292 1110 q 324 1238 292 1207 q 401 1268 356 1268 q 479 1238 447 1268 q 511 1158 511 1207 q 479 1080 511 1110 q 401 1050 447 1050 m 435 1301 l 254 1513 l 429 1513 l 625 1340 l 472 1340 l 668 1513 l 843 1513 l 663 1301 l 435 1301 z "},"Ǜ":{"ha":1092,"x_min":89,"x_max":1003,"o":"m 546 -19 q 210 99 331 -19 q 89 433 89 217 l 89 972 l 364 972 l 364 442 q 413 263 364 317 q 549 208 463 208 q 683 263 635 208 q 732 442 732 317 l 732 972 l 1003 972 l 1003 433 q 882 99 1003 217 q 546 -19 761 -19 m 690 1047 q 616 1076 646 1047 q 586 1150 586 1106 q 616 1226 586 1197 q 690 1254 646 1254 q 765 1226 735 1254 q 794 1150 794 1197 q 765 1076 794 1106 q 690 1047 735 1047 m 407 1047 q 333 1076 364 1047 q 303 1150 303 1106 q 333 1226 303 1197 q 407 1254 364 1254 q 482 1226 451 1254 q 513 1150 513 1197 q 482 1076 513 1106 q 407 1047 451 1047 m 500 1290 l 275 1464 l 533 1464 l 681 1290 l 500 1290 z "},"Ǖ":{"ha":1092,"x_min":89,"x_max":1003,"o":"m 546 -19 q 210 99 331 -19 q 89 433 89 217 l 89 972 l 364 972 l 364 442 q 413 263 364 317 q 549 208 463 208 q 683 263 635 208 q 732 442 732 317 l 732 972 l 1003 972 l 1003 433 q 882 99 1003 217 q 546 -19 761 -19 m 690 1044 q 616 1074 646 1044 q 586 1147 586 1103 q 616 1223 586 1194 q 690 1251 646 1251 q 765 1223 735 1251 q 794 1147 794 1194 q 765 1074 794 1103 q 690 1044 735 1044 m 407 1044 q 333 1074 364 1044 q 303 1147 303 1103 q 333 1223 303 1194 q 407 1251 364 1251 q 482 1223 451 1251 q 513 1147 513 1194 q 482 1074 513 1103 q 407 1044 451 1044 m 275 1325 l 275 1460 l 822 1460 l 822 1325 l 275 1325 z "},"Ụ":{"ha":1092,"x_min":89,"x_max":1003,"o":"m 546 -19 q 210 99 331 -19 q 89 433 89 217 l 89 972 l 364 972 l 364 442 q 413 263 364 317 q 549 208 463 208 q 683 263 635 208 q 732 442 732 317 l 732 972 l 1003 972 l 1003 433 q 882 99 1003 217 q 546 -19 761 -19 m 549 -337 q 450 -299 489 -337 q 411 -200 411 -261 q 450 -102 411 -140 q 549 -64 489 -64 q 647 -102 608 -64 q 686 -200 686 -140 q 647 -299 686 -261 q 549 -337 608 -337 z "},"Ù":{"ha":1092,"x_min":89,"x_max":1003,"o":"m 546 -19 q 210 99 331 -19 q 89 433 89 217 l 89 972 l 364 972 l 364 442 q 413 263 364 317 q 549 208 463 208 q 683 263 635 208 q 732 442 732 317 l 732 972 l 1003 972 l 1003 433 q 882 99 1003 217 q 546 -19 761 -19 m 496 1051 l 235 1263 l 499 1263 l 685 1051 l 496 1051 z "},"Ủ":{"ha":1092,"x_min":89,"x_max":1003,"o":"m 546 -19 q 210 99 331 -19 q 89 433 89 217 l 89 972 l 364 972 l 364 442 q 413 263 364 317 q 549 208 463 208 q 683 263 635 208 q 732 442 732 317 l 732 972 l 1003 972 l 1003 433 q 882 99 1003 217 q 546 -19 761 -19 m 554 1008 l 472 1089 q 526 1128 513 1108 q 540 1169 540 1147 q 523 1210 540 1194 q 478 1225 506 1225 q 397 1197 438 1225 l 343 1299 q 428 1341 385 1328 q 511 1354 471 1354 q 607 1332 565 1354 q 672 1272 649 1310 q 696 1189 696 1235 q 663 1089 696 1136 q 554 1008 629 1042 z "},"Ư":{"ha":1114,"x_min":89,"x_max":1158,"o":"m 546 -19 q 210 99 331 -19 q 89 433 89 217 l 89 972 l 364 972 l 364 442 q 413 263 364 317 q 549 208 463 208 q 683 263 635 208 q 732 442 732 317 l 732 972 l 1003 972 l 1003 433 q 882 99 1003 217 q 546 -19 761 -19 m 860 806 l 860 972 l 907 972 q 963 997 940 972 q 986 1060 986 1021 q 978 1105 986 1083 q 958 1140 971 1126 l 1111 1194 q 1147 1129 1133 1165 q 1160 1049 1160 1093 q 1090 869 1160 933 q 897 806 1021 806 l 860 806 z "},"Ứ":{"ha":1114,"x_min":89,"x_max":1158,"o":"m 546 -19 q 210 99 331 -19 q 89 433 89 217 l 89 972 l 364 972 l 364 442 q 413 263 364 317 q 549 208 463 208 q 683 263 635 208 q 732 442 732 317 l 732 972 l 1003 972 l 1003 433 q 882 99 1003 217 q 546 -19 761 -19 m 860 806 l 860 972 l 907 972 q 963 997 940 972 q 986 1060 986 1021 q 978 1105 986 1083 q 958 1140 971 1126 l 1111 1194 q 1147 1129 1133 1165 q 1160 1049 1160 1093 q 1090 869 1160 933 q 897 806 1021 806 l 860 806 m 413 1051 l 599 1263 l 863 1263 l 601 1051 l 413 1051 z "},"Ự":{"ha":1114,"x_min":89,"x_max":1158,"o":"m 546 -19 q 210 99 331 -19 q 89 433 89 217 l 89 972 l 364 972 l 364 442 q 413 263 364 317 q 549 208 463 208 q 683 263 635 208 q 732 442 732 317 l 732 972 l 1003 972 l 1003 433 q 882 99 1003 217 q 546 -19 761 -19 m 860 806 l 860 972 l 907 972 q 963 997 940 972 q 986 1060 986 1021 q 978 1105 986 1083 q 958 1140 971 1126 l 1111 1194 q 1147 1129 1133 1165 q 1160 1049 1160 1093 q 1090 869 1160 933 q 897 806 1021 806 l 860 806 m 549 -337 q 450 -299 489 -337 q 411 -200 411 -261 q 450 -102 411 -140 q 549 -64 489 -64 q 647 -102 608 -64 q 686 -200 686 -140 q 647 -299 686 -261 q 549 -337 608 -337 z "},"Ừ":{"ha":1114,"x_min":89,"x_max":1158,"o":"m 546 -19 q 210 99 331 -19 q 89 433 89 217 l 89 972 l 364 972 l 364 442 q 413 263 364 317 q 549 208 463 208 q 683 263 635 208 q 732 442 732 317 l 732 972 l 1003 972 l 1003 433 q 882 99 1003 217 q 546 -19 761 -19 m 860 806 l 860 972 l 907 972 q 963 997 940 972 q 986 1060 986 1021 q 978 1105 986 1083 q 958 1140 971 1126 l 1111 1194 q 1147 1129 1133 1165 q 1160 1049 1160 1093 q 1090 869 1160 933 q 897 806 1021 806 l 860 806 m 496 1051 l 235 1263 l 499 1263 l 685 1051 l 496 1051 z "},"Ử":{"ha":1114,"x_min":89,"x_max":1158,"o":"m 546 -19 q 210 99 331 -19 q 89 433 89 217 l 89 972 l 364 972 l 364 442 q 413 263 364 317 q 549 208 463 208 q 683 263 635 208 q 732 442 732 317 l 732 972 l 1003 972 l 1003 433 q 882 99 1003 217 q 546 -19 761 -19 m 860 806 l 860 972 l 907 972 q 963 997 940 972 q 986 1060 986 1021 q 978 1105 986 1083 q 958 1140 971 1126 l 1111 1194 q 1147 1129 1133 1165 q 1160 1049 1160 1093 q 1090 869 1160 933 q 897 806 1021 806 l 860 806 m 554 1008 l 472 1089 q 526 1128 513 1108 q 540 1169 540 1147 q 523 1210 540 1194 q 478 1225 506 1225 q 397 1197 438 1225 l 343 1299 q 428 1341 385 1328 q 511 1354 471 1354 q 607 1332 565 1354 q 672 1272 649 1310 q 696 1189 696 1235 q 663 1089 696 1136 q 554 1008 629 1042 z "},"Ữ":{"ha":1114,"x_min":89,"x_max":1158,"o":"m 546 -19 q 210 99 331 -19 q 89 433 89 217 l 89 972 l 364 972 l 364 442 q 413 263 364 317 q 549 208 463 208 q 683 263 635 208 q 732 442 732 317 l 732 972 l 1003 972 l 1003 433 q 882 99 1003 217 q 546 -19 761 -19 m 860 806 l 860 972 l 907 972 q 963 997 940 972 q 986 1060 986 1021 q 978 1105 986 1083 q 958 1140 971 1126 l 1111 1194 q 1147 1129 1133 1165 q 1160 1049 1160 1093 q 1090 869 1160 933 q 897 806 1021 806 l 860 806 m 660 1040 q 592 1053 622 1040 q 539 1084 563 1067 q 494 1115 515 1101 q 453 1128 474 1128 q 409 1107 426 1128 q 389 1053 392 1086 l 257 1053 q 307 1215 260 1153 q 438 1278 354 1278 q 506 1265 476 1278 q 559 1234 535 1251 q 604 1203 583 1217 q 644 1190 625 1190 q 690 1210 672 1190 q 708 1263 707 1231 l 839 1263 q 790 1102 838 1164 q 660 1040 743 1040 z "},"Ű":{"ha":1092,"x_min":89,"x_max":1003,"o":"m 546 -19 q 210 99 331 -19 q 89 433 89 217 l 89 972 l 364 972 l 364 442 q 413 263 364 317 q 549 208 463 208 q 683 263 635 208 q 732 442 732 317 l 732 972 l 1003 972 l 1003 433 q 882 99 1003 217 q 546 -19 761 -19 m 608 1051 l 694 1263 l 931 1263 l 792 1051 l 608 1051 m 306 1051 l 393 1263 l 629 1263 l 489 1051 l 306 1051 z "},"Ȗ":{"ha":1092,"x_min":89,"x_max":1003,"o":"m 546 -19 q 210 99 331 -19 q 89 433 89 217 l 89 972 l 364 972 l 364 442 q 413 263 364 317 q 549 208 463 208 q 683 263 635 208 q 732 442 732 317 l 732 972 l 1003 972 l 1003 433 q 882 99 1003 217 q 546 -19 761 -19 m 276 1051 q 356 1215 281 1156 q 549 1275 432 1275 q 741 1215 665 1275 q 821 1051 817 1156 l 660 1051 q 626 1118 658 1093 q 549 1143 594 1143 q 472 1118 503 1143 q 438 1051 440 1093 l 276 1051 z "},"Ū":{"ha":1092,"x_min":89,"x_max":1003,"o":"m 546 -19 q 210 99 331 -19 q 89 433 89 217 l 89 972 l 364 972 l 364 442 q 413 263 364 317 q 549 208 463 208 q 683 263 635 208 q 732 442 732 317 l 732 972 l 1003 972 l 1003 433 q 882 99 1003 217 q 546 -19 761 -19 m 275 1086 l 275 1228 l 822 1228 l 822 1086 l 275 1086 z "},"Ṻ":{"ha":1092,"x_min":89,"x_max":1003,"o":"m 546 -19 q 210 99 331 -19 q 89 433 89 217 l 89 972 l 364 972 l 364 442 q 413 263 364 317 q 549 208 463 208 q 683 263 635 208 q 732 442 732 317 l 732 972 l 1003 972 l 1003 433 q 882 99 1003 217 q 546 -19 761 -19 m 275 1071 l 275 1206 l 822 1206 l 822 1071 l 275 1071 m 690 1285 q 616 1314 646 1285 q 586 1388 586 1343 q 616 1463 586 1435 q 690 1492 646 1492 q 765 1463 735 1492 q 794 1388 794 1435 q 765 1314 794 1343 q 690 1285 735 1285 m 407 1285 q 333 1314 364 1285 q 303 1388 303 1343 q 333 1463 303 1435 q 407 1492 364 1492 q 482 1463 451 1492 q 513 1388 513 1435 q 482 1314 513 1343 q 407 1285 451 1285 z "},"Ų":{"ha":1092,"x_min":89,"x_max":1003,"o":"m 592 -328 q 440 -283 493 -328 q 386 -165 386 -237 q 410 -75 386 -117 q 485 2 435 -33 q 608 63 535 38 l 613 -17 q 579 -19 596 -18 q 546 -19 563 -19 q 210 99 331 -19 q 89 433 89 217 l 89 972 l 364 972 l 364 442 q 413 263 364 317 q 549 208 463 208 q 683 263 635 208 q 732 442 732 317 l 732 972 l 1003 972 l 1003 433 q 930 158 1003 261 q 739 10 857 56 q 620 -46 663 -19 q 562 -95 578 -72 q 546 -142 546 -118 q 565 -185 546 -168 q 622 -203 583 -203 q 667 -197 646 -203 q 704 -182 689 -190 l 739 -296 q 674 -319 714 -310 q 592 -328 633 -328 z "},"Ʊ":{"ha":1190,"x_min":35,"x_max":1156,"o":"m 1156 972 l 1156 754 l 1004 754 q 1096 618 1061 699 q 1131 439 1131 538 q 1090 253 1131 338 q 977 108 1050 169 q 807 14 904 47 q 596 -19 710 -19 q 384 14 482 -19 q 213 108 286 47 q 100 254 140 169 q 60 440 60 339 q 94 619 60 539 q 186 754 129 699 l 35 754 l 35 972 l 518 972 l 518 769 q 382 647 431 725 q 333 474 333 568 q 353 362 333 411 q 408 278 374 313 q 491 226 443 243 q 596 208 539 208 q 699 226 651 208 q 783 278 747 243 q 838 362 818 313 q 857 474 857 411 q 808 648 857 569 q 672 769 760 726 l 672 972 l 1156 972 z "},"Ů":{"ha":1092,"x_min":89,"x_max":1003,"o":"m 546 -19 q 210 99 331 -19 q 89 433 89 217 l 89 972 l 364 972 l 364 442 q 413 263 364 317 q 549 208 463 208 q 683 263 635 208 q 732 442 732 317 l 732 972 l 1003 972 l 1003 433 q 882 99 1003 217 q 546 -19 761 -19 m 549 1024 q 456 1047 497 1024 q 390 1111 414 1071 q 365 1200 365 1151 q 390 1290 365 1250 q 456 1353 414 1329 q 549 1378 497 1378 q 642 1353 601 1378 q 708 1290 683 1329 q 732 1200 732 1250 q 708 1111 732 1151 q 642 1047 683 1071 q 549 1024 600 1024 m 549 1121 q 606 1143 583 1121 q 628 1200 628 1165 q 605 1258 628 1235 q 549 1281 582 1281 q 492 1258 515 1281 q 469 1200 469 1236 q 492 1143 469 1165 q 549 1121 515 1121 z "},"Ũ":{"ha":1092,"x_min":89,"x_max":1003,"o":"m 546 -19 q 210 99 331 -19 q 89 433 89 217 l 89 972 l 364 972 l 364 442 q 413 263 364 317 q 549 208 463 208 q 683 263 635 208 q 732 442 732 317 l 732 972 l 1003 972 l 1003 433 q 882 99 1003 217 q 546 -19 761 -19 m 660 1040 q 592 1053 622 1040 q 539 1084 563 1067 q 494 1115 515 1101 q 453 1128 474 1128 q 409 1107 426 1128 q 389 1053 392 1086 l 257 1053 q 307 1215 260 1153 q 438 1278 354 1278 q 506 1265 476 1278 q 559 1234 535 1251 q 604 1203 583 1217 q 644 1190 625 1190 q 690 1210 672 1190 q 708 1263 707 1231 l 839 1263 q 790 1102 838 1164 q 660 1040 743 1040 z "},"Ṹ":{"ha":1092,"x_min":89,"x_max":1003,"o":"m 546 -19 q 210 99 331 -19 q 89 433 89 217 l 89 972 l 364 972 l 364 442 q 413 263 364 317 q 549 208 463 208 q 683 263 635 208 q 732 442 732 317 l 732 972 l 1003 972 l 1003 433 q 882 99 1003 217 q 546 -19 761 -19 m 657 1043 q 588 1054 617 1043 q 539 1080 560 1065 q 499 1106 518 1094 q 461 1117 481 1117 q 419 1099 435 1117 q 401 1054 404 1082 l 269 1054 q 317 1190 271 1142 q 442 1239 364 1239 q 528 1221 494 1239 q 588 1184 563 1203 q 640 1165 614 1165 q 683 1183 667 1165 q 700 1228 699 1201 l 828 1228 q 781 1092 826 1140 q 657 1043 736 1043 m 417 1290 l 564 1464 l 822 1464 l 599 1290 l 417 1290 z "},"Ṵ":{"ha":1092,"x_min":89,"x_max":1003,"o":"m 546 -19 q 210 99 331 -19 q 89 433 89 217 l 89 972 l 364 972 l 364 442 q 413 263 364 317 q 549 208 463 208 q 683 263 635 208 q 732 442 732 317 l 732 972 l 1003 972 l 1003 433 q 882 99 1003 217 q 546 -19 761 -19 m 660 -303 q 592 -290 622 -303 q 539 -259 563 -276 q 494 -228 515 -242 q 453 -215 474 -215 q 409 -236 426 -215 q 389 -290 392 -257 l 257 -290 q 307 -128 260 -190 q 438 -65 354 -65 q 506 -78 476 -65 q 559 -109 535 -92 q 604 -140 583 -126 q 644 -153 625 -153 q 690 -133 672 -153 q 708 -81 707 -112 l 839 -81 q 790 -241 838 -179 q 660 -303 743 -303 z "},"V":{"ha":1064,"x_min":-19,"x_max":1083,"o":"m 396 0 l -19 972 l 278 972 l 628 131 l 453 131 l 811 972 l 1083 972 l 667 0 l 396 0 z "},"Ɣ":{"ha":963,"x_min":-33,"x_max":1014,"o":"m 490 -287 q 358 -260 418 -287 q 263 -183 299 -233 q 228 -62 228 -133 q 251 49 228 -6 q 311 156 275 103 q 385 265 347 208 q 453 379 424 321 l 742 972 l 1014 972 l 644 235 q 590 158 626 197 q 515 78 553 118 q 449 1 476 39 q 422 -69 422 -36 q 442 -115 422 -99 q 489 -132 463 -132 q 534 -115 514 -132 q 554 -71 554 -99 q 528 1 554 -37 q 465 79 501 39 q 395 156 429 119 q 347 222 361 193 l -33 972 l 264 972 l 549 379 q 608 274 575 328 q 674 164 642 219 q 726 52 706 108 q 747 -61 747 -4 q 713 -183 747 -132 q 621 -261 679 -235 q 490 -287 563 -287 z "},"Ṿ":{"ha":1064,"x_min":-19,"x_max":1083,"o":"m 396 0 l -19 972 l 278 972 l 628 131 l 453 131 l 811 972 l 1083 972 l 667 0 l 396 0 m 532 -337 q 433 -299 472 -337 q 394 -200 394 -261 q 433 -102 394 -140 q 532 -64 472 -64 q 631 -102 592 -64 q 669 -200 669 -140 q 631 -299 669 -261 q 532 -337 592 -337 z "},"Ʋ":{"ha":1078,"x_min":85,"x_max":1003,"o":"m 542 -19 q 206 99 326 -19 q 85 433 85 217 l 85 972 l 360 972 l 360 442 q 409 263 360 317 q 543 208 458 208 q 678 263 631 208 q 726 442 726 317 l 726 706 q 714 764 726 742 q 681 796 701 786 q 633 802 660 806 q 576 783 606 799 l 524 972 q 688 1008 604 1003 q 842 984 771 1013 q 958 892 914 956 q 1003 719 1003 828 l 1003 433 q 881 99 1003 217 q 542 -19 760 -19 z "},"Ṽ":{"ha":1064,"x_min":-19,"x_max":1083,"o":"m 396 0 l -19 972 l 278 972 l 628 131 l 453 131 l 811 972 l 1083 972 l 667 0 l 396 0 m 643 1040 q 576 1053 606 1040 q 522 1084 546 1067 q 478 1115 499 1101 q 436 1128 457 1128 q 392 1107 410 1128 q 372 1053 375 1086 l 240 1053 q 290 1215 243 1153 q 421 1278 338 1278 q 489 1265 460 1278 q 542 1234 518 1251 q 588 1203 567 1217 q 628 1190 608 1190 q 673 1210 656 1190 q 692 1263 690 1231 l 822 1263 q 774 1102 821 1164 q 643 1040 726 1040 z "},"Ʌ":{"ha":1064,"x_min":-19,"x_max":1083,"o":"m 667 972 l 1083 0 l 786 0 l 435 842 l 611 842 l 251 0 l -19 0 l 396 972 l 667 972 z "},"W":{"ha":1644,"x_min":22,"x_max":1622,"o":"m 338 0 l 22 972 l 306 972 l 571 131 l 428 131 l 707 972 l 960 972 l 1224 131 l 1086 131 l 1360 972 l 1622 972 l 1307 0 l 1013 0 l 788 715 l 867 715 l 632 0 l 338 0 z "},"Ẃ":{"ha":1644,"x_min":22,"x_max":1622,"o":"m 338 0 l 22 972 l 306 972 l 571 131 l 428 131 l 707 972 l 960 972 l 1224 131 l 1086 131 l 1360 972 l 1622 972 l 1307 0 l 1013 0 l 788 715 l 867 715 l 632 0 l 338 0 m 686 1051 l 872 1263 l 1136 1263 l 875 1051 l 686 1051 z "},"Ŵ":{"ha":1644,"x_min":22,"x_max":1622,"o":"m 338 0 l 22 972 l 306 972 l 571 131 l 428 131 l 707 972 l 960 972 l 1224 131 l 1086 131 l 1360 972 l 1622 972 l 1307 0 l 1013 0 l 788 715 l 867 715 l 632 0 l 338 0 m 528 1051 l 708 1263 l 936 1263 l 1117 1051 l 942 1051 l 746 1225 l 899 1225 l 703 1051 l 528 1051 z "},"Ẅ":{"ha":1644,"x_min":22,"x_max":1622,"o":"m 338 0 l 22 972 l 306 972 l 571 131 l 428 131 l 707 972 l 960 972 l 1224 131 l 1086 131 l 1360 972 l 1622 972 l 1307 0 l 1013 0 l 788 715 l 867 715 l 632 0 l 338 0 m 969 1050 q 892 1080 924 1050 q 860 1158 860 1110 q 892 1238 860 1207 q 969 1268 924 1268 q 1047 1238 1015 1268 q 1079 1158 1079 1207 q 1047 1080 1079 1110 q 969 1050 1015 1050 m 675 1050 q 597 1080 629 1050 q 565 1158 565 1110 q 597 1238 565 1207 q 675 1268 629 1268 q 753 1238 721 1268 q 785 1158 785 1207 q 753 1080 785 1110 q 675 1050 721 1050 z "},"Ẇ":{"ha":1644,"x_min":22,"x_max":1622,"o":"m 338 0 l 22 972 l 306 972 l 571 131 l 428 131 l 707 972 l 960 972 l 1224 131 l 1086 131 l 1360 972 l 1622 972 l 1307 0 l 1013 0 l 788 715 l 867 715 l 632 0 l 338 0 m 822 1049 q 724 1087 763 1049 q 685 1186 685 1125 q 724 1284 685 1246 q 822 1322 763 1322 q 921 1284 882 1322 q 960 1186 960 1246 q 921 1087 960 1125 q 822 1049 882 1049 z "},"Ẉ":{"ha":1644,"x_min":22,"x_max":1622,"o":"m 338 0 l 22 972 l 306 972 l 571 131 l 428 131 l 707 972 l 960 972 l 1224 131 l 1086 131 l 1360 972 l 1622 972 l 1307 0 l 1013 0 l 788 715 l 867 715 l 632 0 l 338 0 m 822 -337 q 724 -299 763 -337 q 685 -200 685 -261 q 724 -102 685 -140 q 822 -64 763 -64 q 921 -102 882 -64 q 960 -200 960 -140 q 921 -299 960 -261 q 822 -337 882 -337 z "},"Ẁ":{"ha":1644,"x_min":22,"x_max":1622,"o":"m 338 0 l 22 972 l 306 972 l 571 131 l 428 131 l 707 972 l 960 972 l 1224 131 l 1086 131 l 1360 972 l 1622 972 l 1307 0 l 1013 0 l 788 715 l 867 715 l 632 0 l 338 0 m 769 1051 l 508 1263 l 772 1263 l 958 1051 l 769 1051 z "},"Ⱳ":{"ha":1693,"x_min":22,"x_max":1726,"o":"m 338 0 l 22 972 l 306 972 l 571 131 l 428 131 l 707 972 l 960 972 l 1215 131 l 1079 131 l 1299 822 q 1378 967 1328 917 q 1488 1035 1428 1018 q 1610 1040 1547 1051 q 1726 996 1672 1028 l 1653 799 q 1581 804 1614 818 q 1535 744 1549 790 l 1300 0 l 1007 0 l 788 715 l 867 715 l 632 0 l 338 0 z "},"X":{"ha":1024,"x_min":-3,"x_max":1028,"o":"m -3 0 l 422 590 l 421 394 l 13 972 l 322 972 l 583 596 l 451 594 l 708 972 l 1006 972 l 597 406 l 597 600 l 1028 0 l 711 0 l 446 396 l 572 396 l 311 0 l -3 0 z "},"Ẍ":{"ha":1024,"x_min":-3,"x_max":1028,"o":"m -3 0 l 422 590 l 421 394 l 13 972 l 322 972 l 583 596 l 451 594 l 708 972 l 1006 972 l 597 406 l 597 600 l 1028 0 l 711 0 l 446 396 l 572 396 l 311 0 l -3 0 m 660 1050 q 582 1080 614 1050 q 550 1158 550 1110 q 582 1238 550 1207 q 660 1268 614 1268 q 738 1238 706 1268 q 769 1158 769 1207 q 738 1080 769 1110 q 660 1050 706 1050 m 365 1050 q 288 1080 319 1050 q 256 1158 256 1110 q 288 1238 256 1207 q 365 1268 319 1268 q 443 1238 411 1268 q 475 1158 475 1207 q 443 1080 475 1110 q 365 1050 411 1050 z "},"Ẋ":{"ha":1024,"x_min":-3,"x_max":1028,"o":"m -3 0 l 422 590 l 421 394 l 13 972 l 322 972 l 583 596 l 451 594 l 708 972 l 1006 972 l 597 406 l 597 600 l 1028 0 l 711 0 l 446 396 l 572 396 l 311 0 l -3 0 m 513 1049 q 414 1087 453 1049 q 375 1186 375 1125 q 414 1284 375 1246 q 513 1322 453 1322 q 611 1284 572 1322 q 650 1186 650 1246 q 611 1087 650 1125 q 513 1049 572 1049 z "},"Y":{"ha":963,"x_min":-28,"x_max":990,"o":"m 343 0 l 343 411 l 407 246 l -28 972 l 263 972 l 576 446 l 408 446 l 724 972 l 990 972 l 557 246 l 618 411 l 618 0 l 343 0 z "},"Ý":{"ha":963,"x_min":-28,"x_max":990,"o":"m 343 0 l 343 411 l 407 246 l -28 972 l 263 972 l 576 446 l 408 446 l 724 972 l 990 972 l 557 246 l 618 411 l 618 0 l 343 0 m 344 1051 l 531 1263 l 794 1263 l 533 1051 l 344 1051 z "},"Ŷ":{"ha":963,"x_min":-28,"x_max":990,"o":"m 343 0 l 343 411 l 407 246 l -28 972 l 263 972 l 576 446 l 408 446 l 724 972 l 990 972 l 557 246 l 618 411 l 618 0 l 343 0 m 186 1051 l 367 1263 l 594 1263 l 775 1051 l 600 1051 l 404 1225 l 557 1225 l 361 1051 l 186 1051 z "},"Ÿ":{"ha":963,"x_min":-28,"x_max":990,"o":"m 343 0 l 343 411 l 407 246 l -28 972 l 263 972 l 576 446 l 408 446 l 724 972 l 990 972 l 557 246 l 618 411 l 618 0 l 343 0 m 628 1050 q 550 1080 582 1050 q 518 1158 518 1110 q 550 1238 518 1207 q 628 1268 582 1268 q 706 1238 674 1268 q 738 1158 738 1207 q 706 1080 738 1110 q 628 1050 674 1050 m 333 1050 q 256 1080 288 1050 q 224 1158 224 1110 q 256 1238 224 1207 q 333 1268 288 1268 q 411 1238 379 1268 q 443 1158 443 1207 q 411 1080 443 1110 q 333 1050 379 1050 z "},"Ẏ":{"ha":963,"x_min":-28,"x_max":990,"o":"m 343 0 l 343 411 l 407 246 l -28 972 l 263 972 l 576 446 l 408 446 l 724 972 l 990 972 l 557 246 l 618 411 l 618 0 l 343 0 m 481 1049 q 382 1087 421 1049 q 343 1186 343 1125 q 382 1284 343 1246 q 481 1322 421 1322 q 579 1284 540 1322 q 618 1186 618 1246 q 579 1087 618 1125 q 481 1049 540 1049 z "},"Ỵ":{"ha":963,"x_min":-28,"x_max":990,"o":"m 343 0 l 343 411 l 407 246 l -28 972 l 263 972 l 576 446 l 408 446 l 724 972 l 990 972 l 557 246 l 618 411 l 618 0 l 343 0 m 481 -337 q 382 -299 421 -337 q 343 -200 343 -261 q 382 -102 343 -140 q 481 -64 421 -64 q 579 -102 540 -64 q 618 -200 618 -140 q 579 -299 618 -261 q 481 -337 540 -337 z "},"Ỳ":{"ha":963,"x_min":-28,"x_max":990,"o":"m 343 0 l 343 411 l 407 246 l -28 972 l 263 972 l 576 446 l 408 446 l 724 972 l 990 972 l 557 246 l 618 411 l 618 0 l 343 0 m 428 1051 l 167 1263 l 431 1263 l 617 1051 l 428 1051 z "},"Ƴ":{"ha":1015,"x_min":-28,"x_max":1071,"o":"m 1071 989 l 989 796 q 921 811 953 819 q 865 764 889 803 l 558 246 l 618 411 l 618 0 l 343 0 l 343 411 l 407 246 l -28 972 l 261 972 l 576 446 l 410 446 l 676 894 q 797 1019 729 985 q 937 1044 865 1054 q 1071 989 1008 1033 z "},"Ỷ":{"ha":963,"x_min":-28,"x_max":990,"o":"m 343 0 l 343 411 l 407 246 l -28 972 l 263 972 l 576 446 l 408 446 l 724 972 l 990 972 l 557 246 l 618 411 l 618 0 l 343 0 m 488 1008 l 406 1089 q 460 1128 446 1108 q 474 1169 474 1147 q 456 1210 474 1194 q 411 1225 439 1225 q 331 1197 371 1225 l 276 1299 q 361 1341 318 1328 q 444 1354 404 1354 q 540 1332 499 1354 q 606 1272 582 1310 q 629 1189 629 1235 q 596 1089 629 1136 q 488 1008 563 1042 z "},"Ȳ":{"ha":963,"x_min":-28,"x_max":990,"o":"m 343 0 l 343 411 l 407 246 l -28 972 l 263 972 l 576 446 l 408 446 l 724 972 l 990 972 l 557 246 l 618 411 l 618 0 l 343 0 m 207 1086 l 207 1228 l 754 1228 l 754 1086 l 207 1086 z "},"Ʀ":{"ha":1028,"x_min":97,"x_max":993,"o":"m 240 175 l 240 388 l 525 388 q 653 426 611 388 q 696 531 696 464 q 653 635 696 597 q 525 672 611 672 l 240 672 l 240 889 l 532 889 q 859 793 744 889 q 974 531 974 697 q 921 340 974 419 q 772 218 868 261 q 542 175 675 175 l 240 175 m 97 0 l 97 972 l 372 972 l 372 0 l 97 0 m 699 -139 l 471 229 l 764 229 l 993 -139 l 699 -139 z "},"Ɏ":{"ha":963,"x_min":-28,"x_max":990,"o":"m 343 0 l 343 383 l 407 218 l -28 972 l 243 972 l 538 440 l 446 440 l 743 972 l 990 972 l 557 218 l 618 383 l 618 0 l 343 0 m -15 692 l -15 861 l 976 861 l 976 692 l -15 692 z "},"Ỹ":{"ha":963,"x_min":-28,"x_max":990,"o":"m 343 0 l 343 411 l 407 246 l -28 972 l 263 972 l 576 446 l 408 446 l 724 972 l 990 972 l 557 246 l 618 411 l 618 0 l 343 0 m 592 1040 q 524 1053 554 1040 q 471 1084 494 1067 q 426 1115 447 1101 q 385 1128 406 1128 q 341 1107 358 1128 q 321 1053 324 1086 l 189 1053 q 239 1215 192 1153 q 369 1278 286 1278 q 438 1265 408 1278 q 491 1234 467 1251 q 536 1203 515 1217 q 576 1190 557 1190 q 622 1210 604 1190 q 640 1263 639 1231 l 771 1263 q 722 1102 769 1164 q 592 1040 675 1040 z "},"Z":{"ha":943,"x_min":49,"x_max":919,"o":"m 49 0 l 49 172 l 621 851 l 654 754 l 61 754 l 61 972 l 899 972 l 899 800 l 326 121 l 293 218 l 919 218 l 919 0 l 49 0 z "},"Ź":{"ha":943,"x_min":49,"x_max":919,"o":"m 49 0 l 49 172 l 621 851 l 654 754 l 61 754 l 61 972 l 899 972 l 899 800 l 326 121 l 293 218 l 919 218 l 919 0 l 49 0 m 349 1051 l 535 1263 l 799 1263 l 538 1051 l 349 1051 z "},"Ž":{"ha":943,"x_min":49,"x_max":919,"o":"m 49 0 l 49 172 l 621 851 l 654 754 l 61 754 l 61 972 l 899 972 l 899 800 l 326 121 l 293 218 l 919 218 l 919 0 l 49 0 m 371 1051 l 190 1263 l 365 1263 l 561 1090 l 408 1090 l 604 1263 l 779 1263 l 599 1051 l 371 1051 z "},"Ẑ":{"ha":943,"x_min":49,"x_max":919,"o":"m 49 0 l 49 172 l 621 851 l 654 754 l 61 754 l 61 972 l 899 972 l 899 800 l 326 121 l 293 218 l 919 218 l 919 0 l 49 0 m 190 1051 l 371 1263 l 599 1263 l 779 1051 l 604 1051 l 408 1225 l 561 1225 l 365 1051 l 190 1051 z "},"Ż":{"ha":943,"x_min":49,"x_max":919,"o":"m 49 0 l 49 172 l 621 851 l 654 754 l 61 754 l 61 972 l 899 972 l 899 800 l 326 121 l 293 218 l 919 218 l 919 0 l 49 0 m 485 1049 q 386 1087 425 1049 q 347 1186 347 1125 q 386 1284 347 1246 q 485 1322 425 1322 q 583 1284 544 1322 q 622 1186 622 1246 q 583 1087 622 1125 q 485 1049 544 1049 z "},"Ẓ":{"ha":943,"x_min":49,"x_max":919,"o":"m 49 0 l 49 172 l 621 851 l 654 754 l 61 754 l 61 972 l 899 972 l 899 800 l 326 121 l 293 218 l 919 218 l 919 0 l 49 0 m 488 -337 q 389 -299 428 -337 q 350 -200 350 -261 q 389 -102 350 -140 q 488 -64 428 -64 q 586 -102 547 -64 q 625 -200 625 -140 q 586 -299 625 -261 q 488 -337 547 -337 z "},"Ẕ":{"ha":943,"x_min":49,"x_max":919,"o":"m 49 0 l 49 172 l 621 851 l 654 754 l 61 754 l 61 972 l 899 972 l 899 800 l 326 121 l 293 218 l 919 218 l 919 0 l 49 0 m 214 -257 l 214 -115 l 761 -115 l 761 -257 l 214 -257 z "},"Ƶ":{"ha":943,"x_min":49,"x_max":919,"o":"m 49 0 l 49 172 l 621 851 l 654 754 l 61 754 l 61 972 l 899 972 l 899 800 l 326 121 l 293 218 l 919 218 l 919 0 l 49 0 m 154 410 l 154 579 l 808 579 l 808 410 l 154 410 z "},"Ꞌ":{"ha":443,"x_min":86,"x_max":357,"o":"m 86 411 l 86 974 l 357 974 l 322 411 l 86 411 z "},"ɪ":{"ha":578,"x_min":38,"x_max":540,"o":"m 38 561 l 38 753 l 540 753 l 540 561 l 38 561 m 38 0 l 38 192 l 540 192 l 540 0 l 38 0 m 157 0 l 157 753 l 421 753 l 421 0 l 157 0 z "},"ᵻ":{"ha":642,"x_min":69,"x_max":572,"o":"m 69 561 l 69 753 l 572 753 l 572 561 l 69 561 m 69 0 l 69 192 l 572 192 l 572 0 l 69 0 m 189 0 l 189 753 l 453 753 l 453 0 l 189 0 m 86 314 l 86 453 l 557 453 l 557 314 l 86 314 z "},"ɴ":{"ha":939,"x_min":69,"x_max":868,"o":"m 69 0 l 69 753 l 285 753 l 708 308 l 610 308 l 610 753 l 868 753 l 868 0 l 656 0 l 232 450 l 328 450 l 328 0 l 69 0 z "},"ʀ":{"ha":883,"x_min":85,"x_max":861,"o":"m 85 0 l 85 753 l 474 753 q 746 676 649 753 q 843 471 843 599 q 798 323 843 386 q 670 226 753 260 q 474 193 588 193 l 232 193 l 349 297 l 349 0 l 85 0 m 578 0 l 376 276 l 657 276 l 861 0 l 578 0 m 349 267 l 232 390 l 463 390 q 548 410 519 390 q 576 471 576 429 q 548 533 576 513 q 463 553 519 553 l 232 553 l 349 668 l 349 267 z "},"ᵾ":{"ha":1021,"x_min":0,"x_max":1000,"o":"m 422 -12 q 258 24 331 -12 q 144 137 185 60 q 103 332 103 214 l 103 753 l 367 753 l 367 375 q 400 250 367 288 q 492 213 433 213 q 563 231 532 213 q 614 288 594 249 q 633 390 633 328 l 633 753 l 897 753 l 897 0 l 646 0 l 646 213 l 694 153 q 582 28 656 69 q 422 -12 508 -12 m 0 381 l 0 518 l 1000 518 l 1000 381 l 0 381 z "},"a":{"ha":872,"x_min":42,"x_max":790,"o":"m 544 0 l 544 140 l 526 175 l 526 433 q 488 530 526 496 q 367 564 450 564 q 257 547 313 564 q 163 499 201 529 l 74 678 q 227 742 138 719 q 406 765 317 765 q 690 681 589 765 q 790 418 790 597 l 790 0 l 544 0 m 322 -12 q 169 18 232 -12 q 74 101 107 49 q 42 219 42 154 q 77 340 42 289 q 186 417 113 390 q 376 444 260 444 l 554 444 l 554 307 l 413 307 q 323 286 349 307 q 297 231 297 265 q 324 175 297 196 q 396 154 350 154 q 474 176 439 154 q 526 242 510 197 l 563 144 q 481 27 542 67 q 322 -12 421 -12 z "},"á":{"ha":872,"x_min":42,"x_max":790,"o":"m 544 0 l 544 140 l 526 175 l 526 433 q 488 530 526 496 q 367 564 450 564 q 257 547 313 564 q 163 499 201 529 l 74 678 q 227 742 138 719 q 406 765 317 765 q 690 681 589 765 q 790 418 790 597 l 790 0 l 544 0 m 322 -12 q 169 18 232 -12 q 74 101 107 49 q 42 219 42 154 q 77 340 42 289 q 186 417 113 390 q 376 444 260 444 l 554 444 l 554 307 l 413 307 q 323 286 349 307 q 297 231 297 265 q 324 175 297 196 q 396 154 350 154 q 474 176 439 154 q 526 242 510 197 l 563 144 q 481 27 542 67 q 322 -12 421 -12 m 299 843 l 485 1054 l 749 1054 l 488 843 l 299 843 z "},"ă":{"ha":872,"x_min":42,"x_max":790,"o":"m 544 0 l 544 140 l 526 175 l 526 433 q 488 530 526 496 q 367 564 450 564 q 257 547 313 564 q 163 499 201 529 l 74 678 q 227 742 138 719 q 406 765 317 765 q 690 681 589 765 q 790 418 790 597 l 790 0 l 544 0 m 322 -12 q 169 18 232 -12 q 74 101 107 49 q 42 219 42 154 q 77 340 42 289 q 186 417 113 390 q 376 444 260 444 l 554 444 l 554 307 l 413 307 q 323 286 349 307 q 297 231 297 265 q 324 175 297 196 q 396 154 350 154 q 474 176 439 154 q 526 242 510 197 l 563 144 q 481 27 542 67 q 322 -12 421 -12 m 435 831 q 242 890 318 831 q 163 1054 167 950 l 324 1054 q 358 987 326 1011 q 435 963 389 963 q 513 987 481 963 q 546 1054 544 1011 l 707 1054 q 627 890 703 950 q 435 831 551 831 z "},"ắ":{"ha":872,"x_min":42,"x_max":790,"o":"m 544 0 l 544 140 l 526 175 l 526 433 q 488 530 526 496 q 367 564 450 564 q 257 547 313 564 q 163 499 201 529 l 74 678 q 227 742 138 719 q 406 765 317 765 q 690 681 589 765 q 790 418 790 597 l 790 0 l 544 0 m 322 -12 q 169 18 232 -12 q 74 101 107 49 q 42 219 42 154 q 77 340 42 289 q 186 417 113 390 q 376 444 260 444 l 554 444 l 554 307 l 413 307 q 323 286 349 307 q 297 231 297 265 q 324 175 297 196 q 396 154 350 154 q 474 176 439 154 q 526 242 510 197 l 563 144 q 481 27 542 67 q 322 -12 421 -12 m 435 839 q 244 888 319 839 q 163 1021 169 938 l 315 1021 q 352 976 319 993 q 435 958 385 958 q 517 976 485 958 q 554 1021 550 993 l 707 1021 q 626 888 701 938 q 435 839 550 839 m 303 1060 l 450 1233 l 708 1233 l 485 1060 l 303 1060 z "},"ặ":{"ha":872,"x_min":42,"x_max":790,"o":"m 544 0 l 544 140 l 526 175 l 526 433 q 488 530 526 496 q 367 564 450 564 q 257 547 313 564 q 163 499 201 529 l 74 678 q 227 742 138 719 q 406 765 317 765 q 690 681 589 765 q 790 418 790 597 l 790 0 l 544 0 m 322 -12 q 169 18 232 -12 q 74 101 107 49 q 42 219 42 154 q 77 340 42 289 q 186 417 113 390 q 376 444 260 444 l 554 444 l 554 307 l 413 307 q 323 286 349 307 q 297 231 297 265 q 324 175 297 196 q 396 154 350 154 q 474 176 439 154 q 526 242 510 197 l 563 144 q 481 27 542 67 q 322 -12 421 -12 m 411 -339 q 313 -301 351 -339 q 274 -201 274 -262 q 313 -103 274 -142 q 411 -65 351 -65 q 510 -103 471 -65 q 549 -201 549 -142 q 510 -301 549 -262 q 411 -339 471 -339 m 435 831 q 242 890 318 831 q 163 1054 167 950 l 324 1054 q 358 987 326 1011 q 435 963 389 963 q 513 987 481 963 q 546 1054 544 1011 l 707 1054 q 627 890 703 950 q 435 831 551 831 z "},"ằ":{"ha":872,"x_min":42,"x_max":790,"o":"m 544 0 l 544 140 l 526 175 l 526 433 q 488 530 526 496 q 367 564 450 564 q 257 547 313 564 q 163 499 201 529 l 74 678 q 227 742 138 719 q 406 765 317 765 q 690 681 589 765 q 790 418 790 597 l 790 0 l 544 0 m 322 -12 q 169 18 232 -12 q 74 101 107 49 q 42 219 42 154 q 77 340 42 289 q 186 417 113 390 q 376 444 260 444 l 554 444 l 554 307 l 413 307 q 323 286 349 307 q 297 231 297 265 q 324 175 297 196 q 396 154 350 154 q 474 176 439 154 q 526 242 510 197 l 563 144 q 481 27 542 67 q 322 -12 421 -12 m 435 839 q 244 888 319 839 q 163 1021 169 938 l 315 1021 q 352 976 319 993 q 435 958 385 958 q 517 976 485 958 q 554 1021 550 993 l 707 1021 q 626 888 701 938 q 435 839 550 839 m 386 1060 l 161 1233 l 419 1233 l 567 1060 l 386 1060 z "},"ẳ":{"ha":872,"x_min":42,"x_max":790,"o":"m 544 0 l 544 140 l 526 175 l 526 433 q 488 530 526 496 q 367 564 450 564 q 257 547 313 564 q 163 499 201 529 l 74 678 q 227 742 138 719 q 406 765 317 765 q 690 681 589 765 q 790 418 790 597 l 790 0 l 544 0 m 322 -12 q 169 18 232 -12 q 74 101 107 49 q 42 219 42 154 q 77 340 42 289 q 186 417 113 390 q 376 444 260 444 l 554 444 l 554 307 l 413 307 q 323 286 349 307 q 297 231 297 265 q 324 175 297 196 q 396 154 350 154 q 474 176 439 154 q 526 242 510 197 l 563 144 q 481 27 542 67 q 322 -12 421 -12 m 435 839 q 244 888 319 839 q 163 1021 169 938 l 315 1021 q 352 976 319 993 q 435 958 385 958 q 517 976 485 958 q 554 1021 550 993 l 707 1021 q 626 888 701 938 q 435 839 550 839 m 476 1018 l 414 1075 q 453 1105 442 1090 q 464 1131 464 1119 q 451 1158 464 1147 q 419 1168 439 1168 q 357 1151 390 1168 l 315 1226 q 374 1251 342 1243 q 442 1260 407 1260 q 542 1228 504 1260 q 579 1144 579 1197 q 549 1067 579 1100 q 476 1018 519 1035 z "},"ẵ":{"ha":872,"x_min":42,"x_max":790,"o":"m 544 0 l 544 140 l 526 175 l 526 433 q 488 530 526 496 q 367 564 450 564 q 257 547 313 564 q 163 499 201 529 l 74 678 q 227 742 138 719 q 406 765 317 765 q 690 681 589 765 q 790 418 790 597 l 790 0 l 544 0 m 322 -12 q 169 18 232 -12 q 74 101 107 49 q 42 219 42 154 q 77 340 42 289 q 186 417 113 390 q 376 444 260 444 l 554 444 l 554 307 l 413 307 q 323 286 349 307 q 297 231 297 265 q 324 175 297 196 q 396 154 350 154 q 474 176 439 154 q 526 242 510 197 l 563 144 q 481 27 542 67 q 322 -12 421 -12 m 435 839 q 244 888 319 839 q 163 1021 169 938 l 315 1021 q 352 976 319 993 q 435 958 385 958 q 517 976 485 958 q 554 1021 550 993 l 707 1021 q 626 888 701 938 q 435 839 550 839 m 543 1079 q 474 1090 503 1079 q 425 1116 446 1101 q 385 1142 404 1131 q 347 1153 367 1153 q 306 1135 321 1153 q 288 1090 290 1118 l 156 1090 q 203 1226 157 1178 q 328 1275 250 1275 q 415 1257 381 1275 q 474 1220 449 1239 q 526 1201 500 1201 q 569 1219 553 1201 q 586 1264 585 1238 l 714 1264 q 667 1128 713 1176 q 543 1079 622 1079 z "},"ǎ":{"ha":872,"x_min":42,"x_max":790,"o":"m 544 0 l 544 140 l 526 175 l 526 433 q 488 530 526 496 q 367 564 450 564 q 257 547 313 564 q 163 499 201 529 l 74 678 q 227 742 138 719 q 406 765 317 765 q 690 681 589 765 q 790 418 790 597 l 790 0 l 544 0 m 322 -12 q 169 18 232 -12 q 74 101 107 49 q 42 219 42 154 q 77 340 42 289 q 186 417 113 390 q 376 444 260 444 l 554 444 l 554 307 l 413 307 q 323 286 349 307 q 297 231 297 265 q 324 175 297 196 q 396 154 350 154 q 474 176 439 154 q 526 242 510 197 l 563 144 q 481 27 542 67 q 322 -12 421 -12 m 321 843 l 140 1054 l 315 1054 l 511 882 l 358 882 l 554 1054 l 729 1054 l 549 843 l 321 843 z "},"â":{"ha":872,"x_min":42,"x_max":790,"o":"m 544 0 l 544 140 l 526 175 l 526 433 q 488 530 526 496 q 367 564 450 564 q 257 547 313 564 q 163 499 201 529 l 74 678 q 227 742 138 719 q 406 765 317 765 q 690 681 589 765 q 790 418 790 597 l 790 0 l 544 0 m 322 -12 q 169 18 232 -12 q 74 101 107 49 q 42 219 42 154 q 77 340 42 289 q 186 417 113 390 q 376 444 260 444 l 554 444 l 554 307 l 413 307 q 323 286 349 307 q 297 231 297 265 q 324 175 297 196 q 396 154 350 154 q 474 176 439 154 q 526 242 510 197 l 563 144 q 481 27 542 67 q 322 -12 421 -12 m 140 843 l 321 1054 l 549 1054 l 729 843 l 554 843 l 358 1017 l 511 1017 l 315 843 l 140 843 z "},"ấ":{"ha":872,"x_min":42,"x_max":1024,"o":"m 544 0 l 544 140 l 526 175 l 526 433 q 488 530 526 496 q 367 564 450 564 q 257 547 313 564 q 163 499 201 529 l 74 678 q 227 742 138 719 q 406 765 317 765 q 690 681 589 765 q 790 418 790 597 l 790 0 l 544 0 m 322 -12 q 169 18 232 -12 q 74 101 107 49 q 42 219 42 154 q 77 340 42 289 q 186 417 113 390 q 376 444 260 444 l 554 444 l 554 307 l 413 307 q 323 286 349 307 q 297 231 297 265 q 324 175 297 196 q 396 154 350 154 q 474 176 439 154 q 526 242 510 197 l 563 144 q 481 27 542 67 q 322 -12 421 -12 m 140 843 l 322 1013 l 547 1013 l 729 843 l 553 843 l 363 975 l 507 975 l 317 843 l 140 843 m 618 982 l 765 1156 l 1024 1156 l 800 982 l 618 982 z "},"ậ":{"ha":872,"x_min":42,"x_max":790,"o":"m 544 0 l 544 140 l 526 175 l 526 433 q 488 530 526 496 q 367 564 450 564 q 257 547 313 564 q 163 499 201 529 l 74 678 q 227 742 138 719 q 406 765 317 765 q 690 681 589 765 q 790 418 790 597 l 790 0 l 544 0 m 322 -12 q 169 18 232 -12 q 74 101 107 49 q 42 219 42 154 q 77 340 42 289 q 186 417 113 390 q 376 444 260 444 l 554 444 l 554 307 l 413 307 q 323 286 349 307 q 297 231 297 265 q 324 175 297 196 q 396 154 350 154 q 474 176 439 154 q 526 242 510 197 l 563 144 q 481 27 542 67 q 322 -12 421 -12 m 411 -339 q 313 -301 351 -339 q 274 -201 274 -262 q 313 -103 274 -142 q 411 -65 351 -65 q 510 -103 471 -65 q 549 -201 549 -142 q 510 -301 549 -262 q 411 -339 471 -339 m 140 843 l 321 1054 l 549 1054 l 729 843 l 554 843 l 358 1017 l 511 1017 l 315 843 l 140 843 z "},"ầ":{"ha":872,"x_min":42,"x_max":882,"o":"m 544 0 l 544 140 l 526 175 l 526 433 q 488 530 526 496 q 367 564 450 564 q 257 547 313 564 q 163 499 201 529 l 74 678 q 227 742 138 719 q 406 765 317 765 q 690 681 589 765 q 790 418 790 597 l 790 0 l 544 0 m 322 -12 q 169 18 232 -12 q 74 101 107 49 q 42 219 42 154 q 77 340 42 289 q 186 417 113 390 q 376 444 260 444 l 554 444 l 554 307 l 413 307 q 323 286 349 307 q 297 231 297 265 q 324 175 297 196 q 396 154 350 154 q 474 176 439 154 q 526 242 510 197 l 563 144 q 481 27 542 67 q 322 -12 421 -12 m 140 843 l 322 1013 l 547 1013 l 729 843 l 553 843 l 363 975 l 507 975 l 317 843 l 140 843 m 701 982 l 476 1156 l 735 1156 l 882 982 l 701 982 z "},"ẩ":{"ha":872,"x_min":42,"x_max":810,"o":"m 544 0 l 544 140 l 526 175 l 526 433 q 488 530 526 496 q 367 564 450 564 q 257 547 313 564 q 163 499 201 529 l 74 678 q 227 742 138 719 q 406 765 317 765 q 690 681 589 765 q 790 418 790 597 l 790 0 l 544 0 m 322 -12 q 169 18 232 -12 q 74 101 107 49 q 42 219 42 154 q 77 340 42 289 q 186 417 113 390 q 376 444 260 444 l 554 444 l 554 307 l 413 307 q 323 286 349 307 q 297 231 297 265 q 324 175 297 196 q 396 154 350 154 q 474 176 439 154 q 526 242 510 197 l 563 144 q 481 27 542 67 q 322 -12 421 -12 m 140 843 l 322 1013 l 547 1013 l 729 843 l 553 843 l 363 975 l 507 975 l 317 843 l 140 843 m 707 954 l 644 1011 q 683 1041 672 1026 q 694 1067 694 1056 q 682 1094 694 1083 q 650 1104 669 1104 q 588 1088 621 1104 l 546 1163 q 605 1188 572 1179 q 672 1196 638 1196 q 772 1165 735 1196 q 810 1081 810 1133 q 780 1003 810 1036 q 707 954 750 971 z "},"ẫ":{"ha":872,"x_min":42,"x_max":790,"o":"m 544 0 l 544 140 l 526 175 l 526 433 q 488 530 526 496 q 367 564 450 564 q 257 547 313 564 q 163 499 201 529 l 74 678 q 227 742 138 719 q 406 765 317 765 q 690 681 589 765 q 790 418 790 597 l 790 0 l 544 0 m 322 -12 q 169 18 232 -12 q 74 101 107 49 q 42 219 42 154 q 77 340 42 289 q 186 417 113 390 q 376 444 260 444 l 554 444 l 554 307 l 413 307 q 323 286 349 307 q 297 231 297 265 q 324 175 297 196 q 396 154 350 154 q 474 176 439 154 q 526 242 510 197 l 563 144 q 481 27 542 67 q 322 -12 421 -12 m 140 843 l 322 1013 l 547 1013 l 729 843 l 553 843 l 363 975 l 507 975 l 317 843 l 140 843 m 543 1069 q 474 1081 503 1069 q 425 1106 446 1092 q 385 1132 404 1121 q 347 1143 367 1143 q 306 1126 321 1143 q 288 1081 290 1108 l 156 1081 q 203 1217 157 1168 q 328 1265 250 1265 q 415 1247 381 1265 q 474 1210 449 1229 q 526 1192 500 1192 q 569 1210 553 1192 q 586 1254 585 1228 l 714 1254 q 667 1118 713 1167 q 543 1069 622 1069 z "},"ȁ":{"ha":872,"x_min":42,"x_max":790,"o":"m 544 0 l 544 140 l 526 175 l 526 433 q 488 530 526 496 q 367 564 450 564 q 257 547 313 564 q 163 499 201 529 l 74 678 q 227 742 138 719 q 406 765 317 765 q 690 681 589 765 q 790 418 790 597 l 790 0 l 544 0 m 322 -12 q 169 18 232 -12 q 74 101 107 49 q 42 219 42 154 q 77 340 42 289 q 186 417 113 390 q 376 444 260 444 l 554 444 l 554 307 l 413 307 q 323 286 349 307 q 297 231 297 265 q 324 175 297 196 q 396 154 350 154 q 474 176 439 154 q 526 242 510 197 l 563 144 q 481 27 542 67 q 322 -12 421 -12 m 494 843 l 354 1054 l 590 1054 l 678 843 l 494 843 m 192 843 l 53 1054 l 289 1054 l 375 843 l 192 843 z "},"ä":{"ha":872,"x_min":42,"x_max":790,"o":"m 544 0 l 544 140 l 526 175 l 526 433 q 488 530 526 496 q 367 564 450 564 q 257 547 313 564 q 163 499 201 529 l 74 678 q 227 742 138 719 q 406 765 317 765 q 690 681 589 765 q 790 418 790 597 l 790 0 l 544 0 m 322 -12 q 169 18 232 -12 q 74 101 107 49 q 42 219 42 154 q 77 340 42 289 q 186 417 113 390 q 376 444 260 444 l 554 444 l 554 307 l 413 307 q 323 286 349 307 q 297 231 297 265 q 324 175 297 196 q 396 154 350 154 q 474 176 439 154 q 526 242 510 197 l 563 144 q 481 27 542 67 q 322 -12 421 -12 m 582 842 q 504 872 536 842 q 472 950 472 901 q 504 1029 472 999 q 582 1060 536 1060 q 660 1029 628 1060 q 692 950 692 999 q 660 872 692 901 q 582 842 628 842 m 288 842 q 210 872 242 842 q 178 950 178 901 q 210 1029 178 999 q 288 1060 242 1060 q 365 1029 333 1060 q 397 950 397 999 q 365 872 397 901 q 288 842 333 842 z "},"ǟ":{"ha":872,"x_min":42,"x_max":790,"o":"m 544 0 l 544 140 l 526 175 l 526 433 q 488 530 526 496 q 367 564 450 564 q 257 547 313 564 q 163 499 201 529 l 74 678 q 227 742 138 719 q 406 765 317 765 q 690 681 589 765 q 790 418 790 597 l 790 0 l 544 0 m 322 -12 q 169 18 232 -12 q 74 101 107 49 q 42 219 42 154 q 77 340 42 289 q 186 417 113 390 q 376 444 260 444 l 554 444 l 554 307 l 413 307 q 323 286 349 307 q 297 231 297 265 q 324 175 297 196 q 396 154 350 154 q 474 176 439 154 q 526 242 510 197 l 563 144 q 481 27 542 67 q 322 -12 421 -12 m 576 836 q 502 865 532 836 q 472 939 472 894 q 502 1015 472 986 q 576 1043 532 1043 q 651 1015 621 1043 q 681 939 681 986 q 651 865 681 894 q 576 836 621 836 m 293 836 q 219 865 250 836 q 189 939 189 894 q 219 1015 189 986 q 293 1043 250 1043 q 368 1015 338 1043 q 399 939 399 986 q 368 865 399 894 q 293 836 338 836 m 161 1117 l 161 1251 l 708 1251 l 708 1117 l 161 1117 z "},"ȧ":{"ha":872,"x_min":42,"x_max":790,"o":"m 544 0 l 544 140 l 526 175 l 526 433 q 488 530 526 496 q 367 564 450 564 q 257 547 313 564 q 163 499 201 529 l 74 678 q 227 742 138 719 q 406 765 317 765 q 690 681 589 765 q 790 418 790 597 l 790 0 l 544 0 m 322 -12 q 169 18 232 -12 q 74 101 107 49 q 42 219 42 154 q 77 340 42 289 q 186 417 113 390 q 376 444 260 444 l 554 444 l 554 307 l 413 307 q 323 286 349 307 q 297 231 297 265 q 324 175 297 196 q 396 154 350 154 q 474 176 439 154 q 526 242 510 197 l 563 144 q 481 27 542 67 q 322 -12 421 -12 m 435 840 q 336 878 375 840 q 297 978 297 917 q 336 1076 297 1038 q 435 1114 375 1114 q 533 1076 494 1114 q 572 978 572 1038 q 533 878 572 917 q 435 840 494 840 z "},"ạ":{"ha":872,"x_min":42,"x_max":790,"o":"m 544 0 l 544 140 l 526 175 l 526 433 q 488 530 526 496 q 367 564 450 564 q 257 547 313 564 q 163 499 201 529 l 74 678 q 227 742 138 719 q 406 765 317 765 q 690 681 589 765 q 790 418 790 597 l 790 0 l 544 0 m 322 -12 q 169 18 232 -12 q 74 101 107 49 q 42 219 42 154 q 77 340 42 289 q 186 417 113 390 q 376 444 260 444 l 554 444 l 554 307 l 413 307 q 323 286 349 307 q 297 231 297 265 q 324 175 297 196 q 396 154 350 154 q 474 176 439 154 q 526 242 510 197 l 563 144 q 481 27 542 67 q 322 -12 421 -12 m 411 -339 q 313 -301 351 -339 q 274 -201 274 -262 q 313 -103 274 -142 q 411 -65 351 -65 q 510 -103 471 -65 q 549 -201 549 -142 q 510 -301 549 -262 q 411 -339 471 -339 z "},"ǡ":{"ha":872,"x_min":42,"x_max":790,"o":"m 544 0 l 544 140 l 526 175 l 526 433 q 488 530 526 496 q 367 564 450 564 q 257 547 313 564 q 163 499 201 529 l 74 678 q 227 742 138 719 q 406 765 317 765 q 690 681 589 765 q 790 418 790 597 l 790 0 l 544 0 m 322 -12 q 169 18 232 -12 q 74 101 107 49 q 42 219 42 154 q 77 340 42 289 q 186 417 113 390 q 376 444 260 444 l 554 444 l 554 307 l 413 307 q 323 286 349 307 q 297 231 297 265 q 324 175 297 196 q 396 154 350 154 q 474 176 439 154 q 526 242 510 197 l 563 144 q 481 27 542 67 q 322 -12 421 -12 m 435 838 q 357 867 389 838 q 325 944 325 896 q 357 1024 325 994 q 435 1054 389 1054 q 513 1024 481 1054 q 544 944 544 994 q 513 867 544 896 q 435 838 481 838 m 161 1117 l 161 1251 l 708 1251 l 708 1117 l 161 1117 z "},"à":{"ha":872,"x_min":42,"x_max":790,"o":"m 544 0 l 544 140 l 526 175 l 526 433 q 488 530 526 496 q 367 564 450 564 q 257 547 313 564 q 163 499 201 529 l 74 678 q 227 742 138 719 q 406 765 317 765 q 690 681 589 765 q 790 418 790 597 l 790 0 l 544 0 m 322 -12 q 169 18 232 -12 q 74 101 107 49 q 42 219 42 154 q 77 340 42 289 q 186 417 113 390 q 376 444 260 444 l 554 444 l 554 307 l 413 307 q 323 286 349 307 q 297 231 297 265 q 324 175 297 196 q 396 154 350 154 q 474 176 439 154 q 526 242 510 197 l 563 144 q 481 27 542 67 q 322 -12 421 -12 m 382 843 l 121 1054 l 385 1054 l 571 843 l 382 843 z "},"ả":{"ha":872,"x_min":42,"x_max":790,"o":"m 544 0 l 544 140 l 526 175 l 526 433 q 488 530 526 496 q 367 564 450 564 q 257 547 313 564 q 163 499 201 529 l 74 678 q 227 742 138 719 q 406 765 317 765 q 690 681 589 765 q 790 418 790 597 l 790 0 l 544 0 m 322 -12 q 169 18 232 -12 q 74 101 107 49 q 42 219 42 154 q 77 340 42 289 q 186 417 113 390 q 376 444 260 444 l 554 444 l 554 307 l 413 307 q 323 286 349 307 q 297 231 297 265 q 324 175 297 196 q 396 154 350 154 q 474 176 439 154 q 526 242 510 197 l 563 144 q 481 27 542 67 q 322 -12 421 -12 m 463 814 l 381 894 q 435 933 421 914 q 449 975 449 953 q 431 1015 449 1000 q 386 1031 414 1031 q 306 1003 346 1031 l 251 1104 q 336 1147 293 1133 q 419 1160 379 1160 q 515 1138 474 1160 q 581 1078 557 1115 q 604 994 604 1040 q 571 894 604 942 q 463 814 538 847 z "},"ȃ":{"ha":872,"x_min":42,"x_max":790,"o":"m 544 0 l 544 140 l 526 175 l 526 433 q 488 530 526 496 q 367 564 450 564 q 257 547 313 564 q 163 499 201 529 l 74 678 q 227 742 138 719 q 406 765 317 765 q 690 681 589 765 q 790 418 790 597 l 790 0 l 544 0 m 322 -12 q 169 18 232 -12 q 74 101 107 49 q 42 219 42 154 q 77 340 42 289 q 186 417 113 390 q 376 444 260 444 l 554 444 l 554 307 l 413 307 q 323 286 349 307 q 297 231 297 265 q 324 175 297 196 q 396 154 350 154 q 474 176 439 154 q 526 242 510 197 l 563 144 q 481 27 542 67 q 322 -12 421 -12 m 163 843 q 242 1007 167 947 q 435 1067 318 1067 q 627 1007 551 1067 q 707 843 703 947 l 546 843 q 513 910 544 885 q 435 935 481 935 q 358 910 389 935 q 324 843 326 885 l 163 843 z "},"ɑ":{"ha":965,"x_min":38,"x_max":881,"o":"m 407 -12 q 221 35 306 -12 q 87 170 136 83 q 38 378 38 257 q 87 584 38 497 q 221 718 136 671 q 407 765 306 765 q 572 724 504 765 q 674 596 639 682 q 710 378 710 510 q 676 157 710 243 q 576 29 643 71 q 407 -12 510 -12 m 463 197 q 542 218 507 197 q 599 280 578 239 q 621 378 621 321 q 599 474 621 435 q 542 535 578 514 q 463 556 507 556 q 383 535 418 556 q 326 474 347 514 q 304 378 304 435 q 326 280 304 321 q 383 218 347 239 q 463 197 418 197 m 629 0 l 629 129 l 631 378 l 617 626 l 617 753 l 881 753 l 881 0 l 629 0 z "},"ā":{"ha":872,"x_min":42,"x_max":790,"o":"m 544 0 l 544 140 l 526 175 l 526 433 q 488 530 526 496 q 367 564 450 564 q 257 547 313 564 q 163 499 201 529 l 74 678 q 227 742 138 719 q 406 765 317 765 q 690 681 589 765 q 790 418 790 597 l 790 0 l 544 0 m 322 -12 q 169 18 232 -12 q 74 101 107 49 q 42 219 42 154 q 77 340 42 289 q 186 417 113 390 q 376 444 260 444 l 554 444 l 554 307 l 413 307 q 323 286 349 307 q 297 231 297 265 q 324 175 297 196 q 396 154 350 154 q 474 176 439 154 q 526 242 510 197 l 563 144 q 481 27 542 67 q 322 -12 421 -12 m 161 878 l 161 1019 l 708 1019 l 708 878 l 161 878 z "},"ą":{"ha":872,"x_min":42,"x_max":824,"o":"m 544 0 l 544 140 l 526 175 l 526 433 q 488 530 526 496 q 367 564 450 564 q 257 547 313 564 q 163 499 201 529 l 74 678 q 227 742 138 719 q 406 765 317 765 q 690 681 589 765 q 790 418 790 597 l 790 0 l 544 0 m 322 -12 q 169 18 232 -12 q 74 101 107 49 q 42 219 42 154 q 77 340 42 289 q 186 417 113 390 q 376 444 260 444 l 554 444 l 554 307 l 413 307 q 323 286 349 307 q 297 231 297 265 q 324 175 297 196 q 396 154 350 154 q 474 176 439 154 q 526 242 510 197 l 563 144 q 481 27 542 67 q 322 -12 421 -12 m 675 -328 q 524 -283 578 -328 q 471 -165 471 -237 q 495 -75 471 -117 q 569 2 519 -33 q 692 63 619 38 l 790 0 q 695 -50 731 -26 q 645 -96 660 -74 q 631 -142 631 -118 q 649 -185 631 -168 q 707 -203 668 -203 q 751 -197 729 -203 q 789 -182 774 -190 l 824 -296 q 758 -319 799 -310 q 675 -328 718 -328 z "},"ẚ":{"ha":872,"x_min":42,"x_max":790,"o":"m 544 0 l 544 140 l 526 175 l 526 433 q 488 530 526 496 q 367 564 450 564 q 257 547 313 564 q 163 499 201 529 l 74 678 q 227 742 138 719 q 406 765 317 765 q 690 681 589 765 q 790 418 790 597 l 790 0 l 544 0 m 322 -12 q 169 18 232 -12 q 74 101 107 49 q 42 219 42 154 q 77 340 42 289 q 186 417 113 390 q 376 444 260 444 l 554 444 l 554 307 l 413 307 q 323 286 349 307 q 297 231 297 265 q 324 175 297 196 q 396 154 350 154 q 474 176 439 154 q 526 242 510 197 l 563 144 q 481 27 542 67 q 322 -12 421 -12 m 360 821 l 360 918 q 417 940 394 918 q 439 997 439 963 q 416 1054 439 1032 q 360 1076 393 1076 l 360 1175 q 453 1151 413 1175 q 519 1087 494 1126 q 543 997 543 1047 q 519 908 543 949 q 453 844 494 868 q 360 821 413 821 z "},"å":{"ha":872,"x_min":42,"x_max":790,"o":"m 544 0 l 544 140 l 526 175 l 526 433 q 488 530 526 496 q 367 564 450 564 q 257 547 313 564 q 163 499 201 529 l 74 678 q 227 742 138 719 q 406 765 317 765 q 690 681 589 765 q 790 418 790 597 l 790 0 l 544 0 m 322 -12 q 169 18 232 -12 q 74 101 107 49 q 42 219 42 154 q 77 340 42 289 q 186 417 113 390 q 376 444 260 444 l 554 444 l 554 307 l 413 307 q 323 286 349 307 q 297 231 297 265 q 324 175 297 196 q 396 154 350 154 q 474 176 439 154 q 526 242 510 197 l 563 144 q 481 27 542 67 q 322 -12 421 -12 m 435 821 q 342 844 383 821 q 276 908 300 868 q 251 997 251 949 q 276 1087 251 1047 q 342 1151 300 1126 q 435 1175 383 1175 q 528 1151 488 1175 q 594 1087 569 1126 q 618 997 618 1047 q 594 908 618 949 q 528 844 569 868 q 435 821 486 821 m 435 918 q 492 940 469 918 q 514 997 514 963 q 491 1055 514 1032 q 435 1078 468 1078 q 378 1056 401 1078 q 356 997 356 1033 q 378 940 356 963 q 435 918 401 918 z "},"ǻ":{"ha":872,"x_min":42,"x_max":790,"o":"m 544 0 l 544 140 l 526 175 l 526 433 q 488 530 526 496 q 367 564 450 564 q 257 547 313 564 q 163 499 201 529 l 74 678 q 227 742 138 719 q 406 765 317 765 q 690 681 589 765 q 790 418 790 597 l 790 0 l 544 0 m 322 -12 q 169 18 232 -12 q 74 101 107 49 q 42 219 42 154 q 77 340 42 289 q 186 417 113 390 q 376 444 260 444 l 554 444 l 554 307 l 413 307 q 323 286 349 307 q 297 231 297 265 q 324 175 297 196 q 396 154 350 154 q 474 176 439 154 q 526 242 510 197 l 563 144 q 481 27 542 67 q 322 -12 421 -12 m 435 821 q 342 844 383 821 q 276 908 300 868 q 251 997 251 949 q 276 1087 251 1047 q 342 1151 300 1126 q 435 1175 383 1175 q 528 1151 488 1175 q 594 1087 569 1126 q 618 997 618 1047 q 594 908 618 949 q 528 844 569 868 q 435 821 486 821 m 435 918 q 492 940 469 918 q 514 997 514 963 q 491 1055 514 1032 q 435 1078 468 1078 q 378 1056 401 1078 q 356 997 356 1033 q 378 940 356 963 q 435 918 401 918 m 571 1068 l 449 1107 l 626 1292 l 756 1194 l 571 1068 z "}}}
